<svg xmlns="http://www.w3.org/2000/svg" width="21.875" height="25" viewBox="0 0 21.875 25">
  <path id="bell-solid" d="M10.937,25a3.124,3.124,0,0,0,3.124-3.125H7.813A3.124,3.124,0,0,0,10.937,25Zm10.517-7.31c-.943-1.014-2.708-2.539-2.708-7.534A7.711,7.711,0,0,0,12.5,2.58V1.563a1.562,1.562,0,1,0-3.123,0V2.58a7.711,7.711,0,0,0-6.247,7.576c0,5-1.765,6.52-2.708,7.534A1.526,1.526,0,0,0,0,18.75a1.564,1.564,0,0,0,1.567,1.563h18.74a1.564,1.564,0,0,0,1.567-1.562A1.525,1.525,0,0,0,21.454,17.69Z" transform="translate(0.001)" fill="#a7a5b4"/>
</svg>
