<svg xmlns="http://www.w3.org/2000/svg" viewBox="0 0 20 16" width="15" height="12">
	<style>
		tspan { white-space:pre }
		.shp0 { fill: #ffffff } 
	</style>
	<path id="tags-solid" fill-rule="evenodd" class="shp0" d="M15.56 7.06C16.15 7.65 16.15 8.6 15.56 9.18L9.18 15.56C8.6 16.15 7.65 16.15 7.06 15.56L0.44 8.94C0.16 8.66 0 8.28 0 7.88L0 1.5C0 0.67 0.67 0 1.5 0L7.88 0C8.28 0 8.66 0.16 8.94 0.44C8.94 0.44 15.56 7.06 15.56 7.06ZM5 3.5C5 2.67 4.33 2 3.5 2C2.67 2 2 2.67 2 3.5C2 4.33 2.67 5 3.5 5C4.33 5 5 4.33 5 3.5ZM19.56 9.18L13.18 15.56C12.6 16.15 11.65 16.15 11.06 15.56L11.05 15.55L16.49 10.11C17.02 9.58 17.31 8.87 17.31 8.12C17.31 7.37 17.02 6.66 16.49 6.13L10.36 0L11.88 0C12.28 0 12.66 0.16 12.94 0.44L19.56 7.06C20.15 7.65 20.15 8.6 19.56 9.18Z" />
</svg>