<svg _ngcontent-c16="" class="details-icon__i-icon ng-tns-c16-15 ng-trigger ng-trigger-fadeOpacity ng-star-inserted" height="22px" version="1.1" width="22px" xmlns="http://www.w3.org/2000/svg" style=""><g _ngcontent-c16="" class="ng-tns-c16-15" fill="none" fill-rule="evenodd" id="Symbols" stroke="none" stroke-width="1"><g _ngcontent-c16="" class="ng-tns-c16-15" id="info-icon-sm"><g _ngcontent-c16="" class="ng-tns-c16-15"><g _ngcontent-c16="" class="ng-tns-c16-15" fill="#ef476f" id="Group-8" transform="translate(11.150000, 11.050000) rotate(180.000000) translate(-11.150000, -11.050000) translate(9.650000, 5.050000)"><path _ngcontent-c16="" class="ng-tns-c16-15" d="M1.65,11.55 L1.65,11.55 C1.04248678,11.55 0.55,11.0575132 0.55,10.45 L0.55,10.45 C0.55,9.84248678 1.04248678,9.35 1.65,9.35 L1.65,9.35 C2.25751322,9.35 2.75,9.84248678 2.75,10.45 L2.75,10.45 C2.75,11.0575132 2.25751322,11.55 1.65,11.55 Z" id="Path" stroke="#ef476f" stroke-width="0.75"></path><path _ngcontent-c16="" class="ng-tns-c16-15" d="M1.92368745,7.15 L1.31517681,7.15 C0.87569916,7.15 0.519432131,6.79373297 0.519432131,6.35425532 L0.519432131,0.795744681 C0.519432131,0.356267029 0.87569916,-1.4131387e-16 1.31517681,-2.22044605e-16 L1.92368745,0 C2.3631651,-8.0730735e-17 2.71943213,0.356267029 2.71943213,0.795744681 L2.71943213,6.35425532 C2.71943213,6.79373297 2.3631651,7.15 1.92368745,7.15 Z" id="Path"></path></g></g></g></g></svg>