<svg xmlns="http://www.w3.org/2000/svg" width="25" height="25" viewBox="0 0 25 25">
  <path id="question-circle-regular" d="M20.5,8A12.5,12.5,0,1,0,33,20.5,12.5,12.5,0,0,0,20.5,8Zm0,22.581A10.081,10.081,0,1,1,30.581,20.5,10.075,10.075,0,0,1,20.5,30.581Zm5.405-12.863c0,3.38-3.65,3.432-3.65,4.681v.319a.6.6,0,0,1-.6.6h-2.3a.6.6,0,0,1-.6-.6v-.436c0-1.8,1.366-2.522,2.4-3.1.885-.5,1.428-.834,1.428-1.491,0-.869-1.109-1.446-2.005-1.446-1.169,0-1.708.553-2.467,1.511a.605.605,0,0,1-.84.107l-1.4-1.063a.606.606,0,0,1-.133-.825,5.666,5.666,0,0,1,5.069-2.731C23.265,13.242,25.905,15.173,25.905,17.718Zm-3.289,8.427A2.117,2.117,0,1,1,20.5,24.028,2.119,2.119,0,0,1,22.617,26.145Z" transform="translate(-8 -8)" fill="#a7a5b4"/>
</svg>
