<?xml version="1.0" encoding="utf-8"?>
<!-- Generator: Adobe Illustrator 24.0.1, SVG Export Plug-In . SVG Version: 6.00 Build 0)  -->
<svg version="1.1" id="Ebene_1" xmlns="http://www.w3.org/2000/svg" xmlns:xlink="http://www.w3.org/1999/xlink" x="0px" y="0px"
	 viewBox="0 0 3386.67 970.67" style="enable-background:new 0 0 3386.67 970.67;" xml:space="preserve">
<style type="text/css">
	.st0{fill:#6A55A0;}
</style>
<g>
	<path class="st0" d="M265.73,266.81l262.95-87.77l-17.64,74.79c22.82,5.38,47.59,12.64,74.98,22.42
		c60.76,21.69,115.92,46.87,165.39,75.5l109.37-230.49c-52.06-32.98-113.52-59.46-184.27-79.4
		c-70.75-19.99-141.7-29.98-212.91-29.98c-78.15,0-146.7,12.19-205.76,36.47c-59.06,24.33-104.63,59.26-136.71,104.83
		C89,198.75,72.91,251.96,72.91,312.72c0,62.51,15.64,112.42,46.92,149.75c31.23,37.32,68.35,64.91,111.32,82.69
		c42.97,17.79,96.59,34.93,160.84,51.42c17.34,4.27,32.6,8.44,46.92,12.57l16.97-71.92l204.27,160.91L397.2,785.91l14.12-59.84
		c-33.76-6.75-71.11-18.01-113.12-35.06c-69.45-28.23-127.16-62.31-173.18-102.23L13,816.68c59.91,46.02,130.91,82.24,212.96,108.73
		c82.04,26.48,163.44,39.72,244.14,39.72c71.2,0,135.86-10.89,194.07-32.58c58.16-21.69,104.38-54.86,138.66-99.63
		c34.33-44.67,51.47-100.03,51.47-165.99c0-64.26-16.09-116.12-48.17-155.64c-32.13-39.47-69.7-68.36-112.67-86.59
		c-42.97-18.24-97.04-36.48-162.14-54.71c-16.48-4.38-31.02-8.59-44.67-12.73L470,427.72L265.73,266.81z"/>
	<path class="st0" d="M1231.88,303.58c-203.11,0-342.47,147.15-342.47,329.48c0,207.06,153.64,330.78,350.31,330.78
		c93.74,0,205.76-24.73,268.27-78.15l-96.38-144.55c-31.23,27.33-109.38,44.27-144.55,44.27c-76.85,0-122.42-39.07-135.41-79.44
		h427.11v-48.17C1558.75,436.39,1416.8,303.58,1231.88,303.58z M1129.04,557.5c7.79-28.63,31.23-75.5,102.83-75.5
		c75.55,0,97.68,48.17,104.23,75.5H1129.04z"/>
	<rect x="1639.5" y="79.58" class="st0" width="234.39" height="868.61"/>
	<rect x="2004.1" y="79.58" class="st0" width="234.39" height="868.61"/>
	<rect x="2368.76" y="319.22" class="st0" width="234.39" height="628.97"/>
	<path class="st0" d="M2485.98,10.57c-72.95,0-131.56,58.61-131.56,131.51c0,72.95,58.61,131.56,131.56,131.56
		c72.9,0,131.51-58.61,131.51-131.56C2617.49,69.18,2558.88,10.57,2485.98,10.57z"/>
	<polygon class="st0" points="3155.27,625.21 3348.04,319.22 3091.47,319.22 3006.82,466.37 2922.18,319.22 2665.65,319.22 
		2858.37,625.21 2652.61,948.19 2907.84,948.19 3008.12,781.5 3105.81,948.19 3362.33,948.19 	"/>
</g>
</svg>
