<?xml version="1.0" encoding="utf-8"?>
<!-- Generator: Adobe Illustrator 24.0.1, SVG Export Plug-In . SVG Version: 6.00 Build 0)  -->
<svg version="1.1" id="Ebene_1" xmlns="http://www.w3.org/2000/svg" xmlns:xlink="http://www.w3.org/1999/xlink" x="0px" y="0px"
	 viewBox="0 0 3472 1485.4" style="enable-background:new 0 0 3472 1485.4;" xml:space="preserve">
<style type="text/css">
	.st0{fill:#6A3CE2;}
	.st1{opacity:0.22;}
</style>
<g>
	<path class="st0" d="M265.7,266.8l263-87.8L511,253.8c22.8,5.4,47.6,12.6,75,22.4c60.8,21.7,115.9,46.9,165.4,75.5l109.4-230.5
		c-52.1-33-113.5-59.5-184.3-79.4c-70.8-20-141.7-30-212.9-30c-78.1,0-146.7,12.2-205.8,36.5s-104.6,59.3-136.7,104.8
		C89,198.8,72.9,252,72.9,312.7c0,62.5,15.6,112.4,46.9,149.8c31.2,37.3,68.3,64.9,111.3,82.7s96.6,34.9,160.8,51.4
		c17.3,4.3,32.6,8.4,46.9,12.6l17-71.9l204.3,160.9L397.2,786l14.1-59.8c-33.8-6.8-71.1-18-113.1-35.1
		C228.8,662.8,171,628.7,125,588.8L13,816.7c59.9,46,130.9,82.2,213,108.7c82,26.5,163.4,39.7,244.1,39.7
		c71.2,0,135.9-10.9,194.1-32.6c58.2-21.7,104.4-54.9,138.7-99.6c34.3-44.7,51.5-100,51.5-166c0-64.3-16.1-116.1-48.2-155.6
		c-32.1-39.5-69.7-68.4-112.7-86.6s-97-36.5-162.1-54.7c-16.5-4.4-31-8.6-44.7-12.7L470,427.7L265.7,266.8z"/>
	<path class="st0" d="M1231.9,303.6c-203.1,0-342.5,147.1-342.5,329.5c0,207.1,153.6,330.8,350.3,330.8
		c93.7,0,205.8-24.7,268.3-78.2l-96.4-144.5c-31.2,27.3-109.4,44.3-144.6,44.3c-76.8,0-122.4-39.1-135.4-79.4h427.1v-48.2
		C1558.8,436.4,1416.8,303.6,1231.9,303.6z M1129,557.5c7.8-28.6,31.2-75.5,102.8-75.5c75.6,0,97.7,48.2,104.2,75.5H1129z"/>
	<rect x="1639.5" y="79.6" class="st0" width="234.4" height="868.6"/>
	<rect x="2004.1" y="79.6" class="st0" width="234.4" height="868.6"/>
	<rect x="2368.8" y="319.2" class="st0" width="234.4" height="629"/>
	<path class="st0" d="M2486,10.6c-72.9,0-131.6,58.6-131.6,131.5S2413,273.7,2486,273.7c72.9,0,131.5-58.6,131.5-131.6
		C2617.5,69.2,2558.9,10.6,2486,10.6z"/>
	<polygon class="st0" points="3155.3,625.2 3348,319.2 3091.5,319.2 3006.8,466.4 2922.2,319.2 2665.6,319.2 2858.4,625.2 
		2652.6,948.2 2907.8,948.2 3008.1,781.5 3105.8,948.2 3362.3,948.2 	"/>
</g>
<g class="st1">
	<path d="M2002.9,1311.3c0,62.5-51.6,99.1-148.7,99.1h-195.1v-361.3h184.8c95,0,141.4,38.7,141.4,94.5c0,34.6-17.5,62.5-48.5,78.5
		C1977.6,1236.5,2002.9,1267.5,2002.9,1311.3z M1760.3,1122.9v69.7h70.2c34.1,0,51.6-11.9,51.6-35.1c0-22.7-17.5-34.6-51.6-34.6
		H1760.3z M1899.7,1300c0-24.8-18.6-36.6-53.7-36.6h-85.7v73.3h85.7C1881.1,1336.6,1899.7,1324.8,1899.7,1300z"/>
	<path d="M2449.4,1331.5v79h-290.1v-361.3h283.4v79h-182.2v60.9H2421v76.4h-160.5v66.1H2449.4z"/>
	<path d="M2686.3,1130.2h-111v-81h323.6v81h-110.5v280.3h-102.2V1130.2z"/>
	<path d="M3264.4,1340.2h-152.8l-28.4,70.2h-104.3l159.5-361.3h100.7l160,361.3h-106.3L3264.4,1340.2z M3234.4,1264.9l-46.5-115.6
		l-46.5,115.6H3234.4z"/>
</g>
</svg>
