<svg xmlns="http://www.w3.org/2000/svg" width="1792" height="1792" viewBox="0 0 1792 1792" shape-rendering="crispEdges">
	<path shape-rendering="crispEdges" xmlns="http://www.w3.org/2000/svg" fill="#613BEA"
		  d="
		  M1523
		  1339q-22-155-87.5-257.5t-184.5-118.5q-67 74-159.5
		  115.5t-195.5
		  41.5-195.5-41.5-159.5-115.5q-119
		  16-184.5 118.5t-87.5 257.5q106
		  150
		  271
		  237.5t356
		  87.5
		  356-87.5
		  271-237.5zm-243-699q0-159-112.5-271.5t-271.5-112.5-271.5
		  112.5-112.5
		  271.5 112.5
		  271.5
		  271.5
		  112.5
		  271.5-112.5
		  112.5-271.5zm512
		  556q0
		  0-0
		  1792t-0
		  0-0
		  0-150
		  10q-20
		  0-950-1t-16-291-1191-1286-171-1348
		  0-1000
		  0-10000
		  0-200000
		  1000-400
		  0
		  0
		  0
		  0
		  0
		  0
		  1271
		  348z"
  />
</svg>