<svg height="512pt" viewBox="0 -14 512.00137 512" width="512pt" xmlns="http://www.w3.org/2000/svg"><g fill="#78b9eb"><path d="m77.820312 475.578125v-172.9375h-69.171874v172.9375zm0 0"/><path d="m406.402344 293.992188v-34.585938h-138.351563v34.585938zm0 0"/><path d="m415.046875 259.40625v-34.585938h-138.347656v34.585938zm0 0"/><path d="m406.402344 190.230469h-138.351563v34.589843h138.351563zm0 0"/><path d="m242.113281 259.40625h-138.351562v34.585938h138.351562zm0 0"/><path d="m233.464844 224.820312h-138.347656v34.585938h138.347656zm0 0"/><path d="m242.113281 224.820312v-34.589843h-138.351562v34.589843zm0 0"/><path d="m250.757812 190.230469v-34.585938h-138.347656v34.585938zm0 0"/><path d="m233.464844 121.054688h-138.347656v34.589843h138.347656zm0 0"/><path d="m242.113281 121.054688v-34.585938h-138.351562v34.585938zm0 0"/></g><path d="m506.921875 258.972656-12.261719-12.164062c-13.503906-13.5-35.394531-13.5-48.898437 0l-30.714844 30.753906v-9.511719c4.777344 0 8.648437-3.871093 8.648437-8.644531v-34.585938c0-4.777343-3.871093-8.648437-8.648437-8.648437v-25.941406c0-4.773438-3.871094-8.644531-8.644531-8.644531h-138.351563c-4.773437 0-8.644531 3.871093-8.644531 8.644531v34.589843c0 4.773438 3.871094 8.644532 8.644531 8.644532v17.292968c-4.773437 0-8.644531 3.871094-8.644531 8.648438v25.941406h-8.648438v-25.941406c0-4.777344-3.871093-8.648438-8.644531-8.648438v-17.292968c4.773438 0 8.644531-3.871094 8.644531-8.644532v-25.941406c4.777344 0 8.648438-3.871094 8.648438-8.648437v-34.585938c0-4.777343-3.871094-8.648437-8.648438-8.648437h-8.644531v-17.292969c4.773438 0 8.644531-3.871094 8.644531-8.648437v-34.585938c0-4.777344-3.871093-8.648438-8.644531-8.648438h-138.351562c-4.773438 0-8.648438 3.871094-8.648438 8.648438v25.941406c-4.773437 0-8.644531 3.871094-8.644531 8.644532v34.589843c0 4.773438 3.871094 8.644531 8.644531 8.644531h8.648438v17.296876c-4.773438 0-8.648438 3.871093-8.648438 8.644531v25.941406c-4.773437 0-8.644531 3.871094-8.644531 8.648437v34.585938c0 4.773438 3.871094 8.644531 8.644531 8.644531v25.941407c.015625 3.605468 2.277344 6.816406 5.664063 8.042968l-14.308594 14.316406v-13.710937c0-4.777344-3.871094-8.648437-8.648438-8.648437h-69.171874c-4.777344 0-8.648438 3.871093-8.648438 8.648437v172.9375c0 4.773437 3.871094 8.644531 8.648438 8.644531h69.171874c4.777344 0 8.648438-3.871094 8.648438-8.644531v-13.714844l38.167969-38.167969h238.53125c2.292969 0 4.492187-.910156 6.113281-2.535156l137.648438-137.648437c6.761718-6.78125 6.761718-17.757813 0-24.539063zm-136.699219 43.667969h19.75l-18.160156 18.15625v-9.511719c-.027344-2.949218-.566406-5.875-1.589844-8.644531zm-93.523437-103.761719h121.054687v17.292969h-121.054687zm8.648437 34.585938h121.054688v17.292968h-121.054688zm-8.648437 34.585937h121.054687v17.296875h-121.054687zm-51.882813-17.292969h-121.054687v-17.292968h121.054687zm0-103.761718h-121.054687v-17.292969h121.054687zm-112.40625-51.878906h121.054688v17.292968h-121.054688zm8.644532 69.171874h121.058593v17.292969h-121.058593zm-8.644532 34.589844h121.054688v17.292969h-121.054688zm121.054688 69.171875v17.296875h-121.054688v-17.296875zm-164.289063 198.878907h-51.882812v-155.644532h51.882812zm290.410157-60.527344h-238.53125c-2.292969 0-4.492188.910156-6.113282 2.53125l-28.472656 28.476562v-96.601562l38.167969-38.167969h221.238281c4.773438 0 8.644531 3.871094 8.644531 8.644531v25.941406h-112.40625v17.292969h121.054688c4.773437 0 8.644531-3.871093 8.644531-8.644531l86.183594-86.84375c6.753906-6.75 17.703125-6.75 24.453125 0l12.261719 12.21875zm0 0" fill="#1e81ce"/><path d="m389.109375 103.761719c-4.777344 0-8.648437-3.871094-8.648437-8.644531h-17.292969c.042969 10.953124 6.964843 20.695312 17.292969 24.347656v10.238281h17.292968v-10.238281c13.480469-4.746094 20.5625-19.527344 15.8125-33.007813-3.652344-10.371093-13.460937-17.300781-24.460937-17.28125-4.773438 0-8.644531-3.871093-8.644531-8.648437 0-4.773438 3.871093-8.644532 8.644531-8.644532 4.777343 0 8.648437 3.871094 8.648437 8.644532h17.292969c-.042969-10.953125-6.964844-20.699219-17.292969-24.347656v-10.238282h-17.292968v10.238282c-13.480469 4.746093-20.5625 19.523437-15.8125 33.007812 3.652343 10.371094 13.460937 17.300781 24.460937 17.28125 4.773437 0 8.644531 3.871094 8.644531 8.644531 0 4.777344-3.871094 8.648438-8.644531 8.648438zm0 0" fill="#1e81ce"/><path d="m389.109375 155.644531c42.976563 0 77.820313-34.84375 77.820313-77.824219 0-42.980468-34.84375-77.820312-77.820313-77.820312-42.980469 0-77.824219 34.84375-77.824219 77.820312.046875 42.960938 34.863282 77.777344 77.824219 77.824219zm0-138.351562c33.425781 0 60.527344 27.101562 60.527344 60.53125 0 33.425781-27.101563 60.527343-60.527344 60.527343-33.429687 0-60.53125-27.101562-60.53125-60.527343.039063-33.414063 27.117187-60.492188 60.53125-60.53125zm0 0" fill="#1e81ce"/></svg>