<svg xmlns="http://www.w3.org/2000/svg" width="124.824" height="31.661" viewBox="0 0 124.824 31.661">
  <g id="paypal-white" transform="translate(0)">
    <path id="path14499_1_" d="M22.845,2.387C21.379.716,18.729,0,15.338,0H5.5A1.409,1.409,0,0,0,4.108,1.188L.011,27.172a.845.845,0,0,0,.835.976H6.92l1.526-9.676-.047.3a1.4,1.4,0,0,1,1.386-1.188h2.887c5.671,0,10.111-2.3,11.408-8.966q.058-.3.1-.576h0c.386-2.463,0-4.139-1.335-5.657" fill="#eaeaea"/>
    <path id="path14519_1_" d="M350.9,74.035h-3.269a.941.941,0,0,0-.78.414l-4.51,6.642-1.911-6.383a.945.945,0,0,0-.9-.673h-3.213a.566.566,0,0,0-.536.749l3.6,10.567-3.386,4.777a.566.566,0,0,0,.462.893h3.266a.946.946,0,0,0,.776-.405l10.872-15.692a.566.566,0,0,0-.465-.889m-21.857,6.331a3.627,3.627,0,0,1-3.671,3.106,2.52,2.52,0,0,1-2.694-3.162,3.639,3.639,0,0,1,3.645-3.13,2.74,2.74,0,0,1,2.168.886,2.8,2.8,0,0,1,.552,2.3m4.533-6.331h-3.253a.567.567,0,0,0-.56.478l-.143.909-.227-.329c-.705-1.022-2.275-1.364-3.843-1.364a7.48,7.48,0,0,0-7.26,6.543,6.14,6.14,0,0,0,1.211,5,5.089,5.089,0,0,0,4.1,1.654,6.228,6.228,0,0,0,4.5-1.86l-.145.9a.566.566,0,0,0,.56.654h2.929a.943.943,0,0,0,.933-.8l1.759-11.135a.566.566,0,0,0-.559-.654m-19.519.078c-.371,2.438-2.233,2.438-4.035,2.438H309L309.722,72a.565.565,0,0,1,.559-.477h.47c1.226,0,2.384,0,2.981.7a2.268,2.268,0,0,1,.33,1.894m-.784-6.362h-6.792a.944.944,0,0,0-.933.8l-2.747,17.417a.566.566,0,0,0,.559.654h3.244a.944.944,0,0,0,.932-.8l.742-4.7a.943.943,0,0,1,.932-.8h2.149c4.474,0,7.057-2.165,7.731-6.457a5.231,5.231,0,0,0-.866-4.383c-.966-1.135-2.678-1.736-4.951-1.736" transform="translate(-265.301 -59.361)" fill="#fff"/>
    <path id="path14523_1_" d="M728.625,68.23l-2.788,17.736a.566.566,0,0,0,.559.654h2.8a.943.943,0,0,0,.932-.8l2.749-17.417a.566.566,0,0,0-.56-.654h-3.137a.565.565,0,0,0-.56.478m-8.367,12.136a3.627,3.627,0,0,1-3.671,3.106,2.52,2.52,0,0,1-2.694-3.162,3.639,3.639,0,0,1,3.645-3.13,2.74,2.74,0,0,1,2.168.886,2.8,2.8,0,0,1,.552,2.3m4.533-6.331h-3.253a.567.567,0,0,0-.56.478l-.143.909-.228-.329c-.7-1.022-2.274-1.364-3.842-1.364a7.479,7.479,0,0,0-7.26,6.543,6.139,6.139,0,0,0,1.211,5,5.089,5.089,0,0,0,4.1,1.654,6.228,6.228,0,0,0,4.5-1.86l-.145.9a.566.566,0,0,0,.56.654h2.928a.943.943,0,0,0,.933-.8l1.759-11.135a.566.566,0,0,0-.559-.654m-19.519.078c-.371,2.438-2.233,2.438-4.035,2.438h-1.025L700.932,72a.565.565,0,0,1,.559-.477h.47c1.226,0,2.384,0,2.981.7a2.269,2.269,0,0,1,.33,1.894m-.784-6.362H697.7a.944.944,0,0,0-.933.8l-2.747,17.417a.566.566,0,0,0,.559.654h3.486a.661.661,0,0,0,.653-.557l.779-4.938a.943.943,0,0,1,.932-.8h2.149c4.474,0,7.057-2.165,7.731-6.457a5.231,5.231,0,0,0-.866-4.383c-.966-1.135-2.678-1.736-4.951-1.736" transform="translate(-608.064 -59.361)" fill="#fff"/>
    <path id="path14527_1_" d="M22.845,2.387C21.379.716,18.729,0,15.338,0H5.5A1.409,1.409,0,0,0,4.108,1.188L.011,27.172a.845.845,0,0,0,.835.976H6.92l1.526-9.676-.047.3a1.4,1.4,0,0,1,1.386-1.188h2.887c5.671,0,10.111-2.3,11.408-8.966q.058-.3.1-.576h0c.386-2.463,0-4.139-1.335-5.657" fill="#eaeaea"/>
    <path id="path14531_1_" d="M10.086,8.078A1.229,1.229,0,0,1,11.3,7.039h7.714a16.113,16.113,0,0,1,2.544.185q.335.054.65.124t.612.157c.1.029.2.059.292.09a6.968,6.968,0,0,1,1.067.451c.386-2.464,0-4.139-1.335-5.657C21.379.718,18.73,0,15.339,0H5.5A1.409,1.409,0,0,0,4.109,1.19L.012,27.173a.844.844,0,0,0,.834.977H6.921l1.526-9.676,1.64-10.394Z" transform="translate(-0.001 -0.002)" fill="#eaeaea"/>
    <path id="path14535_1_" d="M70.1,64.955h0c-.03.188-.062.379-.1.576C68.7,72.193,64.264,74.5,58.593,74.5H55.706a1.4,1.4,0,0,0-1.386,1.188l-1.478,9.373-.419,2.659a.739.739,0,0,0,.73.855h5.121a1.232,1.232,0,0,0,1.216-1.04l.05-.261.965-6.116.062-.338a1.232,1.232,0,0,1,1.216-1.04h.766c4.96,0,8.844-2.015,9.979-7.843.474-2.436.229-4.469-1.025-5.9a4.888,4.888,0,0,0-1.4-1.081" transform="translate(-45.923 -56.911)" fill="#eaeaea"/>
    <path id="path14539_1_" d="M82.239,57.286q-.3-.087-.612-.157c-.21-.046-.427-.088-.65-.123a16,16,0,0,0-2.545-.186H70.719a1.217,1.217,0,0,0-.532.121,1.229,1.229,0,0,0-.685.92l-1.64,10.395-.047.3A1.4,1.4,0,0,1,69.2,67.369h2.887c5.671,0,10.111-2.3,11.408-8.966.039-.2.071-.388.1-.576a7.013,7.013,0,0,0-1.067-.45c-.1-.031-.193-.062-.292-.091" transform="translate(-59.418 -49.783)" fill="#ccc"/>
  </g>
</svg>
