<svg width="12" height="12" viewBox="0 0 12 12" fill="none" xmlns="http://www.w3.org/2000/svg">
<path fill-rule="evenodd" clip-rule="evenodd" d="M8.66673 2.00895C7.87738 1.48151 6.94935 1.2 6 1.2C5.36965 1.2 4.74548 1.32416 4.16312 1.56538C3.58076 1.8066 3.05161 2.16017 2.60589 2.60589C2.16016 3.05161 1.8066 3.58076 1.56538 4.16312C1.32415 4.74548 1.2 5.36965 1.2 6C1.2 6.94935 1.48151 7.87738 2.00895 8.66673C2.53638 9.45609 3.28603 10.0713 4.16312 10.4346C5.0402 10.7979 6.00532 10.893 6.93643 10.7078C7.86754 10.5226 8.72282 10.0654 9.39411 9.39411C10.0654 8.72282 10.5226 7.86754 10.7078 6.93643C10.893 6.00532 10.7979 5.0402 10.4346 4.16312C10.0713 3.28603 9.45609 2.53638 8.66673 2.00895ZM6 0C7.18669 0 8.34672 0.351894 9.33342 1.01118C10.3201 1.67047 11.0891 2.60754 11.5433 3.7039C11.9974 4.80025 12.1162 6.00665 11.8847 7.17054C11.6532 8.33443 11.0818 9.40352 10.2426 10.2426C9.40352 11.0818 8.33442 11.6532 7.17054 11.8847C6.00665 12.1162 4.80025 11.9974 3.7039 11.5433C2.60754 11.0891 1.67047 10.3201 1.01118 9.33342C0.351893 8.34672 0 7.18669 0 6C0 5.21207 0.155194 4.43185 0.456722 3.7039C0.75825 2.97594 1.20021 2.31451 1.75736 1.75736C2.31451 1.20021 2.97594 0.758251 3.7039 0.456723C4.43185 0.155195 5.21207 0 6 0ZM4.42426 3.57574C4.18995 3.34142 3.81005 3.34142 3.57574 3.57574C3.34142 3.81005 3.34142 4.18995 3.57574 4.42426L5.15147 6L3.57574 7.57574C3.34142 7.81005 3.34142 8.18995 3.57574 8.42426C3.81005 8.65858 4.18995 8.65858 4.42426 8.42426L6 6.84853L7.57574 8.42426C7.81005 8.65858 8.18995 8.65858 8.42426 8.42426C8.65858 8.18995 8.65858 7.81005 8.42426 7.57574L6.84853 6L8.42426 4.42426C8.65858 4.18995 8.65858 3.81005 8.42426 3.57574C8.18995 3.34142 7.81005 3.34142 7.57574 3.57574L6 5.15147L4.42426 3.57574Z" fill="#938EBA"/>
</svg>
