<svg width="18" height="18" viewBox="0 0 18 18" fill="none" xmlns="http://www.w3.org/2000/svg">
<path d="M7.41037 12.75C7.21384 12.75 7.02539 12.671 6.88644 12.5303L3.92223 9.53029C3.78328 9.38956 3.70525 9.19873 3.70532 8.99978C3.70539 8.80082 3.78355 8.61005 3.9226 8.46942C4.06165 8.32878 4.25021 8.24982 4.44679 8.24989C4.64337 8.24996 4.83187 8.32906 4.97082 8.46979L7.41037 10.9388L12.8141 5.46979C12.9532 5.32906 13.1418 5.25 13.3384 5.25C13.5351 5.25 13.7237 5.32906 13.8627 5.46979C14.0018 5.61052 14.0799 5.80139 14.0799 6.00042C14.0799 6.19944 14.0018 6.39031 13.8627 6.53104L7.93429 12.531C7.79523 12.6714 7.60679 12.7502 7.41037 12.75Z" fill="#087502"/>
<path d="M8.89264 18C7.13384 18 5.41454 17.4722 3.95216 16.4832C2.48977 15.4943 1.34998 14.0887 0.676916 12.4442C0.00385306 10.7996 -0.172251 8.99002 0.170874 7.24419C0.513998 5.49836 1.36094 3.89471 2.6046 2.63604C3.84826 1.37737 5.43277 0.520203 7.15778 0.172936C8.88278 -0.17433 10.6708 0.00389957 12.2957 0.685088C13.9206 1.36628 15.3095 2.51983 16.2866 3.99987C17.2637 5.47991 17.7853 7.21997 17.7853 9C17.7827 11.3862 16.845 13.6738 15.1779 15.3611C13.5107 17.0484 11.2503 17.9974 8.89264 18ZM8.89264 1.5C7.42698 1.5 5.99423 1.93987 4.77557 2.76398C3.55692 3.58809 2.60709 4.75943 2.0462 6.12988C1.48532 7.50032 1.33856 9.00832 1.6245 10.4632C1.91044 11.918 2.61622 13.2544 3.65261 14.3033C4.68899 15.3522 6.00942 16.0665 7.44692 16.3559C8.88442 16.6453 10.3744 16.4968 11.7285 15.9291C13.0826 15.3614 14.24 14.4001 15.0543 13.1668C15.8686 11.9334 16.3032 10.4834 16.3032 9C16.301 7.01155 15.5196 5.10516 14.1303 3.69911C12.741 2.29306 10.8574 1.50219 8.89264 1.5Z" fill="#087502"/>
</svg>
