<svg width="18" height="18" viewBox="0 0 18 18" fill="none" xmlns="http://www.w3.org/2000/svg" preserveAspectRatio="none">
<path d="M9 18C7.21997 18 5.47991 17.4722 3.99987 16.4832C2.51983 15.4943 1.36628 14.0887 0.685088 12.4442C0.00389957 10.7996 -0.17433 8.99002 0.172936 7.24419C0.520203 5.49836 1.37737 3.89471 2.63604 2.63604C3.89471 1.37737 5.49836 0.520203 7.24419 0.172936C8.99002 -0.17433 10.7996 0.00389957 12.4442 0.685088C14.0887 1.36628 15.4943 2.51983 16.4832 3.99987C17.4722 5.47991 18 7.21997 18 9C17.9974 11.3862 17.0484 13.6738 15.3611 15.3611C13.6738 17.0484 11.3862 17.9974 9 18ZM9 1.5C7.51664 1.5 6.06659 1.93987 4.83323 2.76398C3.59986 3.58809 2.63856 4.75943 2.07091 6.12988C1.50325 7.50032 1.35473 9.00832 1.64411 10.4632C1.9335 11.918 2.64781 13.2544 3.6967 14.3033C4.7456 15.3522 6.08197 16.0665 7.53683 16.3559C8.99168 16.6453 10.4997 16.4968 11.8701 15.9291C13.2406 15.3614 14.4119 14.4001 15.236 13.1668C16.0601 11.9334 16.5 10.4834 16.5 9C16.4978 7.01155 15.7069 5.10516 14.3009 3.69911C12.8948 2.29306 10.9885 1.50219 9 1.5Z" fill="#3D3AC6"/>
<path
        d="M360 0H24C10.745
            0 0 10.745 0 24v16c0
            13.255 10.745 24 24 24 0 90.965 51.016 167.734 120.842
            192C75.016 280.266 24 357.035 24 448c-13.255
            0-24 10.745-24 24v16c0 13.255 10.745 24 24
            24h336c13.255 0 24-10.745 24-24v-16c0-13.255-10.745-24-24-24
            0-90.965-51.016-167.734-120.842-192C308.984 231.734
            360 154.965 360 64c13.255 0 24-10.745
            24-24V24c0-13.255-10.745-24-24-24zm-64
            448H88c0-77.458 46.204-144 104-144 57.786
            0 104 66.517 104 144z"
      fill="#3D3AC6"
/>
</svg>
