<svg width="12" height="12" viewBox="0 0 12 12" fill="none" xmlns="http://www.w3.org/2000/svg">
<path fill-rule="evenodd" clip-rule="evenodd" d="M8.66673 2.00895C7.87738 1.48151 6.94935 1.2 6 1.2C5.36965 1.2 4.74548 1.32416 4.16312 1.56538C3.58076 1.8066 3.05161 2.16017 2.60589 2.60589C2.16016 3.05161 1.8066 3.58076 1.56538 4.16312C1.32415 4.74548 1.2 5.36965 1.2 6C1.2 6.94935 1.48151 7.87738 2.00895 8.66673C2.53638 9.45609 3.28603 10.0713 4.16312 10.4346C5.0402 10.7979 6.00532 10.893 6.93643 10.7078C7.86754 10.5226 8.72282 10.0654 9.39411 9.39411C10.0654 8.72282 10.5226 7.86754 10.7078 6.93643C10.893 6.00532 10.7979 5.0402 10.4346 4.16312C10.0713 3.28603 9.45609 2.53638 8.66673 2.00895ZM6 0C7.18669 0 8.34672 0.351894 9.33342 1.01118C10.3201 1.67047 11.0891 2.60754 11.5433 3.7039C11.9974 4.80025 12.1162 6.00665 11.8847 7.17054C11.6532 8.33443 11.0818 9.40352 10.2426 10.2426C9.40352 11.0818 8.33442 11.6532 7.17054 11.8847C6.00665 12.1162 4.80025 11.9974 3.7039 11.5433C2.60754 11.0891 1.67047 10.3201 1.01118 9.33342C0.351893 8.34672 0 7.18669 0 6C0 5.21207 0.155194 4.43185 0.456722 3.7039C0.75825 2.97594 1.20021 2.31451 1.75736 1.75736C2.31451 1.20021 2.97594 0.758251 3.7039 0.456723C4.43185 0.155195 5.21207 0 6 0ZM6 2.4C5.97751 2.4 5.95506 2.40021 5.93265 2.40062C5.60134 2.40672 5.3377 2.68025 5.34379 3.01156C5.34989 3.34287 5.62342 3.60651 5.95474 3.60042C5.96978 3.60014 5.98487 3.6 6 3.6C6.01513 3.6 6.03022 3.60014 6.04526 3.60042C6.37658 3.60651 6.65011 3.34287 6.6562 3.01156C6.6623 2.68025 6.39866 2.40672 6.06735 2.40062C6.04494 2.40021 6.02249 2.4 6 2.4ZM8.49759 3.4073C8.25896 3.17738 7.87913 3.18444 7.64921 3.42307C7.41929 3.6617 7.42635 4.04153 7.66498 4.27145C7.68656 4.29225 7.70775 4.31344 7.72855 4.33502C7.95847 4.57365 8.3383 4.58071 8.57693 4.35079C8.81556 4.12087 8.82262 3.74104 8.5927 3.50241C8.56159 3.47012 8.52988 3.43841 8.49759 3.4073ZM4.33502 4.27145C4.57365 4.04153 4.58071 3.6617 4.35079 3.42307C4.12087 3.18444 3.74104 3.17738 3.50241 3.4073C3.47012 3.43841 3.43841 3.47012 3.4073 3.50241C3.17738 3.74104 3.18444 4.12087 3.42307 4.35079C3.6617 4.58071 4.04153 4.57365 4.27145 4.33502C4.29225 4.31344 4.31344 4.29225 4.33502 4.27145ZM9.59938 5.93265C9.59328 5.60134 9.31975 5.3377 8.98844 5.34379C8.65713 5.34989 8.39349 5.62342 8.39958 5.95474C8.39986 5.96978 8.4 5.98487 8.4 6C8.4 6.01513 8.39986 6.03022 8.39958 6.04526C8.39349 6.37658 8.65713 6.65011 8.98844 6.6562C9.31975 6.6623 9.59328 6.39866 9.59938 6.06735C9.59979 6.04494 9.6 6.02249 9.6 6C9.6 5.97751 9.59979 5.95506 9.59938 5.93265ZM3.60042 5.95474C3.60651 5.62342 3.34287 5.34989 3.01156 5.3438C2.68025 5.3377 2.40672 5.60134 2.40062 5.93265C2.40021 5.95506 2.4 5.97751 2.4 6C2.4 6.02249 2.40021 6.04494 2.40062 6.06735C2.40672 6.39866 2.68025 6.6623 3.01156 6.65621C3.34287 6.65011 3.60651 6.37658 3.60042 6.04526C3.60014 6.03022 3.6 6.01513 3.6 6C3.6 5.98487 3.60014 5.96978 3.60042 5.95474ZM4.27145 7.66498C4.04153 7.42635 3.6617 7.41929 3.42307 7.64921C3.18444 7.87913 3.17738 8.25896 3.4073 8.49759C3.43841 8.52988 3.47012 8.56159 3.50241 8.5927C3.74104 8.82262 4.12087 8.81556 4.35079 8.57693C4.58071 8.3383 4.57365 7.95847 4.33502 7.72855C4.31344 7.70775 4.29225 7.68656 4.27145 7.66498ZM8.5927 8.49759C8.82262 8.25896 8.81556 7.87913 8.57693 7.64921C8.3383 7.41929 7.95847 7.42635 7.72855 7.66498C7.70775 7.68656 7.68656 7.70775 7.66498 7.72855C7.42635 7.95847 7.41929 8.3383 7.64921 8.57693C7.87913 8.81556 8.25896 8.82262 8.49759 8.5927C8.52988 8.56159 8.56159 8.52988 8.5927 8.49759ZM5.95474 8.39958C5.62342 8.39349 5.34989 8.65713 5.3438 8.98844C5.3377 9.31975 5.60134 9.59328 5.93265 9.59938C5.95506 9.59979 5.97751 9.6 6 9.6C6.02249 9.6 6.04494 9.59979 6.06735 9.59938C6.39866 9.59328 6.6623 9.31975 6.65621 8.98844C6.65011 8.65713 6.37658 8.39349 6.04526 8.39958C6.03022 8.39986 6.01513 8.4 6 8.4C5.98487 8.4 5.96978 8.39986 5.95474 8.39958Z" fill="#8EAEFF"/>
</svg>
