<svg width="18" height="18" viewBox="0 0 18 18" fill="none" xmlns="http://www.w3.org/2000/svg">
<path d="M9 18C7.21997 18 5.47991 17.4722 3.99987 16.4832C2.51983 15.4943 1.36628 14.0887 0.685088 12.4442C0.00389957 10.7996 -0.17433 8.99002 0.172936 7.24419C0.520203 5.49836 1.37737 3.89471 2.63604 2.63604C3.89471 1.37737 5.49836 0.520203 7.24419 0.172936C8.99002 -0.17433 10.7996 0.00389957 12.4442 0.685088C14.0887 1.36628 15.4943 2.51983 16.4832 3.99987C17.4722 5.47991 18 7.21997 18 9C17.9974 11.3862 17.0484 13.6738 15.3611 15.3611C13.6738 17.0484 11.3862 17.9974 9 18ZM9 1.5C7.51664 1.5 6.06659 1.93987 4.83323 2.76398C3.59986 3.58809 2.63856 4.75943 2.07091 6.12988C1.50325 7.50032 1.35473 9.00832 1.64411 10.4632C1.9335 11.918 2.64781 13.2544 3.6967 14.3033C4.7456 15.3522 6.08197 16.0665 7.53683 16.3559C8.99168 16.6453 10.4997 16.4968 11.8701 15.9291C13.2406 15.3614 14.4119 14.4001 15.236 13.1668C16.0601 11.9334 16.5 10.4834 16.5 9C16.4978 7.01155 15.7069 5.10516 14.3009 3.69911C12.8948 2.29306 10.9885 1.50219 9 1.5Z" fill="#3D3AC6"/>
<path d="M9.07692 4.89791C9.07692 4.40201 8.67183 3.99194 8.18367 4.0792C7.49771 4.2018 6.84105 4.46492 6.25634 4.85562C5.42144 5.41348 4.77072 6.20638 4.38646 7.13407C4.0022 8.06176 3.90166 9.08255 4.09755 10.0674C4.29345 11.0522 4.77698 11.9568 5.487 12.6668C6.19702 13.3769 7.10164 13.8604 8.08646 14.0563C9.07129 14.2522 10.0921 14.1516 11.0198 13.7674C11.9475 13.3831 12.7404 12.7324 13.2982 11.8975C13.6889 11.3128 13.952 10.6561 14.0746 9.97018C14.1619 9.48201 13.7518 9.07692 13.2559 9.07692C12.76 9.07692 12.3699 9.48623 12.2359 9.96368C12.143 10.2947 11.9981 10.6108 11.8051 10.8998C11.4445 11.4394 10.9321 11.8599 10.3325 12.1083C9.733 12.3566 9.07328 12.4216 8.43681 12.295C7.80034 12.1684 7.2157 11.8559 6.75683 11.397C6.29796 10.9381 5.98547 10.3535 5.85887 9.71703C5.73227 9.08056 5.79724 8.42084 6.04558 7.8213C6.29392 7.22176 6.71447 6.70932 7.25404 6.34879C7.543 6.15571 7.85915 6.01084 8.19017 5.91792C8.66761 5.7839 9.07692 5.39381 9.07692 4.89791Z" fill="#3D3AC6"/>
</svg>
