<svg width="18" height="18" viewBox="0 0 18 18" fill="none" xmlns="http://www.w3.org/2000/svg">
<path d="M9 0C10.78 0 12.5201 0.527841 14.0001 1.51677C15.4802 2.50571 16.6337 3.91131 17.3149 5.55585C17.9961 7.20038 18.1743 9.00998 17.8271 10.7558C17.4798 12.5016 16.6226 14.1053 15.364 15.364C14.1053 16.6226 12.5016 17.4798 10.7558 17.8271C9.00998 18.1743 7.20038 17.9961 5.55585 17.3149C3.91131 16.6337 2.50571 15.4802 1.51678 14.0001C0.527843 12.5201 1.90735e-06 10.78 1.90735e-06 9C1.90735e-06 7.8181 0.232792 6.64778 0.685085 5.55585C1.13738 4.46392 1.80031 3.47177 2.63604 2.63604C3.47177 1.80031 4.46392 1.13738 5.55585 0.685084C6.64778 0.232792 7.8181 0 9 0ZM9 16.2C10.424 16.2 11.8161 15.7777 13.0001 14.9866C14.1841 14.1954 15.107 13.0709 15.6519 11.7553C16.1969 10.4397 16.3395 8.99201 16.0617 7.59535C15.7838 6.19868 15.0981 4.91577 14.0912 3.90883C13.0842 2.90189 11.8013 2.21616 10.4046 1.93835C9.00799 1.66053 7.56031 1.80312 6.24468 2.34807C4.92905 2.89302 3.80457 3.81586 3.01342 4.99989C2.22227 6.18393 1.8 7.57597 1.8 9C1.8 10.9096 2.55857 12.7409 3.90883 14.0912C5.25909 15.4414 7.09044 16.2 9 16.2Z" fill="#424242"/>
<path d="M9.47625 9.0559L9.29973 8.88003V8.63085V4.49985C9.29973 4.42029 9.26813 4.34398 9.21186 4.28772C9.1556 4.23146 9.0793 4.19985 8.99973 4.19985C8.92017 4.19985 8.84386 4.23146 8.7876 4.28772C8.73134 4.34398 8.69973 4.42029 8.69973 4.49985V8.99443C8.70166 9.07242 8.73389 9.14665 8.78967 9.20131L8.78969 9.20128L8.794 9.20559L11.494 11.9056L11.5104 11.922L11.5255 11.9396C11.5524 11.971 11.5854 11.9965 11.6227 12.0145C11.6599 12.0325 11.7004 12.0426 11.7417 12.0442C11.7831 12.0458 11.8243 12.0388 11.8628 12.0238C11.9013 12.0087 11.9362 11.9858 11.9655 11.9566C11.9947 11.9273 12.0176 11.8924 12.0326 11.8539C12.0477 11.8154 12.0547 11.7742 12.0531 11.7329C12.0515 11.6915 12.0414 11.651 12.0234 11.6138C12.0054 11.5766 11.9799 11.5435 11.9485 11.5166L11.9313 11.5019L11.9153 11.4859L9.47625 9.0559Z" stroke="#424242" stroke-width="1.2"/>
</svg>
