<?xml version="1.0" encoding="utf-8"?>
<!-- Generator: Adobe Illustrator 19.0.0, SVG Export Plug-In . SVG Version: 6.00 Build 0)  -->
<svg version="1.0" id="Слой_1" xmlns="http://www.w3.org/2000/svg" xmlns:xlink="http://www.w3.org/1999/xlink" x="0px" y="0px"
	 viewBox="0 0 2000 2000" style="enable-background:new 0 0 2000 2000;" xml:space="preserve">
<style type="text/css">
	.st0{fill:#DAD7F2;}
	.st1{fill:#0E2549;}
	.st2{fill:#FFFFFF;}
	.st3{fill:#593199;}
	.st4{fill:#9548E0;}
	.st5{fill:#BAA2E0;}
	.st6{fill:#9948E0;}
	.st7{fill:#2B0E44;}
	.st8{fill:#A1C5E2;}
	.st9{fill:#BFA2DD;}
	.st10{fill:#E4D2F9;}
	.st11{fill:#423099;}
	.st12{fill:#DCD2F9;}
	.st13{fill:#E2474B;}
</style>
<path class="st0" d="M258.7,1716.8c0,0-242.3-177.5-43.7-517.3C353,963.4,408.6,941,408.4,792.6c-0.2-148.4-34.2-488.6,253.4-511
	c287.6-22.4,443,184.8,543.2,347c94,152.2,107.8,211.8,465.9,328.2c272.8,88.7,340.9,562.3-19.8,761.7L258.7,1716.8L258.7,1716.8z"
	/>
<path class="st1" d="M267.7,1336.8c-0.3,0-0.7-0.1-0.9-0.3l-25.3-20.4c-0.6-0.5-0.7-1.5-0.2-2.1c0.5-0.6,1.5-0.7,2.1-0.2l25.3,20.4
	c0.6,0.5,0.7,1.5,0.2,2.1C268.6,1336.7,268.2,1336.8,267.7,1336.8z"/>
<path class="st1" d="M295.1,1306.5c-0.1,0-0.2,0-0.2,0c-0.8-0.1-1.4-0.9-1.2-1.7l10-61.3c0.1-0.8,0.9-1.4,1.7-1.2
	c0.8,0.1,1.4,0.9,1.2,1.7l-10,61.3C296.4,1306,295.8,1306.5,295.1,1306.5z"/>
<path class="st1" d="M1314.7,549.8c-0.1,0-0.1,0-0.2,0c-0.8-0.1-1.4-0.8-1.3-1.7l5.9-50.4c0.1-0.8,0.8-1.4,1.7-1.3
	c0.8,0.1,1.4,0.8,1.3,1.7l-5.9,50.4C1316.1,549.2,1315.5,549.8,1314.7,549.8z"/>
<path class="st1" d="M1327.5,581.4c-0.5,0-1-0.2-1.3-0.7c-0.5-0.7-0.3-1.6,0.4-2.1l96.3-63.2c0.7-0.5,1.6-0.3,2.1,0.4
	c0.5,0.7,0.3,1.6-0.4,2.1l-96.3,63.2C1328,581.4,1327.7,581.4,1327.5,581.4z"/>
<g>
	<polygon class="st2" points="824.6,942.2 635.8,657.4 483.6,758.3 517.9,810 685.6,1017.6 824,942.6 	"/>
	<path class="st1" d="M825.8,941.4l-159-239.9h0l-30.6-46.1l-109.3,72.5l0,0l-45.4,30.1l35.1,52.9l168.5,208.7l139.6-75.7
		c0.1-0.1,0.3-0.2,0.4-0.3c0.1,0,0.2-0.1,0.3-0.2C826.1,943,826.3,942.1,825.8,941.4z M662.7,700.6c-10.8,6.7-24.3,9.1-37.3,6.6
		c-13.2-2.5-24.5-9.6-31.9-20l41.9-27.8L662.7,700.6z M485.7,758.7l40.4-26.7c6.8,10.9,9.2,23.9,6.8,36.7
		c-2.4,12.8-9.5,23.9-19.9,31.2L485.7,758.7z M686,1015.7L519.1,809.1l-4.5-6.8c11.1-7.8,18.6-19.5,21.2-33.2
		c2.6-13.6,0-27.3-7.2-38.9l62.4-41.4c7.8,11.1,19.8,18.6,33.8,21.3c3.5,0.7,7.1,1,10.6,1c10.3,0,20.4-2.8,28.9-8.1l158.1,238.6
		L686,1015.7z"/>
	<path class="st1" d="M545.6,747c-0.5,0-1-0.2-1.3-0.7c-0.5-0.7-0.3-1.6,0.4-2.1l51.4-34c0.7-0.5,1.6-0.3,2.1,0.4
		c0.5,0.7,0.3,1.6-0.4,2.1l-51.4,34C546.1,746.9,545.8,747,545.6,747z"/>
	<path class="st1" d="M768.7,896c-0.5,0-1-0.2-1.3-0.7L655.1,725.9c-0.5-0.7-0.3-1.6,0.4-2.1c0.7-0.5,1.6-0.3,2.1,0.4l112.3,169.5
		c0.5,0.7,0.3,1.6-0.4,2.1C769.3,896,769,896,768.7,896z"/>
	<path class="st1" d="M667.3,893.1c-0.5,0-1.1-0.3-1.3-0.8c-0.4-0.7-0.1-1.6,0.7-2c2-1,3.9-2.1,5.8-3.4
		c20.8-13.8,28.6-38.6,17.4-55.5c-5.4-8.1-14.3-13.1-25.2-14.2c-11-1.1-22.6,2-32.7,8.7c-8.6,5.7-15.4,13.7-19.2,22.5
		c-0.3,0.8-1.2,1.1-2,0.8c-0.8-0.3-1.1-1.2-0.8-2c4-9.3,11.2-17.8,20.3-23.8c10.7-7.1,23-10.3,34.6-9.2c11.8,1.2,21.5,6.7,27.4,15.6
		c12.1,18.2,3.9,44.9-18.3,59.6c-2,1.3-4,2.5-6.1,3.6C667.8,893,667.5,893.1,667.3,893.1z"/>
	<path class="st1" d="M681.8,836.8c-0.5-0.7-1.4-0.9-2.1-0.4l-4.3,2.9c-6.4-8.6-14.5-9-20.3-5.2c-6.4,4.3-7,10.3-3.5,20.9l-17,11.3
		c-0.7,0.5-0.9,1.4-0.4,2.1c0.3,0.4,0.8,0.7,1.3,0.7c0.3,0,0.6-0.1,0.8-0.2l16.4-10.9c3.5,10.6,1.6,14.7-3.3,18.2
		c-3.9,2.8,1.7,4.4,2.8,3.7c5.7-3.5,9.5-9.1,4.1-24.3c0,0,0,0,0,0l17.5-11.6c3.5,6,2.6,10.9-0.6,14.8c-0.6,0.8-0.7,1.8-0.1,2.7
		c0.8,1.2,2.6,1.4,3.6,0.2c3.8-4.5,5.5-11.5,0.5-19.9l4.3-2.9C682.1,838.4,682.3,837.5,681.8,836.8z M657.8,837.8
		c4.8-3.2,10-2,14.3,3.6l-16.8,11.1C652.8,844.7,653.2,840.8,657.8,837.8z"/>
</g>
<g>
	
		<rect x="443.2" y="875.1" transform="matrix(0.7917 0.6108 -0.6108 0.7917 718.1624 -173.8285)" class="st2" width="341.6" height="182.6"/>
	<path class="st1" d="M578.1,821.4L578.1,821.4l-43.8-33.8l-80.1,103.8l0,0l-33.3,43.1l271.7,209.6l1.2,0.9l113.4-146.9L578.1,821.4
		z M725.4,1099.2c-10.9-7.9-25-11.5-39-9.8c-14,1.7-26.8,8.6-35.3,18.9L466.5,966c8-11,11.3-24.4,9.3-38.2
		c-1.9-13.7-8.8-25.8-19.4-34.5l45.8-59.3c8.9,6.4,19.5,9.8,30.8,9.8c2.7,0,5.4-0.2,8.1-0.6c13.9-2,26.6-9,35.1-19.5l226.7,174.9
		L725.4,1099.2z M653.4,1110.1c8-9.7,20.1-16.2,33.3-17.8c13.2-1.6,26.5,1.7,36.8,9.2l-30.3,39.3L653.4,1110.1z M425.1,934
		l29.6-38.3c9.9,8.1,16.4,19.6,18.2,32.5c1.8,12.9-1.3,25.6-8.7,36L425.1,934z M534.8,791.8l39.1,30.1c-8.1,9.8-20.1,16.5-33.2,18.3
		c-13.3,1.9-26.3-1.2-36.6-8.6L534.8,791.8z"/>
	<path class="st1" d="M477.5,903.6c-0.3,0-0.6-0.1-0.9-0.3c-0.7-0.5-0.8-1.4-0.3-2.1l37.6-48.8c0.5-0.7,1.4-0.8,2.1-0.3
		c0.7,0.5,0.8,1.4,0.3,2.1l-37.6,48.8C478.4,903.4,477.9,903.6,477.5,903.6z"/>
	<path class="st1" d="M736.8,972.8c-0.3,0-0.6-0.1-0.9-0.3l-161-124.2c-0.7-0.5-0.8-1.4-0.3-2.1c0.5-0.7,1.4-0.8,2.1-0.3l161,124.2
		c0.7,0.5,0.8,1.4,0.3,2.1C737.6,972.6,737.2,972.8,736.8,972.8z"/>
	<path class="st1" d="M606.1,1017.9c-7.7,0-15.1-2.3-21.3-7c-8.4-6.5-13.2-16.6-13.6-28.4c-0.3-11.7,3.8-23.8,11.6-33.9
		c16.2-21,43.5-27.3,60.8-14c8.4,6.5,13.2,16.6,13.6,28.4c0.3,11.7-3.8,23.8-11.6,33.9l0,0C635.1,1010.5,620.1,1017.9,606.1,1017.9z
		 M622.3,930.6c-13.1,0-27.2,7-37.1,19.8c-7.4,9.6-11.3,21-11,32c0.3,10.9,4.7,20.2,12.4,26.1c16,12.3,41.3,6.3,56.6-13.4l0,0
		c7.4-9.6,11.3-21,11-32c-0.3-10.9-4.7-20.2-12.4-26.1C636.2,932.7,629.4,930.6,622.3,930.6z M644.4,996L644.4,996L644.4,996z"/>
	<path class="st1" d="M633,950.9l3.2-4.1c0.5-0.7,0.4-1.6-0.3-2.1c-0.7-0.5-1.6-0.4-2.1,0.3l-3.2,4.1c-8.9-6-16.7-3.8-20.9,1.7
		c-4.7,6.1-3.3,12,3.5,20.9l-15,19.5c-5.2-4.8-6.3-10.2-4.2-16c0.3-0.9,0.1-1.9-0.7-2.5c-1.2-0.9-2.9-0.4-3.4,0.9
		c-2.4,5.9-2.1,13.6,6,20.6l-4.5,5.8c-0.5,0.7-0.4,1.6,0.3,2.1c0.3,0.2,0.6,0.3,0.9,0.3c0.4,0,0.9-0.2,1.2-0.6l4.5-5.8
		c9.9,7.3,18.7,5.2,23.6-1.1c4.1-5.3,6.1-11.7-3.9-24.3c0,0,0,0,0,0l12.8-16.6c5.2,4.6,6,9.4,4.2,14.2c-0.3,0.9-0.1,2,0.7,2.6
		c1.2,0.9,2.9,0.5,3.4-0.9C641.1,964.4,640.4,957.1,633,950.9z M617.8,992.4c-3.6,4.7-9.6,6.3-17.4,0.6l14.6-18.9
		C621.8,983.1,621.5,987.6,617.8,992.4z M613.5,953.4c3.5-4.6,8.8-5.1,14.7-1.2l-12.3,16C611,961.5,610.1,957.7,613.5,953.4z"/>
	<path class="st1" d="M650.6,1085.8c-0.3,0-0.6-0.1-0.9-0.3l-161-124.2c-0.7-0.5-0.8-1.4-0.3-2.1c0.5-0.7,1.4-0.8,2.1-0.3l161,124.2
		c0.7,0.5,0.8,1.4,0.3,2.1C651.5,1085.6,651.1,1085.8,650.6,1085.8z"/>
</g>
<g>
	
		<rect x="1406.9" y="1247.6" transform="matrix(-0.4624 0.8867 -0.8867 -0.4624 3494.4089 559.0179)" class="st2" width="341.6" height="182.6"/>
	<path class="st1" d="M1739.7,1229l-116.3-60.6v0l-48.3-25.2l-25.6,49.1h0l-133.8,256.5l164.6,85.8l133.8-256.5l0,0L1739.7,1229z
		 M1712.8,1274c-11.1-6.2-19.7-16.9-23.8-29.4c-4.2-12.8-3.5-26.1,2.1-37.6l44.6,23.2L1712.8,1274z M1576.4,1147.3l42.9,22.4
		c-6.3,11.2-16.5,19.6-28.8,23.6c-12.4,4.1-25.5,3.3-36.9-2.3L1576.4,1147.3z M1579.1,1530.6l-159.2-83l132.4-253.9
		c7.1,3.4,14.7,5.2,22.5,5.2c5.6,0,11.2-0.9,16.7-2.7c13.1-4.3,23.9-13.2,30.5-25.1l66.4,34.6c-5.9,12.2-6.7,26.3-2.3,39.9
		c4.4,13.3,13.5,24.6,25.3,31.2L1579.1,1530.6z"/>
	<path class="st1" d="M1671.6,1223.2c-0.2,0-0.5-0.1-0.7-0.2l-54.6-28.5c-0.7-0.4-1-1.3-0.6-2c0.4-0.7,1.3-1,2-0.6l54.6,28.5
		c0.7,0.4,1,1.3,0.6,2C1672.6,1222.9,1672.1,1223.2,1671.6,1223.2z"/>
	<path class="st1" d="M1594.4,1462.1c-0.2,0-0.5-0.1-0.7-0.2c-0.7-0.4-1-1.3-0.6-2l94-180.3c0.4-0.7,1.3-1,2-0.6
		c0.7,0.4,1,1.3,0.6,2l-94,180.3C1595.4,1461.8,1594.9,1462.1,1594.4,1462.1z"/>
	<path class="st1" d="M1578.8,1381.8c-8.4,0-17.3-2.1-25.7-6.5l0,0c-23.6-12.3-34.5-38-24.4-57.4c4.9-9.4,14-15.9,25.6-18.3
		c11.5-2.4,24.1-0.4,35.4,5.5c11.4,5.9,20.2,15.1,24.8,25.9c4.7,10.9,4.5,22.1-0.4,31.5C1607.7,1375,1594,1381.8,1578.8,1381.8z
		 M1554.5,1372.7c22.1,11.5,47.6,6.3,57-11.6c4.5-8.6,4.6-18.9,0.3-28.9c-4.4-10.1-12.7-18.8-23.4-24.4c-10.7-5.6-22.6-7.5-33.4-5.2
		c-10.7,2.2-19.1,8.2-23.5,16.8C1522.1,1337.2,1532.4,1361.2,1554.5,1372.7L1554.5,1372.7z"/>
	<path class="st1" d="M1602.3,1354.6l-4.6-2.4c4.4-9.8,0.8-17.1-5.3-20.3c-6.8-3.6-12.4-1.2-20,7.1l-21.8-11.4c3.8-6,9-8,15-6.9
		c1,0.2,1.9-0.3,2.4-1.2c0.7-1.3-0.1-2.9-1.5-3.2c-6.3-1.3-13.7,0.3-19.3,9.5l-6.5-3.4c-0.7-0.4-1.6-0.1-2,0.6
		c-0.4,0.7-0.1,1.6,0.6,2l6.5,3.4c-5.4,11-1.9,19.3,5.2,23c5.9,3.1,12.6,3.9,23.3-8.1c0,0,0,0,0,0l18.6,9.7c-3.6,6-8.2,7.5-13.2,6.7
		c-1-0.2-1.9,0.3-2.4,1.2c-0.7,1.3,0.1,2.9,1.5,3.2c5.7,1.1,12.7-0.8,17.6-9.2l4.6,2.4c0.2,0.1,0.5,0.2,0.7,0.2
		c0.5,0,1.1-0.3,1.3-0.8C1603.3,1355.9,1603,1355,1602.3,1354.6z M1552.8,1347.3c-5.2-2.7-7.9-8.3-3.7-17l21.2,11
		C1562.6,1349.5,1558.1,1350,1552.8,1347.3z M1590.4,1336.1c5.1,2.7,6.6,7.8,3.7,14.3l-17.9-9.3
		C1582,1335.1,1585.6,1333.6,1590.4,1336.1z"/>
	<path class="st1" d="M1468,1397.2c-0.2,0-0.5-0.1-0.7-0.2c-0.7-0.4-1-1.3-0.6-2l94-180.3c0.4-0.7,1.3-1,2-0.6c0.7,0.4,1,1.3,0.6,2
		l-94,180.3C1469.1,1396.9,1468.5,1397.2,1468,1397.2z"/>
</g>
<path class="st3" d="M1266.9,1716.8H713.6c-21,0-37.9-17-37.9-37.9v-999c0-21,17-37.9,37.9-37.9h553.2c21,0,37.9,17,37.9,37.9v999
	C1304.8,1699.9,1287.8,1716.8,1266.9,1716.8z"/>
<path class="st2" d="M1017.2,711.1c-2.4,0-4.3,2-4.3,4.4c0,0,0,0,0,0c0,16.6-11.4,30-25.6,30c-14.1,0-25.6-13.4-25.6-30c0,0,0,0,0,0
	c0-2.4-1.9-4.4-4.3-4.4H720.9v884.4h538.7V711.1H1017.2z"/>
<path class="st1" d="M1261.1,1597H719.4V709.6h238c1.5,0,3,0.6,4.1,1.7c1.1,1.1,1.7,2.6,1.7,4.2c0,15.8,10.8,28.6,24.1,28.6
	c13.3,0,24.1-12.8,24.1-28.5c0-1.6,0.6-3.1,1.7-4.3c1.1-1.1,2.5-1.7,4.1-1.7h243.9V1597z M722.4,1594h535.7V712.6h-240.9
	c-0.7,0-1.4,0.3-2,0.8c-0.6,0.6-0.9,1.3-0.9,2.1c0,17.4-12.1,31.6-27.1,31.6c-14.9,0-27.1-14.1-27.1-31.5c0-0.8-0.3-1.6-0.9-2.1
	c-0.5-0.5-1.2-0.8-2-0.8h-235V1594z"/>
<circle class="st2" cx="976.9" cy="1656.3" r="34.1"/>
<path class="st1" d="M976.9,1691.9c-19.7,0-35.6-16-35.6-35.6c0-19.7,16-35.6,35.6-35.6c19.7,0,35.6,16,35.6,35.6
	C1012.6,1675.9,996.6,1691.9,976.9,1691.9z M976.9,1623.6c-18,0-32.6,14.6-32.6,32.6c0,18,14.6,32.6,32.6,32.6
	c18,0,32.6-14.6,32.6-32.6C1009.6,1638.3,995,1623.6,976.9,1623.6z"/>
<path class="st1" d="M1067.1,925.4h-88.9c-0.8,0-1.5-0.7-1.5-1.5c0-0.8,0.7-1.5,1.5-1.5h88.9c0.8,0,1.5,0.7,1.5,1.5
	C1068.6,924.7,1067.9,925.4,1067.1,925.4z"/>
<path class="st1" d="M1165.2,956.9H811.1c-9.1,0-16.4-7.4-16.4-16.4v-15.7c0-9.1,7.4-16.4,16.4-16.4h354.1c9.1,0,16.4,7.4,16.4,16.4
	v15.7C1181.6,949.5,1174.2,956.9,1165.2,956.9z"/>
<rect x="1048.5" y="1433.3" class="st2" width="106.2" height="34.7"/>
<path class="st1" d="M1156.2,1469.5H1047v-37.7h109.2V1469.5z M1050,1466.5h103.2v-31.7H1050V1466.5z"/>
<rect x="835.1" y="1424.6" class="st4" width="220.4" height="50.8"/>
<path class="st5" d="M861.3,1335.3V952.6c0-12.4-10.1-22.5-22.5-22.5h0H1095l0,0c12.3-0.3,22.5,9.6,22.5,21.9v383.3H861.3z"/>
<path class="st2" d="M1042.7,1335.3c0-39.9,34.9-73.9,74.8-73.9v73.9H1042.7z"/>
<path class="st2" d="M861.3,1260.5c39.9,0,73.9,35,73.9,74.8h-73.9V1260.5z"/>
<path class="st1" d="M1111.9,935.3c-4.6-4.4-10.6-6.8-16.9-6.7H838.8v3c11.6,0,21,9.4,21,21V1259v77.8h76.9h104.5h77.8V1260V952
	C1119,945.7,1116.5,939.7,1111.9,935.3z M862.8,1333.8V1262c37.5,0.9,70.1,33.9,70.9,71.8H862.8z M936.7,1333.8
	c-0.4-18.9-8.5-37.8-22.4-51.9c-14-14.2-32.6-22.5-51.5-22.9V952.6c0-9-5-16.9-12.4-21l244.7,0c5.6-0.1,10.8,1.9,14.8,5.8
	c4,3.9,6.2,9.1,6.2,14.6v308c-18.9,0.4-37.8,8.5-51.9,22.4c-14.2,13.9-22.4,32.6-22.9,51.4H936.7z M1116,1333.8h-71.8
	c0.9-37.4,33.9-70,71.8-70.8V1333.8z"/>
<path class="st1" d="M1031,1300.8h-86.5c-0.8,0-1.5-0.7-1.5-1.5s0.7-1.5,1.5-1.5h86.5c0.8,0,1.5,0.7,1.5,1.5
	S1031.9,1300.8,1031,1300.8z"/>
<path class="st1" d="M1090,1238.6c-0.8,0-1.5-0.7-1.5-1.5V951.8c0-0.8,0.7-1.5,1.5-1.5s1.5,0.7,1.5,1.5v285.3
	C1091.5,1237.9,1090.8,1238.6,1090,1238.6z"/>
<path class="st1" d="M890.6,1239.8c-0.8,0-1.5-0.7-1.5-1.5V953c0-0.8,0.7-1.5,1.5-1.5s1.5,0.7,1.5,1.5v285.3
	C892.1,1239.1,891.4,1239.8,890.6,1239.8z"/>
<ellipse class="st2" cx="983.4" cy="1102.2" rx="65.5" ry="53.4"/>
<path class="st1" d="M983.4,1157.1c-36.9,0-67-24.6-67-54.9s30.1-54.9,67-54.9c36.9,0,67,24.6,67,54.9S1020.3,1157.1,983.4,1157.1z
	 M983.4,1050.2c-35.3,0-64,23.3-64,51.9s28.7,51.9,64,51.9s64-23.3,64-51.9S1018.6,1050.2,983.4,1050.2z"/>
<path class="st1" d="M1031,1099.2h-7.4c-1.2-14.4-10.2-20.9-19.7-20.9c-10.6,0-16,6.3-20,20.9h-34.6c1.1-9.4,6.1-14.9,14.1-17.4
	c1.3-0.4,2.2-1.6,2.2-3c0-2.1-2-3.6-4-3c-8.5,2.4-16.5,9.1-17.7,23.4h-10.4c-1.7,0-3,1.3-3,3s1.3,3,3,3h10.3
	c0.8,16.6,10.3,24.3,21.4,24.3c9.2,0,17.9-3.2,23.4-24.3h29.6c-0.8,9.1-5.5,13.9-12,15.9c-1.3,0.4-2.2,1.6-2.2,3c0,2.1,2,3.6,4,3
	c7.7-2.3,15-9,15.9-22h7.3c1.7,0,3-1.3,3-3S1032.7,1099.2,1031,1099.2z M1004.3,1084.8c7.9,0,12.9,5.1,13.8,14.4h-27.9
	C993.3,1088.7,996.8,1084.8,1004.3,1084.8z M964.7,1123c-8.1,0-15-5-15.6-17.9h33.2C978.2,1119.6,972.9,1123,964.7,1123z"/>
<polygon class="st2" points="1200.7,613.8 1263.2,613.1 1259.3,639.6 1194,638.8 "/>
<path class="st1" d="M1260.6,641.1l-68.6-0.9l7.5-27.9l65.4-0.7L1260.6,641.1z M1195.9,637.3l62.1,0.8l3.4-23.4l-59.6,0.7
	L1195.9,637.3z"/>
<path class="st6" d="M1254.4,611.1c0,0-1.5-40.5,15.8-39.2s16.1,2.3,16.1,2.3l-9.8,68.9l-21-1.6
	C1255.7,641.5,1265.1,616.4,1254.4,611.1z"/>
<rect x="1243.7" y="606.4" transform="matrix(0.1403 -0.9901 0.9901 0.1403 497.8677 1790.2905)" class="st1" width="72.3" height="4"/>
<path class="st7" d="M840.4,575.6c0,0-16.4,62.5,0,66.4c16.4,3.8,377.9,0,377.9,0l3.7-36.5l-290.5-29.9H840.4z"/>
<path class="st7" d="M932.3,579.4c0,0,116.5-56.6,141.1-56.6c14.6,0,113.5,83.5,113.5,83.5l-54.5,17.2l-64.5-43.7l-77.8,29.9
	L932.3,579.4z"/>
<path class="st2" d="M787.5,598.1c0,0-13.4,28.8-18.8,30.5c-5.3,1.7-41.3-4.3-44.4,11.9l49.5-0.1c12.9-1.9,33.2-29.2,33.2-29.2
	L787.5,598.1z"/>
<path class="st1" d="M722.5,642.1l0.3-1.8c2.6-13.4,24.3-13.1,37.2-12.9c3.6,0.1,7.1,0.1,8.2-0.2c2.9-0.9,11.4-15.8,17.9-29.7
	l0.7-1.6l22.4,15l-0.9,1.3c-0.8,1.1-20.9,27.9-34.2,29.8l-0.2,0L722.5,642.1z M754.4,630.4c-11,0-24.8,1-28.1,8.7l47.4-0.1
	c10.6-1.6,27-22.1,31.2-27.4l-16.8-11.3c-3.4,7.2-13.7,28.1-18.9,29.7c-1.6,0.5-4.7,0.4-9.1,0.4
	C758.3,630.4,756.4,630.4,754.4,630.4z"/>
<path class="st1" d="M883.1,372.3c0,0-13.1-1.3-13.2,14c0,0-14.1-7.4-14.2,9.3c0,0-18-8.8-23.1,13.8c0,0-9,0.5-10.5,12.8
	c0,0-18.1,3.1-12,19.2c0,0-11.7,22.6,4.3,31.4c7.4,4.1,26.1,2.3,33-7.8c0,0,8.9,3.3,18-4.2c9.1-7.5,1.8-12,1.8-12s10.4,5.2,11.6-2.8
	c1.2-8-3.6-10.5-3.6-10.5s9.7,1.9,15.9,0.5c6.2-1.4,7.7-13.8,7.7-13.8s14.1,3.6,14.1-2.7c-0.1-6.3-4.6-16.3-4.6-16.3
	s2.1,1.3,2.2-6.6c0.1-7.9-9.3-10.6-9.3-10.6L883.1,372.3z"/>
<path class="st1" d="M924.7,301.2c0,0,23.3-0.3,39.2,19.9c15.9,20.1,1.2,38.6-5.2,52.8c-25.4,56.2-72.2,15.2-75.1,7.5
	c-5.8-15.3-9.5-21.7-11.8-36.2C870.4,337.5,874.7,296.7,924.7,301.2z"/>
<path class="st2" d="M896.2,366.9c0,0-5.8,43.4-7.1,46c-8.9,16.2-27,32.6-30,35.4c-15.2,13.8-39.7,47.6-31.5,49.4
	C845.1,501.4,919,461,919,461l34.6-10.7L943,437.2c0,0-9.6-6.9-13.4-12.3c-3.8-5.4,0.9-50.2,0.9-50.2L896.2,366.9z"/>
<path class="st1" d="M830.1,499.3c-1.1,0-2-0.1-2.9-0.3c-1.3-0.3-2.3-1.2-2.6-2.5c-2.2-8.3,21.1-38.2,33.5-49.4
	c4.9-4.4,21.4-20,29.7-35c1-2.2,4.8-29,7-45.4l0.2-1.6l37.2,8.4l-0.1,1.3c-1.8,17.1-3.8,45.6-1.2,49.2c3.6,5.2,13,11.9,13.1,12
	l0.2,0.1l12.1,15l-36.6,11.3C915.2,464.8,851.5,499.3,830.1,499.3z M897.4,368.7c-1.6,11.8-5.8,42.4-7.1,44.9
	c-8.2,15-23.9,30-30.3,35.8c-14.6,13.2-34.1,40.9-32.6,46.4c0.1,0.2,0.1,0.3,0.4,0.4c0.7,0.2,1.6,0.2,2.5,0.2
	c20.6,0,87.2-36.3,87.9-36.7l0.3-0.1l32.5-10l-9.1-11.3c-1.3-1-9.9-7.3-13.6-12.6c-3.8-5.3-0.5-40,0.5-49.9L897.4,368.7z"/>
<path class="st2" d="M896.2,376.3c-3.9-4.9-10.4-14.3-8.6-20.8c1.8-6.6,9-3.4,10.9-1.7c1.3,1.2,10.2-31.7,10.2-31.7l51,13.4
	c0,0-1.5,30.2-9.1,47.5c-7.6,17.4-17.3,19.4-30.6,15.8c-6.6-1.8-11.2-4.8-14.6-8.2L896.2,376.3z"/>
<path class="st1" d="M929.8,401.8c-3.3,0-6.7-0.7-10.1-1.6c-6.1-1.7-11.2-4.5-15.2-8.6c-0.6-0.6-0.6-1.5,0-2.1
	c0.6-0.6,1.5-0.6,2.1,0c3.7,3.7,8.4,6.3,13.9,7.8c12.3,3.4,21.4,2,28.8-14.9c6.5-14.9,8.5-40,8.9-45.8l-48.4-12.7
	c-8.3,30.7-9.8,31.1-10.7,31.4c-0.5,0.2-1.1,0-1.5-0.4c-1-0.9-4.1-2.4-6.2-1.8c-1.1,0.3-1.9,1.2-2.3,2.7c-1.2,4.3,1.8,11.4,8.3,19.5
	c0.5,0.6,0.4,1.6-0.2,2.1c-0.6,0.5-1.6,0.4-2.1-0.2c-5.1-6.4-10.8-15.4-8.9-22.2c0.9-3.2,2.9-4.4,4.4-4.8c2.6-0.7,5.6,0.2,7.6,1.4
	c1.7-4,5.7-17.5,9.1-30l0.4-1.4l53.6,14.1l-0.1,1.2c-0.1,1.2-1.6,30.7-9.2,48.1C945.8,397.8,938,401.8,929.8,401.8z"/>
<path class="st1" d="M944,368.9c-0.1,0-0.2,0-0.4,0c-1.1-0.2-1.8-1.2-1.6-2.3l0.3-1.7c0.2-1.1,1.2-1.8,2.3-1.6
	c1.1,0.2,1.8,1.2,1.6,2.3l-0.3,1.7C945.8,368.3,944.9,368.9,944,368.9z"/>
<path class="st1" d="M921.4,362.7c-0.1,0-0.2,0-0.4,0c-1.1-0.2-1.8-1.2-1.6-2.3l0.3-1.7c0.2-1.1,1.2-1.8,2.3-1.6
	c1.1,0.2,1.8,1.2,1.6,2.3l-0.3,1.7C923.2,362.1,922.3,362.7,921.4,362.7z"/>
<path class="st1" d="M927.2,355.3c-0.4,0-0.8-0.2-1.1-0.5c-0.1-0.1-3.5-3.3-12.4-1c-0.8,0.2-1.6-0.3-1.8-1.1
	c-0.2-0.8,0.3-1.6,1.1-1.8c10.9-2.8,15.2,1.6,15.4,1.8c0.6,0.6,0.5,1.6-0.1,2.1C928,355.1,927.6,355.3,927.2,355.3z"/>
<path class="st1" d="M929.9,377.6c-0.8,0-1.4-0.6-1.5-1.4c-0.1-0.8,0.5-1.6,1.3-1.6c1.4-0.1,3-0.6,3.3-0.9c0.3-0.5,0.2-2.1,0-5.4
	c-0.1-1.4-0.2-3.2-0.3-5.5c0-0.8,0.6-1.5,1.4-1.6c0.8-0.1,1.5,0.6,1.6,1.4c0.1,2.2,0.2,4,0.3,5.4c0.3,4.3,0.3,5.8-0.4,7.1
	c-1,1.8-4.2,2.3-5.6,2.4C930,377.6,930,377.6,929.9,377.6z"/>
<path class="st1" d="M952.6,361.2c-0.5,0-0.9-0.2-1.2-0.6c-0.1-0.2-2.6-3.4-9.3-1.9c-0.8,0.2-1.6-0.3-1.8-1.2
	c-0.2-0.8,0.3-1.6,1.2-1.8c8.9-1.9,12.3,2.9,12.4,3.1c0.5,0.7,0.3,1.6-0.4,2.1C953.2,361.1,952.9,361.2,952.6,361.2z"/>
<path class="st1" d="M962.8,352.9c0,0-10.6-9.4-19-19.9c-0.8-1-39.3,9.7-44.9,18.9c0,0-2.7-1.8-4.9-2c-2.8-0.2-3.9,0.5-3.9,0.5
	l9.3-38l63.2,13.9L962.8,352.9z"/>
<path class="st2" d="M1051.4,484.5c0,0,9.6-8.2,14-11.6c4.4-3.4,0.1-17.6,5.3-16c2.5,0.8,4.8,12.9,4.8,12.9l15-9.6
	c0,0,10.9,22,2.8,27.8c-9.4,6.7-38.7,11-38.3,6.5C1055,494.1,1051.4,484.5,1051.4,484.5z"/>
<path class="st1" d="M1060.7,497.9c-2.6,0-4.7-0.3-5.8-0.9c-0.9-0.5-1.5-1.4-1.5-2.3c-0.2-0.9-1.9-5.5-3.5-9.6l-0.4-1l0.8-0.7
	c0.1-0.1,9.7-8.2,14.1-11.6c1.5-1.2,1.6-5.1,1.7-8.2c0.1-3.5,0.2-6.5,2-7.7c0.6-0.4,1.5-0.8,2.9-0.4c2.5,0.8,4.2,6.5,5.4,11.9
	l14.5-9.3l0.7,1.5c1.2,2.4,11.2,23.3,2.3,29.7C1087.3,494.2,1070.2,497.9,1060.7,497.9z M1056.4,494.4c3,1.9,27.1-1.2,35.9-7.6
	c5.4-3.9,0.5-17.8-2.5-24.4l-15.4,9.9l-0.4-2.2c-1.1-5.6-2.9-11.1-3.9-11.8c-0.2,0-0.3,0-0.3,0c-0.5,0.4-0.6,3.5-0.7,5.4
	c-0.1,3.9-0.3,8.4-2.9,10.4c-3.6,2.8-10.8,8.8-13.2,10.9C1055.9,492.1,1056.4,493.8,1056.4,494.4z M1053.5,494.8L1053.5,494.8
	L1053.5,494.8z"/>
<polygon class="st1" points="1073.3,440.5 1073.1,490.1 1096.5,491.6 1098.2,439.8 "/>
<polygon class="st2" points="1076.9,445.4 1076.1,487.8 1091.4,486.9 1092.7,445.1 "/>
<path class="st1" d="M1074.6,489.4l0.9-45.5l18.7-0.3l-1.3,44.8L1074.6,489.4z M1078.4,446.8l-0.7,39.4l12.3-0.7l1.1-38.9
	L1078.4,446.8z"/>
<path class="st6" d="M853,454.2c85.2-7.5,85.9-26.3,97.7-17.1c8.7,6.8,51,61.6,51,61.6l53.8-24.6l16.8,24.6c0,0-56.1,51.8-73.1,52.5
	c-17,0.7-50.6-46.4-50.6-46.4l-4.2,70.9l-106.9,1.4l7.5-29.5l-43.7,81l-32.5-19C768.7,609.7,819.2,457.2,853,454.2z"/>
<path class="st2" d="M1096.3,463c0,0-3.2,1.1-6.7,6.9c-3.8,6.3-5.9,16.1-3.7,17.3C1096.3,492.4,1101.2,494.8,1096.3,463z"/>
<path class="st1" d="M1094.3,491.8c-2.5,0-5.5-1.5-9-3.3c-0.5-0.3-1.2-0.8-1.5-2c-1-3.5,1.2-11.8,4.6-17.4c3.7-6.1,7.1-7.4,7.5-7.5
	l1.7-0.6l0.3,1.8c3.1,20.7,2,26.2-0.8,28.2C1096.2,491.5,1095.3,491.8,1094.3,491.8z M1086.7,485.9c3.7,1.9,7.2,3.6,8.5,2.7
	c2.8-2,1-16,0-23.1c-1.1,0.9-2.7,2.5-4.3,5.2C1087.3,476.6,1085.9,484.5,1086.7,485.9z"/>
<path class="st1" d="M938,381.3c0.8,1.2-5,4.6-9,3.8c-10.1-1.9-11.8-9.7-9.8-8.1c0.8,0.6,5.4,3.8,10.5,4.4
	C936.2,382.2,937.2,379.9,938,381.3z"/>
<path class="st8" d="M1161.3,602.4c-0.1,0-0.1,0-0.2,0l-203.3-21c-0.8-0.1-1.4-0.8-1.3-1.6c0.1-0.8,0.8-1.4,1.6-1.3l203.3,21
	c0.8,0.1,1.4,0.8,1.3,1.6C1162.7,601.9,1162,602.4,1161.3,602.4z"/>
<path class="st1" d="M847.1,542.2c-0.2,0-0.5-0.1-0.7-0.2c-0.7-0.4-1-1.3-0.7-2l15.7-30.8c0.4-0.7,1.3-1,2-0.7c0.7,0.4,1,1.3,0.7,2
	l-15.7,30.8C848.1,541.9,847.6,542.2,847.1,542.2z"/>
<path class="st9" d="M767.6,1716.8H312c-28.2,0-51.1-22.9-51.1-51.1v-237.4c0-33.7,27.3-61,61-61h435.8c33.7,0,61,27.3,61,61v237.4
	C818.7,1693.9,795.8,1716.8,767.6,1716.8z"/>
<rect x="260.8" y="1445.3" class="st1" width="557.8" height="58.8"/>
<rect x="301.9" y="1555.7" class="st10" width="324.8" height="40.3"/>
<path class="st1" d="M628.3,1597.6H300.4v-43.3h327.8V1597.6z M303.4,1594.6h321.8v-37.3H303.4V1594.6z"/>
<rect x="668.6" y="1555.7" class="st10" width="91.9" height="40.3"/>
<path class="st1" d="M761.9,1597.6h-94.9v-43.3h94.9V1597.6z M670.1,1594.6h88.9v-37.3h-88.9V1594.6z"/>
<path class="st1" d="M760.4,1635.6H301.9c-0.8,0-1.5-0.7-1.5-1.5s0.7-1.5,1.5-1.5h458.5c0.8,0,1.5,0.7,1.5,1.5
	S761.3,1635.6,760.4,1635.6z"/>
<path class="st1" d="M582.7,1667.3H301.9c-0.8,0-1.5-0.7-1.5-1.5s0.7-1.5,1.5-1.5h280.8c0.8,0,1.5,0.7,1.5,1.5
	S583.5,1667.3,582.7,1667.3z"/>
<rect x="101" y="1717" class="st1" width="1774.3" height="3"/>
<polygon class="st2" points="524.9,1566.6 543.1,1587.1 571.6,1562 556.8,1540.4 "/>
<path class="st1" d="M543,1589.2l-20.2-22.8l34.3-28.2l16.5,24L543,1589.2z M527.1,1566.8l16.1,18.2l26.4-23.3l-13.2-19.2
	L527.1,1566.8z"/>
<path class="st6" d="M540.5,1587.3c0,0-29.6,49.4-21.6,61.4l73.8-65.1l-21-23.8L540.5,1587.3z"/>
<polygon class="st1" points="591,1577 596.9,1583.6 518.4,1652.8 512.2,1645.7 "/>
<path class="st1" d="M527.3,1604c-0.6,0-1.1-0.3-1.4-0.9c-0.3-0.8,0-1.6,0.7-2l18-8.3c0.8-0.3,1.6,0,2,0.7c0.3,0.8,0,1.6-0.7,2
	l-18,8.3C527.7,1604,527.5,1604,527.3,1604z"/>
<path class="st1" d="M523.9,1614.6c-0.6,0-1.1-0.3-1.4-0.9c-0.3-0.8,0-1.6,0.7-2l18-8.3c0.8-0.3,1.6,0,2,0.7c0.3,0.8,0,1.6-0.7,2
	l-18,8.3C524.4,1614.5,524.2,1614.6,523.9,1614.6z"/>
<path class="st1" d="M517.8,1627.5c-0.6,0-1.1-0.3-1.4-0.9c-0.3-0.8,0-1.6,0.7-2l18-8.3c0.8-0.3,1.6,0,2,0.7c0.3,0.8,0,1.6-0.7,2
	l-18,8.3C518.3,1627.5,518,1627.5,517.8,1627.5z"/>
<path class="st11" d="M542.1,1262.9c0,0-191.5,69.4-175.4,112c16.1,42.6,147.2,200.1,147.2,200.1l62.5-34.4c0,0-116-149-120.5-168
	c0,0,161.2,1,182.6-15.7c30.2-23.5,22.4-108.7,22.4-108.7L542.1,1262.9z"/>
<path class="st2" d="M521.6,1022.2c0,0,14.4,39.5,12.5,44.5c-1.8,5-9.2,24-9.2,24l47.3,67l60.5-23.5l-13.9-64.8
	c0,0-34.9-15.1-38-19.4c-4.2-5.9-14.1-41-14.1-41L521.6,1022.2z"/>
<path class="st1" d="M571.7,1159.5l-48.4-68.6l0.3-0.7c0.1-0.2,7.4-19,9.2-24c1-2.8-5.6-24.3-12.5-43.4c-0.3-0.8,0.1-1.6,0.9-1.9
	c0.8-0.3,1.6,0.1,1.9,0.9c2.4,6.7,14.5,40.2,12.5,45.5c-1.6,4.4-7.5,19.7-8.9,23.3l46.1,65.4l58.2-22.7l-13.5-62.8
	c-7.2-3.1-34.9-15.4-37.9-19.6c-4.3-6-13.9-40-14.4-41.5c-0.2-0.8,0.2-1.6,1-1.9c0.8-0.2,1.6,0.2,1.9,1c2.7,9.7,10.6,35.9,13.9,40.6
	c2,2.9,24,13.1,37.3,18.9l0.7,0.3l14.3,66.8L571.7,1159.5z"/>
<path class="st2" d="M415.3,1163.1c0,0-8.1,2.4-13.2,0c-5-2.4-3.9-17.2-8.7-14.4c-2.3,1.3-1.9,13.6-1.9,13.6l-21.7-0.1
	c0,0-0.4,18.8,12.3,24.2c10.6,4.5,34.7-4.2,34.8-4.5C417.2,1181.4,415.3,1163.1,415.3,1163.1z"/>
<path class="st1" d="M390.2,1189.2c-3.2,0-6.1-0.4-8.5-1.4c-13.5-5.7-13.3-24.8-13.2-25.6l0-1.5l21.6,0.1
	c-0.1-5.7,0.3-12.1,2.7-13.4c1.3-0.7,2.3-0.6,3-0.3c2,0.8,2.8,3.7,3.6,7.1c0.8,3,1.7,6.7,3.5,7.6c4.5,2.1,12-0.1,12.1-0.1l1.7-0.5
	l0.2,1.8c2,18.7,1.8,19.1,1.7,19.5c-0.2,0.6-0.7,0.8-1,0.9C417.3,1183.4,402.1,1189.2,390.2,1189.2z M371.4,1163.7
	c0.2,4.4,1.7,17.2,11.4,21.3c8.8,3.7,28.3-2.4,32.7-4.1c-0.2-2.6-1-10.3-1.6-16c-2.8,0.6-8.4,1.4-12.5-0.5c-3-1.4-4.1-5.7-5.1-9.5
	c-0.5-1.8-1.2-4.7-1.9-5.1c0,0-0.1,0-0.3,0.1c-0.7,0.8-1.3,6.6-1.1,12.3l0.1,1.6L371.4,1163.7z M415.5,1181.7
	C415.5,1181.7,415.5,1181.7,415.5,1181.7C415.5,1181.7,415.5,1181.7,415.5,1181.7z"/>
<polygon class="st1" points="382.4,1132.7 393.5,1181.1 370.9,1187.6 357.9,1137.6 "/>
<polygon class="st2" points="379.9,1138.3 390,1179.5 374.9,1182 364.5,1141.4 "/>
<path class="st1" d="M373.8,1183.7l-11.1-43.4l18.3-3.8l10.8,44.2L373.8,1183.7z M366.3,1142.6l9.6,37.7l12.2-2l-9.4-38.3
	L366.3,1142.6z"/>
<path class="st2" d="M420.4,1199.4c0,0-30.8-3.4-37.5-1.7c-6.7,1.7-21.7-4.3-24.2-18.9c-2.5-14.6,4.8-15.7,4.8-15.7s2.6,8.3,3.4,9.8
	c1.2,2.3,9.8,6.6,9.8,6.6s-0.6-13.7,3.4-15.7c3.9-1.9,7.3,16.7,7.3,16.7l33-6.1V1199.4z"/>
<path class="st1" d="M421.9,1201.1l-1.7-0.2c-8.5-0.9-31.7-3-37-1.7c-4.1,1-10.1-0.5-15.1-3.7c-5.9-3.8-9.8-9.6-10.9-16.4
	c-1.1-6.4-0.5-11.3,1.7-14.4c1.8-2.5,4.1-3,4.3-3l1.3-0.2l0.4,1.2c1,3.2,2.8,8.5,3.3,9.5c0.5,1,3.7,3,7,4.8c0-4.5,0.6-12.7,4.2-14.5
	c0.8-0.4,1.7-0.4,2.5,0c3.4,1.7,5.7,11.5,6.6,16.3l33.3-6.1V1201.1z M389.4,1195.8c9.5,0,24.5,1.5,29.5,2v-21.5l-32.8,6l-0.3-1.5
	c-1.4-7.7-3.8-14.8-5.2-15.6c-1.8,1.1-2.7,8.1-2.5,14.2l0.1,2.5l-2.3-1.1c-2.1-1.1-9.1-4.7-10.5-7.2c-0.6-1.2-2.2-5.8-3-8.4
	c-1.6,1.1-4,4.3-2.4,13.4c1,5.9,4.4,11,9.6,14.4c4.9,3.2,10.1,4,12.7,3.3C384,1195.9,386.4,1195.8,389.4,1195.8z"/>
<path class="st6" d="M582,1046c-8.5,1.7-25.1,37.3-41.8,40.1c-5.1,0.8-3.6-9.2-7.4-13.4c-17.4-18.5-16.9,76-28.3,84.9h-93.9
	l-2.1,33.1l103.2-7.6c17.9,12.2,2.1,77.7,13.4,93.2c1.4,2,138.6,14.3,139.3,12C706.4,1148.5,620.6,1038.4,582,1046z"/>
<path class="st6" d="M604.7,1079.6c-23.8-8.9-39.6,95.5-96.2,91.5c-59.2-4.1-103.9-1.5-104.3,0.5c0,0,3.3,41.8,3.7,42.7
	c0,0,48.9,6.3,119.2,13.8c29.3,3.2,64.9-36,88-66.3C628.2,1144.8,627.5,1088.2,604.7,1079.6z"/>
<path class="st1" d="M525.1,1229c-0.7,0-1.4-0.5-1.5-1.3c-0.1-0.8,0.5-1.6,1.3-1.7c12.3-1.8,19.7-2.8,34.2-5
	c27.9-4.1,52-48.7,67.3-85.4c0.3-0.8,1.2-1.1,2-0.8c0.8,0.3,1.1,1.2,0.8,2c-15.6,37.4-40.4,82.9-69.7,87.2c-14.6,2.2-22,3.2-34.3,5
	C525.2,1229,525.1,1229,525.1,1229z"/>
<path class="st1" d="M572.1,1119.3c-0.7-0.4-1.6-0.2-2,0.5c-13.4,23.2-28.7,44.7-49.8,49.6c0,0,0,0,0,0l8.7-48.5
	c0.1-0.8-0.4-1.6-1.2-1.7c-0.8-0.1-1.6,0.4-1.7,1.2l-9,49.7c-3.2,0.5-6,0.6-9.5,0.3c-34.7-3-61.4-3.3-74.3-3.3
	c-30.9,0.1-31.3,2.1-31.6,3.3l0,0.2l4.7,44.1c0.1,0.8,0.7,1.3,1.5,1.3c0.1,0,0.1,0,0.2,0c0.8-0.1,1.4-0.8,1.3-1.6l-4.5-42.8
	c6.2-1.5,46.5-3,102.6,1.8c29.6,2.6,48.9-23.4,65.3-51.9C573.1,1120.6,572.9,1119.7,572.1,1119.3z"/>
<path class="st1" d="M498,943c-7.7,4.4-26.6,14.8-20.2,29.3c7.2,16.5,19.2,36.5,25.8,46.9c2.6,4.1,7.8,5.7,12.2,3.8l49.8-21.8
	c4.6-2,6.9-7.1,5.4-11.9c-4.9-16-15.7-49.9-19.6-54C537.9,921.4,510.2,936,498,943z"/>
<path class="st2" d="M566.4,1013.6c1.5-4-2.3-15.5-7.5-28.2c-0.2-0.4-0.1-0.8,0.1-1.1c2.4-3.4,5.3-9.6,2.5-15.8
	c-2.5-5.4-5.9-2.5-8.2,0.6c-0.4,0.6-1.3,0.4-1.6-0.2c-6.9-15.1-13.5-28-13.5-28L479,966.7c0,0,6,13.5,13.2,28.5
	c0.3,0.7,18.6,35.8,21.5,38.5c1.6,1.4,3.7,2.3,6.2,2.6c0,0,5.2,1.4,26.6-7.9L566.4,1013.6z"/>
<path class="st1" d="M520.9,1037.8c-0.6,0-1-0.1-1.2-0.1c-2.9-0.4-5.3-1.4-7-3c-3.1-2.9-21.7-38.6-21.8-38.9
	c-7.1-14.8-13.2-28.4-13.3-28.5l-0.6-1.4l61.8-27l0.6,1.3c0.1,0.1,6.5,12.7,13.2,27.3c2-2.4,4-3.6,5.9-3.4c1.8,0.2,3.2,1.5,4.3,3.9
	c3.4,7.3-0.5,14.3-2.5,17.1c8.6,21,8.3,26.7,7.4,29.1c-0.3,0.8-1.2,1.2-1.9,0.9c-0.8-0.3-1.2-1.2-0.9-1.9c0.6-1.7,0.5-7.6-7.5-27.1
	c-0.3-0.8-0.2-1.8,0.3-2.5c1.6-2.3,5.1-8.2,2.3-14.3c-0.6-1.3-1.3-2.1-1.9-2.1c-0.9-0.1-2.3,1-3.8,3c-0.5,0.7-1.3,1-2.2,0.9
	c-0.9-0.1-1.6-0.6-2-1.4c-5.6-12.2-11-23.1-12.9-26.7L481,967.4c1.7,3.8,6.8,15,12.6,27c1.2,2.5,18.7,35.8,21.2,38
	c1.3,1.2,3.1,1.9,5.4,2.2l0.2,0l0,0c0,0,5.5,0.9,25.6-7.9c0.8-0.3,1.6,0,2,0.8c0.3,0.8,0,1.6-0.8,2
	C530.8,1036.8,523.7,1037.8,520.9,1037.8z"/>
<path class="st1" d="M530.6,985.4c-0.7,0-1.4-0.4-1.8-1.1l-0.6-1.2c-0.5-1-0.1-2.2,0.9-2.7c1-0.5,2.2-0.1,2.7,0.9l0.6,1.2
	c0.5,1,0.1,2.2-0.9,2.7C531.2,985.3,530.9,985.4,530.6,985.4z"/>
<path class="st1" d="M505.1,997.5c-0.8,0-1.5-0.4-1.8-1.2l-0.6-1.4c-0.5-1,0-2.2,1-2.6c1-0.5,2.2,0,2.6,1l0.6,1.4c0.5,1,0,2.2-1,2.6
	C505.6,997.4,505.4,997.5,505.1,997.5z"/>
<path class="st1" d="M522.6,977.6c-0.4,0-0.7-0.1-1-0.4c-0.6-0.6-0.7-1.5-0.1-2.1c0.2-0.2,4.5-4.9,11.3-5.1c0.8,0,1.5,0.6,1.5,1.5
	c0,0.8-0.6,1.5-1.5,1.5c-5.5,0.2-9.1,4.1-9.1,4.1C523.4,977.5,523,977.6,522.6,977.6z"/>
<path class="st1" d="M517.3,1007.7c-1.7,0-3.6-0.4-4.6-1.7c-1.2-1.8-1.2-2.4-1.5-9.7c-0.1-1.5-0.1-3.4-0.2-5.7
	c-0.2-1.3-0.8-4.7-1.9-6.3c-0.1-0.1-0.8-0.3-2.4-0.2c-3.5,0.4-8.5,2.6-10.6,5.5c-0.5,0.7-1.4,0.8-2.1,0.3c-0.7-0.5-0.8-1.4-0.3-2.1
	c3.2-4.5,10.2-6.9,14.1-6.8c1.8,0,3.1,0.5,3.8,1.5c1.8,2.6,2.4,7.2,2.5,7.7l0,0.1c0.1,2.3,0.2,4.2,0.2,5.8c0.3,7,0.3,7.1,1,8.1
	c0.3,0.4,2.5,0.6,4.6,0.1c0.8-0.2,1.6,0.4,1.8,1.2c0.2,0.8-0.4,1.6-1.2,1.8C519.9,1007.5,518.7,1007.7,517.3,1007.7z"/>
<path class="st1" d="M541.4,944.4c0,0-51.3,35.3-78,31.6c-15.2-2.1-9.4-20.3-0.7-27.2c6.6-5.2,17.5-0.8,25.5-4.4
	c6.2-2.8,18.6-12.4,26.9-15.4C531.9,923.1,545.1,933,541.4,944.4z"/>
<path class="st1" d="M533,1008.6c1.4,1.5-0.5,9.5-5.3,11.3c-7.7,2.9-12.7-4.2-10.7-4.4c0.8-0.1,4.3,1.1,8.9-0.8
	C530.8,1012.6,532.1,1007.6,533,1008.6z"/>
<rect x="1284.5" y="1110.1" class="st12" width="196" height="608.4"/>
<path class="st1" d="M1283,1108.6V1720h199v-611.4H1283z M1479,1111.6v198.8h-193v-47.1h186.9l0.7-3H1286v-47.1h187.5v-3H1286V1163
	h187.5v-3H1286v-48.4H1479z M1286,1619.5h193v47.1h-193V1619.5z M1286,1616.5v-47.1h193v47.1H1286z M1479,1566.4h-193v-47.1h193
	V1566.4z M1479,1516.2h-193v-47.1h193V1516.2z M1479,1466.1h-193v-52.4h193V1466.1z M1286,1410.7v-47.1h193v47.1H1286z M1286,1360.5
	v-47.1h193v47.1H1286z M1286,1717v-47.4h193v47.4H1286z"/>
<rect x="1480.5" y="1412.2" class="st12" width="196" height="306.4"/>
<path class="st1" d="M1479,1410.7V1720h199v-309.4H1479z M1482,1468.8h193v47.4h-193V1468.8z M1675,1413.7v52.2h-193v-52.2H1675z
	 M1482,1717v-197.8h193V1717H1482z"/>
<path class="st1" d="M1510.5,1384.3c-0.6,0-1.1-0.3-1.4-0.9c-0.3-0.8,0-1.6,0.7-2l16.4-7.5c0.8-0.3,1.6,0,2,0.7c0.3,0.8,0,1.6-0.7,2
	l-16.4,7.5C1510.9,1384.2,1510.7,1384.3,1510.5,1384.3z"/>
<path class="st1" d="M1506.4,1372.5c-0.6,0-1.1-0.3-1.4-0.9c-0.3-0.8,0-1.6,0.7-2l16.4-7.5c0.8-0.3,1.6,0,2,0.7c0.3,0.8,0,1.6-0.7,2
	l-16.4,7.5C1506.9,1372.5,1506.6,1372.5,1506.4,1372.5z"/>
<rect x="1421.1" y="1535.9" class="st5" width="341.6" height="182.6"/>
<g>
	<path class="st2" d="M1473.5,1535.9c0,28.4-24,53.3-52.4,53.3v-53.3H1473.5z"/>
	<path class="st2" d="M1762.8,1589.3c-28.4,0-52.6-24.9-52.6-53.3h52.6V1589.3z"/>
	<path class="st2" d="M1473.5,1718.5c0-28.4-24-51.4-52.4-51.4v51.4H1473.5z"/>
	<path class="st2" d="M1709.5,1718.5c0-28.4,24.9-52.7,53.3-52.7v52.7H1709.5z"/>
	<path class="st1" d="M1419.6,1534.4V1720h344.6v-55.7v-129.9H1419.6z M1761.3,1537.4v50.3c-26.1-0.9-48.8-23.8-49.6-50.3H1761.3z
		 M1422.6,1537.4h49.3c-0.8,26.5-23.4,49.4-49.3,50.3V1537.4z M1422.6,1717v-48.4c26.8,0.8,48.5,22.1,49.3,48.4H1422.6z M1475,1717
		c-0.4-13.5-6-26.2-15.9-35.9c-9.9-9.6-22.7-15.1-36.4-15.5v-74.9c13.5-0.4,26.4-6.2,36.4-16.4c9.8-10,15.5-23.4,15.9-36.9h233.7
		c0.4,13.5,6.2,26.8,16.1,36.9c9.9,10.1,23.1,16,36.5,16.4v73.7c-13.5,0.4-26.8,6.2-36.9,16.1c-10.1,9.9-16,23.2-16.4,36.6H1475z
		 M1761.3,1717H1711c0.9-26.1,23.8-48.8,50.3-49.7V1717z"/>
	<path class="st1" d="M1445.2,1660.7c-0.8,0-1.5-0.7-1.5-1.5v-61.6c0-0.8,0.7-1.5,1.5-1.5s1.5,0.7,1.5,1.5v61.6
		C1446.7,1660,1446.1,1660.7,1445.2,1660.7z"/>
	<path class="st1" d="M1737.1,1660.7c-0.8,0-1.5-0.7-1.5-1.5v-61.6c0-0.8,0.7-1.5,1.5-1.5s1.5,0.7,1.5,1.5v61.6
		C1738.6,1660,1737.9,1660.7,1737.1,1660.7z"/>
	<path class="st1" d="M1692.8,1557.1h-203.3c-0.8,0-1.5-0.7-1.5-1.5s0.7-1.5,1.5-1.5h203.3c0.8,0,1.5,0.7,1.5,1.5
		S1693.6,1557.1,1692.8,1557.1z"/>
	<path class="st1" d="M1693.6,1699.1h-203.3c-0.8,0-1.5-0.7-1.5-1.5s0.7-1.5,1.5-1.5h203.3c0.8,0,1.5,0.7,1.5,1.5
		S1694.4,1699.1,1693.6,1699.1z"/>
	<ellipse class="st2" cx="1596.6" cy="1631.5" rx="38.1" ry="46.7"/>
	<path class="st1" d="M1596.6,1679.7c-21.8,0-39.6-21.6-39.6-48.2s17.8-48.2,39.6-48.2s39.6,21.6,39.6,48.2
		S1618.5,1679.7,1596.6,1679.7z M1596.6,1586.4c-20.2,0-36.6,20.3-36.6,45.2s16.4,45.2,36.6,45.2s36.6-20.3,36.6-45.2
		S1616.8,1586.4,1596.6,1586.4z"/>
	<path class="st1" d="M1616.1,1644.5c0-6.7-2.3-13-18-16.9c0,0,0,0,0,0v-20.9c6.9,0.4,10.5,3.8,12,8.6c0.3,0.9,1.2,1.6,2.1,1.6l0,0
		c1.5,0,2.6-1.4,2.2-2.8c-1.7-5.6-6.6-10.9-16.3-11.4v-5.2c0-0.8-0.7-1.5-1.5-1.5s-1.5,0.7-1.5,1.5v5.2
		c-10.7,0.6-15.5,7.1-15.5,14.1c0,7.7,4.7,11.5,15.5,14.4v24.6c-7.1-0.6-11.2-4.3-13-10.1c-0.3-0.9-1.1-1.6-2.1-1.6
		c-1.5,0-2.6,1.4-2.2,2.8c1.8,6.2,6.6,12,17.3,12.7v7.4c0,0.8,0.7,1.5,1.5,1.5s1.5-0.7,1.5-1.5v-7.3
		C1610.4,1659.5,1616.1,1652.5,1616.1,1644.5z M1584.2,1616.6c0-5.8,3.8-9.5,10.9-9.9v20.1
		C1587.2,1624.6,1584.2,1622.1,1584.2,1616.6z M1598.1,1656v-23.9c10.8,3,13.4,6.8,13.4,12.8
		C1611.5,1650.7,1607.8,1655.7,1598.1,1656z"/>
</g>
<path class="st6" d="M1482.9,1349c12.1,44.2,33,58.1,44,54.1c3.5-1.3,6-4.5,6.9-9.2c3.4-19.5-10.9-45.8-21.5-60
	C1507.3,1327.3,1479.8,1337.5,1482.9,1349z"/>
<path class="st1" d="M1482.9,1349c12.2,44.2,33,58.1,44,54.1c-34-19-39.5-64-39.5-64s-3.1,2.5-4,4.6
	C1481.9,1347.2,1482.9,1349,1482.9,1349z"/>
<path class="st2" d="M1485.5,1291.7c0,0,2.6,43.6,5.1,51.5s12.6,17.9,16.4,18.6c6.9,1.1,11.7-4,5.1-23.7l7-48L1485.5,1291.7z"/>
<path class="st1" d="M1508.7,1363.4c-0.6,0-1.3-0.1-1.9-0.2c-4.7-0.8-14.9-11.4-17.6-19.6c-2.6-8-5.1-50.1-5.2-51.9l-0.1-1.5l37-1.8
	l-7.2,49.5c3.8,11.4,4.1,19.2,0.9,23C1513.1,1362.5,1511.1,1363.4,1508.7,1363.4z M1487.1,1293.1c0.5,7.7,2.7,42.8,4.9,49.6
	c2.5,7.6,12.2,17.1,15.2,17.5c2.3,0.4,3.9-0.1,5-1.3c1.4-1.7,3.1-6.6-1.5-20.4l-0.1-0.3l6.8-46.6L1487.1,1293.1z"/>
<path class="st6" d="M1619.8,1312.3c32.9,32,58,33.4,65.3,24.3c2.4-2.9,2.9-7,1.2-11.4c-7-18.5-32.6-33.9-49-40.8
	C1629.8,1281.3,1611.2,1304,1619.8,1312.3z"/>
<path class="st1" d="M1619.8,1312.3c32.9,31.9,58,33.4,65.3,24.3c-39,0.9-66.5-35.1-66.5-35.1s-1.4,3.7-1.1,5.9
	C1617.9,1311.3,1619.8,1312.3,1619.8,1312.3z"/>
<path class="st1" d="M1660.6,1328.9c-0.3,0-0.6-0.1-0.9-0.3c-0.7-0.5-0.8-1.4-0.4-2.1l10.3-14.8c0.5-0.7,1.4-0.8,2.1-0.4
	c0.7,0.5,0.8,1.4,0.4,2.1l-10.3,14.8C1661.6,1328.7,1661.1,1328.9,1660.6,1328.9z"/>
<path class="st1" d="M1651.2,1320.8c-0.3,0-0.6-0.1-0.9-0.3c-0.7-0.5-0.8-1.4-0.4-2.1l10.3-14.8c0.5-0.7,1.4-0.8,2.1-0.4
	c0.7,0.5,0.8,1.4,0.4,2.1l-10.3,14.8C1652.1,1320.6,1651.6,1320.8,1651.2,1320.8z"/>
<path class="st2" d="M1592.9,1261.6c0,0,26.9,33.3,33.1,38.8c6.2,5.5,18.8,9.5,22.4,8.1c6.5-2.5,6.6-6.8-9-20.4l-18.3-45
	L1592.9,1261.6z"/>
<path class="st1" d="M1646.4,1310.3c-5.8,0-16.1-4-21.4-8.7c-6.2-5.5-32.1-37.6-33.2-39l-1-1.3l31.1-20.4l18.8,46.3
	c10.1,8.8,14,14,13.3,17.9c-0.5,2.8-3.1,4.1-5,4.8C1648.2,1310.1,1647.4,1310.3,1646.4,1310.3z M1595.1,1261.9
	c5,6.2,26.5,32.6,31.8,37.4c6.2,5.5,18.2,8.8,20.9,7.8c2.6-1,3-1.9,3.2-2.5c0.4-2.5-3.8-7.7-12.6-15.4l-0.3-0.2l-0.1-0.3l-17.6-43.3
	L1595.1,1261.9z"/>
<path class="st7" d="M1410.5,1048.9c0,0,142.9,23.9,151.8,41.9c8.9,18.1,84.3,156.3,84.3,156.3l-84.3,54.9l-45.4-159.7
	L1410.5,1048.9z"/>
<path class="st7" d="M1319.2,1047.5c4.5,15.7-34.7,61.6,34.7,70.6c69.4,9,99.7,7.8,99.7,7.8L1467,1313h116.6
	c0,0-60.6-208.9-66.1-221c-2.4-5.4-23.4-14.6-46.3-23.2c-29.2-11.1-61.3-21.2-61.3-21.2H1319.2z"/>
<path class="st1" d="M1440.7,822c0,0,26.9-24.3,5.4-54.1c-26.3-36.4-118.5,3.8-63.1,68.3C1412.2,870.3,1440.7,822,1440.7,822z"/>
<path class="st2" d="M1423.7,831.4c0,0-12.5,34.2-10.9,38.5c1.6,4.3,8,20.8,8,20.8l-41,58l-52.4-20.4l15.3-45.8
	c0,0,38.5-27.2,41.1-30.9c3.7-5.1,8.4-23.4,8.4-23.4L1423.7,831.4z"/>
<path class="st1" d="M1380.4,950.5l-54.8-21.3l15.9-47.6l0.4-0.3c14.8-10.5,38.9-28,40.8-30.5c3.5-4.8,8.1-22.7,8.2-22.9
	c0.2-0.8,1-1.3,1.8-1.1c0.8,0.2,1.3,1,1.1,1.8c-0.2,0.8-4.9,18.6-8.6,23.9c-2.6,3.7-35.6,27.1-41.1,30.9l-14.7,44l50,19.5l39.8-56.4
	c-1.3-3.3-6.3-16.3-7.7-20.1c-1.7-4.5,7.9-31.4,10.9-39.6c0.3-0.8,1.1-1.2,1.9-0.9c0.8,0.3,1.2,1.1,0.9,1.9
	c-6,16.5-11.7,35-10.9,37.5c1.6,4.3,7.9,20.6,7.9,20.8l0.3,0.7L1380.4,950.5z"/>
<path class="st2" d="M1476.6,956.9c0,0,39.3,11.1,43.9,9.5c4.6-1.6,4.9-14.4,8.8-11.6c1.8,1.3,0.4,11.9,0.4,11.9l18.7,1.9
	c0,0-1.4,16.2-12.8,19.7c-9.5,2.9-87.4-9.8-87.5-10c-0.1-0.3-55.7-12.1-2.1-40.7C1451.7,934.5,1476.6,956.9,1476.6,956.9z"/>
<path class="st1" d="M1530.2,990.2c-20.3,0-78.9-9.7-82.8-10.5l0,0c-0.1,0-0.3-0.1-0.6-0.2c-15.9-4.3-24.8-10.5-25.7-18
	c-0.9-7.9,7-16.1,24-25.2c6.1-3.3,25.8,13.6,32.1,19.3c19,5.3,40.1,10.3,42.6,9.4c1.5-0.5,2.6-3.6,3.6-6.1c1.1-2.9,2-5.3,3.9-5.9
	c0.6-0.2,1.6-0.2,2.7,0.6c1.9,1.4,1.8,6.9,1.2,11.8l18.6,1.9l-0.1,1.5c-0.1,0.7-1.6,17.3-13.9,21
	C1534.8,990,1532.8,990.2,1530.2,990.2z M1448.4,976.9c3.5,0.8,77.8,12.6,86.6,10c8.4-2.6,10.9-13,11.6-16.9l-18.7-1.9l0.2-1.5
	c0.7-4.7,0.7-9.6,0.2-10.5c0,0,0,0,0,0c-0.6,0.5-1.4,2.7-1.9,4c-1.2,3.2-2.6,6.9-5.4,7.9c-4.8,1.7-38.1-7.6-44.8-9.4l-0.3-0.1
	l-0.3-0.2c-11.6-10.4-26-20.7-29-19.1c-15.4,8.2-23.2,15.9-22.5,22.3c0.7,6,9,11.5,23.5,15.4
	C1447.9,976.7,1448.2,976.8,1448.4,976.9z"/>
<polygon class="st1" points="1540.2,942 1526.3,982.7 1545.1,990.4 1560.8,948.4 "/>
<polygon class="st2" points="1541.8,947 1529.4,981.7 1542.2,985.2 1554.8,951.2 "/>
<path class="st1" d="M1543.1,987l-15.7-4.3l13.5-37.5l15.9,5L1543.1,987z M1531.3,980.6l9.9,2.7l11.6-31.2l-10.1-3.2L1531.3,980.6z"
	/>
<path class="st6" d="M1371.4,852c7.3,1.5,21.8,32.4,36.3,34.7c4.4,0.7,3.1-8,6.4-11.6c15.1-16.1,21.8,29.3,31.8,37.1
	c0,0,18.8,8,19.1,17.5c0.2,6.9-5.5,12.6-10.6,17.3c-20.7,19.2-27.5,14.8-27.5,14.8c-15.5,10.6,3.6,76.3-6.1,89.7
	c-1.2,1.7-103.4,6.3-103.6,4.2C1305.5,927.6,1338,845.3,1371.4,852z"/>
<path class="st2" d="M1459.8,1003.7c0,0,68.4-7.7,74.1-5.7c5.6,2.1,19.1-1.7,22.5-14.1c3.5-12.3-2.7-14-2.7-14s-3,6.9-3.8,8.1
	c-1.3,1.9-9.1,4.8-9.1,4.8s1.7-11.8-1.5-13.8c-3.2-2-7.8,13.7-7.8,13.7l-71.8-8.2l-36-12.7l-38.8,31.4L1459.8,1003.7z"/>
<path class="st1" d="M1459.8,1005.2l-78.4-11l42.1-34.1l36.7,12.9l70.4,8.1c1.2-4,4.2-12.4,7.3-13.6c0.8-0.3,1.6-0.2,2.4,0.2
	c3,1.9,2.9,8.6,2.5,12.7c2.9-1.2,5.5-2.6,6-3.3c0.5-0.8,2.5-5.2,3.7-7.9l0.5-1.2l1.2,0.3c0.2,0.1,2.2,0.6,3.6,3.1
	c1.7,3,1.7,7.2,0.2,12.7c-1.6,5.7-5.5,10.4-11,13.2c-4.7,2.4-10,3.1-13.5,1.8c-3.9-1.4-47.1,2.8-73.4,5.8L1459.8,1005.2z
	 M1388.6,992.2l71.2,10c7.9-0.9,68.8-7.7,74.6-5.6c2.2,0.8,6.6,0.6,11.1-1.7c4.7-2.4,8.1-6.4,9.5-11.4c2-7.2,0.6-10.2-0.6-11.4
	c-1,2.2-2.6,5.8-3.3,6.8c-1.4,2.1-7.8,4.6-9.8,5.4l-2.4,0.9l0.4-2.5c0.7-4.9,0.6-11-0.6-12.2c-1.3,0.8-3.9,6.6-5.7,12.8l-0.4,1.2
	l-73.3-8.5l-35.2-12.4L1388.6,992.2z"/>
<path class="st6" d="M1351.8,881.1c20.6-7.7,11.8,14.2,49.4,46c34.4,29.2,38.5,26.4-7.1,68c-18.9,17.2-31.3-16.4-51.3-42.7
	C1331.4,937.5,1332,888.5,1351.8,881.1z"/>
<path class="st1" d="M1383.9,1001.3c-0.5,0-1.1,0-1.6-0.1c-9.8-1.3-18-14-27.6-28.7c-4.1-6.4-8.4-13-13.1-19.2
	c-0.5-0.7-0.4-1.6,0.3-2.1c0.7-0.5,1.6-0.4,2.1,0.3c4.8,6.3,9.1,12.9,13.3,19.4c9.2,14.1,17.1,26.3,25.5,27.4
	c3.4,0.4,6.7-1,10.3-4.2c23-21.1,33.2-30.7,33.1-38.2c-0.1-6-6.8-11.6-19-21.7c-2.1-1.8-4.4-3.7-6.9-5.8
	c-9.9-8.4-17.9-17.2-24.4-26.9c-0.5-0.7-0.3-1.6,0.4-2.1c0.7-0.5,1.6-0.3,2.1,0.4c6.4,9.5,14.2,18.1,23.9,26.3
	c2.5,2.1,4.7,4,6.9,5.8c12.9,10.7,19.9,16.6,20.1,24c0.2,8.9-9.7,18.3-34,40.5C1391.3,999.6,1387.7,1001.3,1383.9,1001.3z"/>
<path class="st2" d="M1389.9,838.7c-3.7-4.6-14.3-24.7-12.5-30.9c1.7-6.2,8.5-3.2,10.3-1.6c1.2,1.1,10.2-33.8,10.2-33.8l48.1,11.6
	c0,0-2.3,33.4-9.4,49.7c-7.1,16.3-16.3,18.2-28.7,14.8L1389.9,838.7z"/>
<path class="st1" d="M1416.9,851.4c-2.9,0-6-0.5-9.5-1.4c-0.8-0.2-1.3-1-1-1.8c0.2-0.8,1-1.3,1.8-1.1c11.5,3.2,20,1.9,27-13.9
	c6.1-14.1,8.7-41.7,9.2-47.9l-45.4-11c-8.5,32.7-9.8,33.1-10.8,33.4l-0.8,0.2l-0.7-0.6c-1-0.9-3.8-2.2-5.7-1.6
	c-1,0.3-1.7,1.1-2.1,2.5c-1.5,5.1,8.3,24.6,12.3,29.6c0.5,0.6,0.4,1.6-0.2,2.1c-0.6,0.5-1.6,0.4-2.1-0.2
	c-3.1-3.9-14.8-25.1-12.8-32.2c0.9-3,2.7-4.2,4.2-4.6c2.4-0.7,5.2,0.2,7.1,1.3c1.7-4.2,5.8-18.8,9.2-32l0.4-1.4l50.8,12.3l-0.1,1.3
	c-0.1,1.4-2.4,33.8-9.5,50.2C1432.8,846,1426.4,851.4,1416.9,851.4z"/>
<path class="st1" d="M1431,819.2c-0.1,0-0.2,0-0.4,0c-1.1-0.2-1.8-1.2-1.6-2.3l0.3-1.6c0.2-1.1,1.2-1.8,2.3-1.6
	c1.1,0.2,1.8,1.2,1.6,2.3l-0.3,1.6C1432.8,818.5,1431.9,819.2,1431,819.2z"/>
<path class="st1" d="M1409.8,813.3c-0.1,0-0.2,0-0.4,0c-1.1-0.2-1.8-1.2-1.6-2.3l0.3-1.6c0.2-1.1,1.2-1.8,2.3-1.6
	c1.1,0.2,1.8,1.2,1.6,2.3l-0.3,1.6C1411.6,812.6,1410.7,813.3,1409.8,813.3z"/>
<path class="st1" d="M1414.1,804.9c-0.3,0-0.5-0.1-0.8-0.2c-0.1,0-3.7-2.2-7.9-1.2c-0.8,0.2-1.6-0.3-1.8-1.1
	c-0.2-0.8,0.3-1.6,1.1-1.8c5.5-1.4,10.1,1.5,10.3,1.6c0.7,0.4,0.9,1.4,0.5,2.1C1415.1,804.6,1414.6,804.9,1414.1,804.9z"/>
<path class="st1" d="M1445.4,810c0,0,1.5-19.3-15-24.4c-8.7-2.7-19.8-4.2-26.2-1.4c-6.1,2.7-16,19.7-16,19.7l3.8-37.2l56,9.8
	L1445.4,810z"/>
<path class="st1" d="M1423.6,756.4c0,0,15.8-7.2,8.8-22c-7-14.8-59.7-9.4-30.4,23.6C1431.1,791,1423.6,756.4,1423.6,756.4z"/>
<path class="st1" d="M1426.9,832.3c0.6,1.1-4.4,3.5-7.7,2.6c-8.3-2.2-9.3-8.7-7.7-7.3c0.6,0.5,4.3,3.5,8.5,4.3
	C1425.3,832.9,1426.2,831.1,1426.9,832.3z"/>
<path class="st1" d="M1424,826.6c-1.1,0-2.4-0.1-4.2-0.4c-0.8-0.1-1.4-0.9-1.3-1.7c0.1-0.8,0.9-1.4,1.7-1.3c1.9,0.3,4,0.4,5,0.3
	c-0.1-0.2-0.2-0.5-0.3-0.7c-0.6-1.7-1.7-4.5-2-9.5c-0.3-4.3,0.1-6.6,1.2-7.9c1-1,2.2-1.1,3.1-1.1l0.4,0c3.3-0.2,9.5,2.6,10.2,2.9
	c0.8,0.3,1.1,1.2,0.7,2c-0.3,0.8-1.2,1.1-2,0.7c-2.3-1.1-6.8-2.7-8.8-2.6c-0.2,0-0.3,0-0.5,0c-0.4,0-0.9,0-1,0.1
	c-0.2,0.2-0.7,1.2-0.5,5.7c0.3,4.5,1.2,7,1.8,8.6c0.5,1.3,0.9,2.3,0.3,3.4C1427.9,825.6,1427.4,826.6,1424,826.6z"/>
<path class="st1" d="M1415.1,940.3C1415.1,940.3,1415.1,940.3,1415.1,940.3c-0.8,0-1.5-0.7-1.5-1.5c0.1-26.9-5.4-46.7-5.4-46.9
	c-0.2-0.8,0.2-1.6,1-1.8c0.8-0.2,1.6,0.2,1.8,1c0.1,0.2,5.6,20.3,5.5,47.7C1416.6,939.6,1415.9,940.3,1415.1,940.3z"/>
<path class="st8" d="M1572.8,1277.4c-0.6,0-1.2-0.4-1.4-1.1l-58.6-186.6l-65.3-21.4c-0.8-0.3-1.2-1.1-1-1.9c0.3-0.8,1.1-1.2,1.9-1
	l66.8,21.9l0.2,0.7l58.8,187.3c0.2,0.8-0.2,1.6-1,1.9C1573.1,1277.4,1572.9,1277.4,1572.8,1277.4z"/>
<path class="st13" d="M1426.8,769.7c0.2-0.2,0.4-0.5,0.6-0.7c4.6-6.4,6.2-7.1,6.6-7.1c-1.7-0.8-13.9-5.5-19.7,4.8
	c-1.3-2.3-3.4-4.6-7.1-6.1c-7.3-2.9-8.4-4.2-8.5-4.7c-0.3,1.6-1.5,10.9,4.8,15.7c-16.3,9.1-24.1,34.5-24.1,34.5s0.8-0.8,2.2-0.8
	c1.7,0,2.5,0.4,2.5,0.4s8.1-21.2,21-25.7c19.1-6.7,32.3,1,37.6,8.1c5.3,7-0.6,29.1-0.6,29.1C1455.9,792.5,1443.6,774.7,1426.8,769.7
	z"/>
<path class="st1" d="M1648.8,881.9c0-6-2.1-11.7-16.1-15.2v-18.9c6.2,0.4,9.3,3.5,10.7,7.8c0.3,0.9,1,1.4,1.9,1.4
	c1.3,0,2.3-1.3,2-2.6c-1.5-5-5.9-9.8-14.6-10.2v-4.7c0-0.8-0.7-1.5-1.5-1.5s-1.5,0.7-1.5,1.5v4.7c-9.6,0.6-13.9,6.5-13.9,12.7
	c0,6.9,4.2,10.4,13.9,13v22.2c-6.3-0.6-10-3.9-11.6-9.1c-0.3-0.8-1-1.4-1.9-1.4c-1.3,0-2.3,1.3-1.9,2.6c1.6,5.5,6,10.8,15.5,11.4
	v6.7c0,0.8,0.7,1.5,1.5,1.5s1.5-0.7,1.5-1.5v-6.6C1643.6,895.3,1648.8,889.1,1648.8,881.9z M1620,856.7c0-5.2,3.4-8.5,9.7-8.9v18.1
	C1622.6,863.8,1620,861.6,1620,856.7z M1632.7,892.2v-21.5c9.7,2.7,11.9,6.1,11.9,11.5C1644.6,887.5,1641.3,891.9,1632.7,892.2z"/>
<path class="st1" d="M1631.2,917.7c-26.4,0-47.8-21.5-47.8-47.8c0-26.4,21.5-47.8,47.8-47.8s47.8,21.5,47.8,47.8
	C1679,896.3,1657.6,917.7,1631.2,917.7z M1631.2,825c-24.7,0-44.8,20.1-44.8,44.8c0,24.7,20.1,44.8,44.8,44.8s44.8-20.1,44.8-44.8
	C1676,845.2,1655.9,825,1631.2,825z"/>
<path class="st1" d="M1574.4,937.1c-6.2,0-11.2-5-11.2-11.2c0-6.2,5-11.2,11.2-11.2s11.2,5,11.2,11.2
	C1585.6,932,1580.6,937.1,1574.4,937.1z M1574.4,917.7c-4.5,0-8.2,3.7-8.2,8.2c0,4.5,3.7,8.2,8.2,8.2s8.2-3.7,8.2-8.2
	C1582.6,921.4,1578.9,917.7,1574.4,917.7z"/>
<path class="st1" d="M1188.9,374.6c0-6-2.1-11.7-16.1-15.2v-18.9c6.2,0.4,9.3,3.5,10.7,7.8c0.3,0.8,1,1.4,1.9,1.4
	c1.3,0,2.3-1.3,2-2.6c-1.5-5-5.9-9.8-14.6-10.2v-4.7c0-0.8-0.7-1.5-1.5-1.5s-1.5,0.7-1.5,1.5v4.7c-9.6,0.6-13.9,6.5-13.9,12.7
	c0,6.9,4.2,10.4,13.9,13v22.2c-6.3-0.6-10-3.9-11.6-9.1c-0.3-0.8-1-1.4-1.9-1.4c-1.3,0-2.3,1.3-1.9,2.6c1.6,5.5,6,10.8,15.5,11.4
	v6.7c0,0.8,0.7,1.5,1.5,1.5s1.5-0.7,1.5-1.5v-6.6C1183.8,388,1188.9,381.8,1188.9,374.6z M1160.1,349.4c0-5.2,3.4-8.5,9.7-8.9v18.1
	C1162.7,356.6,1160.1,354.3,1160.1,349.4z M1172.8,384.9v-21.5c9.7,2.7,11.9,6.1,11.9,11.5C1184.7,380.2,1181.4,384.7,1172.8,384.9z
	"/>
<path class="st1" d="M1171.3,410.5c-26.4,0-47.8-21.5-47.8-47.8c0-26.4,21.5-47.8,47.8-47.8s47.8,21.5,47.8,47.8
	C1219.1,389,1197.7,410.5,1171.3,410.5z M1171.3,317.8c-24.7,0-44.8,20.1-44.8,44.8c0,24.7,20.1,44.8,44.8,44.8s44.8-20.1,44.8-44.8
	C1216.1,337.9,1196,317.8,1171.3,317.8z"/>
<path class="st1" d="M1114.5,429.8c-6.2,0-11.2-5-11.2-11.2c0-6.2,5-11.2,11.2-11.2s11.2,5,11.2,11.2
	C1125.7,424.8,1120.7,429.8,1114.5,429.8z M1114.5,410.5c-4.5,0-8.2,3.7-8.2,8.2c0,4.5,3.7,8.2,8.2,8.2s8.2-3.7,8.2-8.2
	C1122.7,414.1,1119,410.5,1114.5,410.5z"/>
<path class="st1" d="M322.7,1048.3c0-6-2.1-11.7-16.1-15.2v-18.9c6.2,0.4,9.3,3.5,10.7,7.8c0.3,0.8,1,1.4,1.9,1.4
	c1.3,0,2.3-1.3,2-2.6c-1.5-5-5.9-9.8-14.6-10.3v-4.7c0-0.8-0.7-1.5-1.5-1.5c-0.8,0-1.5,0.7-1.5,1.5v4.7c-9.6,0.6-13.9,6.5-13.9,12.7
	c0,6.9,4.2,10.4,13.9,13v22.2c-6.3-0.6-10-3.9-11.6-9.1c-0.3-0.8-1-1.4-1.9-1.4c-1.3,0-2.3,1.3-1.9,2.6c1.6,5.5,6,10.8,15.5,11.4
	v6.7c0,0.8,0.7,1.5,1.5,1.5c0.8,0,1.5-0.7,1.5-1.5v-6.6C317.6,1061.7,322.7,1055.5,322.7,1048.3z M293.9,1023.1
	c0-5.2,3.4-8.5,9.7-8.9v18.1C296.5,1030.3,293.9,1028,293.9,1023.1z M306.6,1058.6v-21.5c9.7,2.7,11.9,6.1,11.9,11.5
	C318.5,1053.9,315.2,1058.4,306.6,1058.6z"/>
<path class="st1" d="M305.1,1084.2c-26.4,0-47.8-21.5-47.8-47.8c0-26.4,21.5-47.8,47.8-47.8c26.4,0,47.8,21.5,47.8,47.8
	C352.9,1062.7,331.5,1084.2,305.1,1084.2z M305.1,991.5c-24.7,0-44.8,20.1-44.8,44.8c0,24.7,20.1,44.8,44.8,44.8
	c24.7,0,44.8-20.1,44.8-44.8C349.9,1011.6,329.8,991.5,305.1,991.5z"/>
<path class="st1" d="M332.3,1123c-6.2,0-11.2-5-11.2-11.2s5-11.2,11.2-11.2c6.2,0,11.2,5,11.2,11.2S338.5,1123,332.3,1123z
	 M332.3,1103.7c-4.5,0-8.2,3.7-8.2,8.2s3.7,8.2,8.2,8.2c4.5,0,8.2-3.7,8.2-8.2S336.8,1103.7,332.3,1103.7z"/>
<g>
	<circle class="st2" cx="1776.4" cy="1435.1" r="38.8"/>
	<path class="st1" d="M1798.9,1420.8c-0.4-0.6-1.1-0.8-1.7-0.4l-3.3,2.1c-4.7-6.5-10.8-6.9-15.2-4.1c-4.9,3.1-5.4,7.6-2.9,15.6
		l-15.7,10c-2.4-4.7-1.8-8.8,1.2-12.3c0.5-0.6,0.5-1.4,0.1-2c-0.6-0.9-1.9-1.1-2.7-0.2c-3.2,3.6-4.9,9-1.1,16.1l-4.7,3
		c-0.6,0.4-0.8,1.1-0.4,1.7c0.2,0.4,0.6,0.6,1.1,0.6c0.2,0,0.5-0.1,0.7-0.2l4.7-3c5.2,7.6,11.9,8.4,16.9,5.2
		c4.2-2.7,7.3-6.7,3.5-18.2l13.4-8.5c2.5,4.5,1.7,8.2-0.7,11c-0.5,0.6-0.5,1.4-0.1,2c0.6,0.9,2,1.1,2.7,0.2
		c2.9-3.3,4.3-8.6,0.7-14.9l3.3-2.1C1799.1,1422.2,1799.3,1421.4,1798.9,1420.8z M1780.7,1421.3c3.7-2.3,7.5-1.4,10.7,2.8l-12.8,8.1
		C1776.8,1426.4,1777.2,1423.5,1780.7,1421.3z M1773.8,1450.1c-3.7,2.4-8.4,2-12.4-3.9l15.2-9.7
		C1779,1444.6,1777.5,1447.7,1773.8,1450.1z"/>
	<path class="st1" d="M1810.4,1413.5c-0.8-1.2-1.6-2.4-2.5-3.5c-8.6-13-18.1-20.9-28.3-23.3c-9.3-2.2-19.3,0-29.7,6.7
		c-9.4,6-15.7,14.8-17.7,24.7c-2.2,10.9,0.7,23,8.4,35.3c0.6,1.1,1.2,2.3,1.9,3.4c7.7,12,20.7,18.6,34,18.6c7.4,0,14.9-2,21.5-6.3h0
		c9.1-5.8,15.4-14.7,17.7-25.2C1818,1433.4,1816.1,1422.6,1810.4,1413.5z M1734.6,1418.6c1.9-9.4,7.6-17.4,16.6-23.1
		c9.8-6.3,19.2-8.4,27.8-6.3c6.5,1.5,12.8,5.5,18.7,11.8c-12.7-7.9-29.4-8.4-42.9,0.2c-13.2,8.4-19.9,23.3-18.4,37.9
		C1733.9,1431.9,1733.3,1425,1734.6,1418.6z M1812.8,1443.2c-2.2,9.7-8,18-16.4,23.4c-17.3,11-40.4,5.9-51.4-11.4
		c-11-17.3-5.9-40.4,11.4-51.4c6.1-3.9,12.9-5.8,19.9-5.8c2.7,0,5.4,0.3,8.2,0.9c9.7,2.2,18,8,23.4,16.4
		C1813.2,1423.5,1814.9,1433.5,1812.8,1443.2z"/>
</g>
<g>
	<circle class="st2" cx="169.8" cy="1393.7" r="38.8"/>
	<path class="st1" d="M187.2,1397.4c-1.9-4.6-5.3-8.4-17.3-6.6l-6-14.6c4.9-1.6,8.3-0.3,10.7,2.6c0.5,0.6,1.3,0.8,2,0.5l0,0
		c1-0.4,1.4-1.7,0.7-2.6c-2.8-3.4-7.7-5.7-14.5-3.3l-1.5-3.6c-0.3-0.6-1-0.9-1.6-0.7c-0.6,0.3-0.9,1-0.7,1.6l1.5,3.6
		c-7.2,3.5-8.7,9.4-6.7,14.3c2.2,5.4,6.6,6.7,14.9,5.6l7.1,17.2c-5.1,1.5-9,0.2-11.9-3.3c-0.5-0.6-1.3-0.8-1.9-0.5
		c-1,0.4-1.4,1.7-0.7,2.6c3,3.8,8,6.4,15.6,3.9l2.1,5.1c0.2,0.5,0.7,0.8,1.2,0.8c0.2,0,0.3,0,0.5-0.1c0.6-0.3,0.9-1,0.7-1.6
		l-2.1-5.1C187.5,1409.4,189.5,1402.9,187.2,1397.4z M156.9,1387.1c-1.7-4-0.1-7.6,4.7-10l5.8,14
		C161.2,1391.8,158.5,1390.9,156.9,1387.1z M178.1,1410.5l-6.9-16.6c8.3-1,11.2,0.9,12.9,5.1C185.8,1403,184.6,1407.5,178.1,1410.5z
		"/>
	<path class="st1" d="M207,1378.3c-4.1-9.9-11.8-17.7-21.8-21.8c-9.9-4.1-20.9-4.1-30.8,0c-1.3,0.6-2.6,1.2-3.9,1.8
		c-14.3,6.2-23.7,14.1-27.9,23.8c-3.8,8.8-3.3,19,1.4,30.4c4.3,10.3,11.8,18.1,21.2,21.8c4.4,1.7,9.2,2.6,14.2,2.6
		c6.9,0,14.3-1.6,22-4.7c1.2-0.4,2.4-0.8,3.6-1.3C205.7,1422.4,215.5,1398.9,207,1378.3z M146.2,1432c-8.9-3.5-15.8-10.5-19.8-20.4
		c-4.4-10.8-4.9-20.3-1.4-28.5c2.7-6.2,7.6-11.6,14.8-16.3c-10,11.2-13.4,27.5-7.3,42.3c4.1,9.9,11.8,17.7,21.8,21.8
		c4,1.6,8.1,2.6,12.3,3C159.2,1435,152.3,1434.4,146.2,1432z M184,1428.1c-9.2,3.8-19.3,3.8-28.5,0c-9.2-3.8-16.3-11-20.1-20.2
		c-7.8-19,1.2-40.8,20.2-48.7c4.6-1.9,9.4-2.8,14.2-2.8c4.8,0,9.7,1,14.3,2.9c9.2,3.8,16.3,11,20.1,20.2
		C212.1,1398.5,203,1420.3,184,1428.1z"/>
</g>
<g>
	<circle class="st2" cx="632.5" cy="437.2" r="38.8"/>
	<path class="st1" d="M649.2,443.4c-1.2-4.9-4-9.1-16.1-9.2l-3.7-15.4c5.1-0.9,8.3,1,10.2,4.2c0.4,0.6,1.1,1,1.9,0.8
		c1.1-0.3,1.6-1.5,1.1-2.5c-2.2-3.8-6.7-6.8-13.9-5.5l-0.9-3.8c-0.2-0.7-0.8-1.1-1.5-0.9c-0.7,0.2-1.1,0.8-0.9,1.5l0.9,3.8
		c-7.7,2.4-10,8-8.8,13.1c1.4,5.6,5.5,7.6,13.8,7.8l4.4,18.1c-5.2,0.7-8.9-1.2-11.2-5.1c-0.4-0.6-1.1-0.9-1.8-0.8
		c-1.1,0.3-1.6,1.5-1.1,2.5c2.4,4.2,7,7.6,14.8,6.3l1.3,5.4c0.1,0.6,0.7,1,1.2,1c0.1,0,0.2,0,0.3,0c0.7-0.2,1.1-0.8,0.9-1.5
		l-1.3-5.4C647.7,455.4,650.6,449.3,649.2,443.4z M620.8,428.6c-1-4.2,1.1-7.6,6.1-9.2l3.6,14.7
		C624.4,433.9,621.8,432.6,620.8,428.6z M638.1,455l-4.2-17.5c8.4,0.3,10.9,2.6,12,7C646.9,448.8,645.1,453.1,638.1,455z"/>
	<path class="st1" d="M671.7,427.7L671.7,427.7c-2.5-10.5-9-19.3-18.2-24.9c-9.2-5.6-20-7.3-30.4-4.8c-1.4,0.3-2.8,0.8-4.1,1.2
		c-15.1,3.9-25.6,10.3-31.2,19.2c-5.1,8.1-6.2,18.3-3.3,30.3c2.6,10.9,8.9,19.7,17.6,24.8c6.1,3.5,13.2,5.3,21.2,5.3
		c4.7,0,9.7-0.6,15-1.9c1.2-0.2,2.5-0.4,3.7-0.7c10.5-2.5,19.3-9,24.9-18.2C672.5,449,674.2,438.1,671.7,427.7z M603.4,471.4
		c-8.3-4.8-14-12.8-16.5-23.2c-2.7-11.3-1.7-20.9,3-28.4c3.6-5.7,9.3-10.3,17.1-13.8c-3.5,2.8-6.4,6.3-8.8,10.2
		c-5.6,9.2-7.3,20-4.8,30.4c2.5,10.5,9,19.3,18.2,24.9c3.7,2.2,7.6,3.8,11.7,4.8C615.7,476.3,609,474.7,603.4,471.4z M664.4,456.6
		c-5.2,8.5-13.4,14.5-23,16.8c-9.7,2.3-19.7,0.8-28.2-4.4c-8.5-5.2-14.5-13.4-16.8-23c-2.3-9.7-0.8-19.7,4.4-28.2
		c5.2-8.5,13.4-14.5,23-16.8c2.9-0.7,5.9-1,8.8-1c16.8,0,32.1,11.5,36.2,28.5v0C671.1,438.1,669.5,448.1,664.4,456.6z"/>
</g>
</svg>
