<?xml version="1.0" encoding="utf-8"?>
<!-- Generator: Adobe Illustrator 19.0.0, SVG Export Plug-In . SVG Version: 6.00 Build 0)  -->
<svg version="1.0" id="Layer_1" xmlns="http://www.w3.org/2000/svg" xmlns:xlink="http://www.w3.org/1999/xlink" x="0px" y="0px"
	 viewBox="-37 1435.5 1364.7 541.5" style="enable-background:new -37 1435.5 1364.7 541.5;" xml:space="preserve">
<style type="text/css">
	.st0{opacity:0.37;fill:url(#XMLID_4_);enable-background:new    ;}
	.st1{opacity:0.67;fill:url(#XMLID_5_);enable-background:new    ;}
	.st2{fill:url(#XMLID_6_);}
	.st3{fill:url(#XMLID_7_);}
	.st4{enable-background:new    ;}
	.st5{fill:#6B26B0;}
	.st6{fill:#8E8E8E;}
	.st7{fill:none;stroke:#6B26B0;stroke-width:1.6845;stroke-miterlimit:10;}
	.st8{fill:#E3D0F7;stroke:#6B26B0;stroke-width:1.6845;stroke-miterlimit:10;}
	.st9{fill:#7D2DCE;}
	.st10{fill:#752BC5;}
	.st11{fill:#B880F9;}
	.st12{fill:#492E94;}
	.st13{opacity:0.13;fill:#6A3CE2;enable-background:new    ;}
	.st14{fill:#009EE3;}
	.st15{fill:#113984;}
	.st16{fill:#172C70;}
</style>
<linearGradient id="XMLID_4_" gradientUnits="userSpaceOnUse" x1="5.7" y1="1705.1499" x2="425.1" y2="1705.1499" gradientTransform="matrix(1 0 0 1 0 3)">
	<stop  offset="0" style="stop-color:#EAE8F2"/>
	<stop  offset="0" style="stop-color:#E9E6F2"/>
	<stop  offset="0.2634" style="stop-color:#D7C0EF"/>
</linearGradient>
<path id="XMLID_55_" class="st0" d="M405.3,1910.4H25.5c-10.9,0-19.8-8.9-19.8-19.8v-364.9c0-10.9,8.9-19.8,19.8-19.8h379.8
	c10.9,0,19.8,8.9,19.8,19.8v364.9C425.1,1901.6,416.3,1910.4,405.3,1910.4z"/>
<linearGradient id="XMLID_5_" gradientUnits="userSpaceOnUse" x1="39.4" y1="1705.2" x2="525.8" y2="1705.2" gradientTransform="matrix(1 0 0 1 0 3)">
	<stop  offset="0" style="stop-color:#EAE8F2"/>
	<stop  offset="0" style="stop-color:#E9E6F2"/>
	<stop  offset="0.2634" style="stop-color:#D7C0EF"/>
</linearGradient>
<path id="XMLID_54_" class="st1" d="M506,1927.9H59.2c-10.9,0-19.8-8.9-19.8-19.8v-399.8c0-10.9,8.9-19.8,19.8-19.8H506
	c10.9,0,19.8,8.9,19.8,19.8v399.8C525.8,1919,517,1927.9,506,1927.9z"/>
<linearGradient id="XMLID_6_" gradientUnits="userSpaceOnUse" x1="62.9033" y1="1526.6746" x2="668.0001" y2="1876.0273" gradientTransform="matrix(1 0 0 1 0 3)">
	<stop  offset="0.3925" style="stop-color:#EAE8F2"/>
	<stop  offset="0.5914" style="stop-color:#E9E6F2"/>
	<stop  offset="1" style="stop-color:#D7C0EF"/>
</linearGradient>
<path id="XMLID_53_" class="st2" d="M619.7,1942.9H111.2c-10.9,0-19.8-8.9-19.8-19.8v-437.5c0-10.9,8.9-19.8,19.8-19.8h508.5
	c10.9,0,19.8,8.9,19.8,19.8V1923C639.5,1934,630.7,1942.9,619.7,1942.9z"/>
<linearGradient id="XMLID_7_" gradientUnits="userSpaceOnUse" x1="743.4938" y1="1430.9312" x2="1291.9812" y2="1979.4187" gradientTransform="matrix(1 0 0 1 0 3)">
	<stop  offset="0" style="stop-color:#EAE8F2"/>
	<stop  offset="1" style="stop-color:#D7C0EF"/>
</linearGradient>
<path id="XMLID_52_" class="st3" d="M1327.7,1946.7H716c-10.9,0-19.8-8.9-19.8-19.8v-437.5c0-10.9,8.9-19.8,19.8-19.8h611.6
	L1327.7,1946.7L1327.7,1946.7z"/>
<g class="st4">
	<path class="st5" d="M790.7,1551.8l-10.9-15.7h-0.5c-1.3,0-2.8,0-4.5-0.1v15.8h-9.3V1510c2-0.4,4.2-0.8,6.5-1.1
		c2.3-0.3,4.6-0.4,6.9-0.4c6.2,0,10.8,1.1,13.9,3.4c3.1,2.2,4.6,5.7,4.6,10.4c0,3-0.7,5.6-2.2,7.7s-3.6,3.6-6.4,4.7l12.1,17.2
		L790.7,1551.8L790.7,1551.8z M774.7,1528.9c1.6,0.2,3.2,0.3,4.7,0.3c3.1,0,5.4-0.5,6.9-1.6s2.2-2.8,2.2-5.2c0-2.4-0.7-4.1-2.1-5.2
		s-3.6-1.6-6.6-1.6c-1.7,0-3.4,0.1-5.1,0.4L774.7,1528.9L774.7,1528.9z"/>
	<path class="st5" d="M830,1538.7h-19.2c0.1,1.7,0.5,3,1.1,4s1.6,1.7,2.9,2.1s3.1,0.7,5.4,0.7c2.4,0,5.1-0.3,8-1v6.9
		c-3.1,0.7-6.2,1.1-9.3,1.1c-4,0-7.3-0.6-9.9-1.7c-2.6-1.1-4.4-2.9-5.7-5.3c-1.2-2.4-1.9-5.5-1.9-9.4c0-3.5,0.6-6.4,1.7-8.9
		c1.1-2.4,2.8-4.3,5-5.5s4.9-1.9,8-1.9c4.5,0,7.9,1.4,10.2,4.2c2.3,2.8,3.5,6.9,3.5,12.3v2.4H830z M812.2,1527.3
		c-0.9,1.2-1.4,3.2-1.4,6h10.6c-0.1-2.8-0.5-4.8-1.4-6c-0.8-1.2-2.1-1.8-3.9-1.8C814.4,1525.6,813.1,1526.2,812.2,1527.3z"/>
	<path class="st5" d="M855.8,1520.2h9.1l-11.2,31.6h-11.6l-11.1-31.6h9.7l7.5,23.2L855.8,1520.2z"/>
	<path class="st5" d="M894.8,1538.7h-19.2c0.1,1.7,0.5,3,1.1,4s1.6,1.7,2.9,2.1s3.1,0.7,5.4,0.7c2.4,0,5.1-0.3,8-1v6.9
		c-3.1,0.7-6.2,1.1-9.3,1.1c-4,0-7.3-0.6-9.9-1.7c-2.6-1.1-4.4-2.9-5.7-5.3c-1.2-2.4-1.9-5.5-1.9-9.4c0-3.5,0.6-6.4,1.7-8.9
		c1.1-2.4,2.8-4.3,5-5.5s4.9-1.9,8-1.9c4.5,0,7.9,1.4,10.2,4.2c2.3,2.8,3.5,6.9,3.5,12.3v2.4H894.8z M877,1527.3
		c-0.9,1.2-1.4,3.2-1.4,6h10.6c-0.1-2.8-0.5-4.8-1.4-6c-0.8-1.2-2.1-1.8-3.9-1.8C879.2,1525.6,877.9,1526.2,877,1527.3z"/>
	<path class="st5" d="M899.9,1520.2h7.6l0.6,3.2h0.4c1.2-1.2,2.5-2.1,4.1-2.7s3.3-1,5.2-1c3.3,0,6,1,7.9,3s2.9,5.1,2.9,9.4v19.7
		h-9.3v-19.1c0-1.8-0.4-3.1-1.1-3.9c-0.8-0.8-1.9-1.1-3.3-1.1c-1.1,0-2.2,0.2-3.2,0.7c-1,0.4-1.9,1.1-2.6,1.9v21.6h-9.3
		L899.9,1520.2L899.9,1520.2z"/>
	<path class="st5" d="M938,1549.4c-2-2-2.9-5.1-2.9-9.4v-19.8h9.3v19.2c0,1.8,0.4,3.1,1.1,3.9c0.7,0.8,1.8,1.2,3.2,1.2
		c1,0,2.1-0.2,3.1-0.7s1.9-1.1,2.6-1.9v-21.6h9.3v31.6h-7.6l-0.6-3.2h-0.4c-1.2,1.2-2.6,2.2-4.1,2.8c-1.5,0.6-3.1,0.9-4.8,0.9
		C942.6,1552.4,939.9,1551.4,938,1549.4z"/>
	<path class="st5" d="M997.4,1538.7h-19.2c0.1,1.7,0.5,3,1.1,4s1.6,1.7,2.9,2.1s3.1,0.7,5.4,0.7c2.4,0,5.1-0.3,8-1v6.9
		c-3.1,0.7-6.2,1.1-9.3,1.1c-4,0-7.3-0.6-9.9-1.7c-2.6-1.1-4.4-2.9-5.7-5.3c-1.2-2.4-1.9-5.5-1.9-9.4c0-3.5,0.6-6.4,1.7-8.9
		c1.1-2.4,2.8-4.3,5-5.5c2.2-1.3,4.9-1.9,8-1.9c4.5,0,7.9,1.4,10.2,4.2s3.5,6.9,3.5,12.3v2.4H997.4z M979.6,1527.3
		c-0.9,1.2-1.4,3.2-1.4,6h10.6c-0.1-2.8-0.5-4.8-1.4-6c-0.8-1.2-2.1-1.8-3.9-1.8C981.8,1525.6,980.5,1526.2,979.6,1527.3z"/>
</g>
<g class="st4">
	<path class="st6" d="M764,1599v-26.6h5.9v21.8h12.2v4.9H764V1599z"/>
	<path class="st6" d="M797,1579.8c1.3,0.5,2.3,1.4,2.9,2.6c0.6,1.2,1,2.8,1,4.9v11.7h-4.8l-0.4-1.9h-0.3c-0.6,0.8-1.3,1.4-2.2,1.7
		s-1.9,0.6-3,0.6c-1.3,0-2.5-0.2-3.4-0.7c-1-0.5-1.7-1.1-2.2-2s-0.8-1.9-0.8-3c0-1.9,0.7-3.3,2-4.4s3.4-1.6,6.2-1.8l3.2-0.3v-0.3
		c0-0.9-0.1-1.6-0.4-2.1c-0.3-0.5-0.8-0.9-1.4-1.1c-0.6-0.2-1.5-0.3-2.6-0.3c-0.8,0-1.7,0.1-2.6,0.2c-1,0.1-1.9,0.3-2.7,0.6v-4.3
		c0.9-0.3,2-0.5,3.1-0.6s2.2-0.2,3.3-0.2C793.9,1579,795.7,1579.2,797,1579.8z M793.8,1595c0.5-0.2,1-0.5,1.5-0.9v-3.7l-2.6,0.2
		c-1.1,0.1-1.9,0.3-2.4,0.7c-0.5,0.4-0.7,1-0.7,1.7s0.2,1.3,0.7,1.7c0.4,0.4,1.1,0.6,1.9,0.6C792.7,1595.3,793.2,1595.2,793.8,1595z
		"/>
	<path class="st6" d="M804.5,1598.5v-4.2c1.9,0.6,4,0.9,6.2,0.9c1.2,0,2.2-0.2,2.7-0.5c0.6-0.3,0.8-0.8,0.8-1.4
		c0-0.5-0.1-0.9-0.4-1.1s-0.7-0.4-1.4-0.6l-3.2-0.6c-1.8-0.3-3.2-1-4-1.9c-0.9-0.9-1.3-2.2-1.3-3.8c0-1.3,0.3-2.4,1-3.3
		s1.7-1.7,3.1-2.2c1.4-0.5,3.1-0.8,5.2-0.8c0.9,0,1.9,0.1,2.8,0.2c0.9,0.1,1.8,0.3,2.5,0.5v4.2c-1.6-0.4-3.3-0.6-5.1-0.6
		c-2.7,0-4.1,0.7-4.1,2c0,0.4,0.1,0.8,0.4,1c0.3,0.3,0.7,0.5,1.4,0.6l3.2,0.6c1.8,0.3,3.2,1,4,1.8c0.9,0.9,1.3,2.2,1.3,3.8
		c0,1.3-0.3,2.4-1,3.4c-0.7,0.9-1.7,1.7-3,2.2s-2.9,0.8-4.8,0.8C808.4,1599.4,806.3,1599.1,804.5,1598.5z"/>
	<path class="st6" d="M834.8,1594.4v4.6c-1.2,0.3-2.4,0.4-3.6,0.4c-2.4,0-4.3-0.6-5.5-1.8c-1.3-1.2-1.9-3.1-1.9-5.6v-8.1h-3.2v-4.5
		h3.2l1-7h4.7v7h5.2v4.5h-5.2v7.2c0,0.9,0.1,1.6,0.3,2.1s0.6,0.9,1,1.1c0.5,0.2,1.1,0.3,1.8,0.3S833.9,1594.5,834.8,1594.4z"/>
	<path class="st6" d="M868.7,1572.3h7.1v26.6h-5.5V1580l-6.5,15H859l-6.5-14.5v18.4H847v-26.6h7.1l7.4,16.8L868.7,1572.3z"/>
	<path class="st6" d="M884.1,1598.2c-1.4-0.8-2.5-1.9-3.3-3.4s-1.2-3.4-1.2-5.6c0-3.4,0.8-5.9,2.5-7.6s4-2.6,7.1-2.6
		s5.4,0.9,7.1,2.6c1.7,1.7,2.5,4.3,2.5,7.6c0,2.2-0.4,4.1-1.2,5.7c-0.8,1.5-1.9,2.7-3.3,3.4c-1.4,0.8-3.1,1.1-5.1,1.1
		C887.2,1599.4,885.5,1599,884.1,1598.2z M891.3,1594.4c0.6-0.4,1-1,1.3-1.8s0.4-2,0.4-3.4c0-1.5-0.1-2.6-0.4-3.5
		c-0.3-0.9-0.7-1.5-1.3-1.8c-0.6-0.4-1.3-0.5-2.1-0.5s-1.5,0.2-2.1,0.5c-0.6,0.4-1,1-1.3,1.8s-0.4,2-0.4,3.4c0,1.5,0.1,2.6,0.4,3.5
		c0.3,0.9,0.7,1.5,1.3,1.8c0.6,0.4,1.3,0.5,2.1,0.5C890,1595,890.7,1594.8,891.3,1594.4z"/>
	<path class="st6" d="M902.2,1579.3h4.7l0.4,2h0.3c0.7-0.7,1.6-1.3,2.6-1.7c1-0.4,2.1-0.6,3.2-0.6c2.1,0,3.7,0.6,4.9,1.9
		c1.2,1.2,1.8,3.2,1.8,5.9v12.3h-5.8v-11.9c0-1.1-0.2-1.9-0.7-2.4s-1.2-0.7-2.1-0.7c-0.7,0-1.4,0.1-2,0.4s-1.2,0.7-1.6,1.2v13.4
		h-5.8L902.2,1579.3L902.2,1579.3z"/>
	<path class="st6" d="M936.6,1594.4v4.6c-1.2,0.3-2.4,0.4-3.6,0.4c-2.4,0-4.3-0.6-5.5-1.8c-1.3-1.2-1.9-3.1-1.9-5.6v-8.1h-3.2v-4.5
		h3.2l1-7h4.7v7h5.2v4.5h-5.2v7.2c0,0.9,0.1,1.6,0.3,2.1s0.6,0.9,1,1.1c0.5,0.2,1.1,0.3,1.8,0.3S935.7,1594.5,936.6,1594.4z"/>
	<path class="st6" d="M939.6,1569.9h5.8v11.4h0.3c0.7-0.7,1.5-1.3,2.4-1.7c0.9-0.4,1.9-0.6,3-0.6c1.9,0,3.5,0.6,4.7,1.9
		c1.2,1.2,1.8,3.2,1.8,5.9v12.3h-5.8v-11.9c0-1.2-0.2-2-0.7-2.4c-0.5-0.5-1.2-0.7-2.1-0.7c-0.7,0-1.3,0.1-2,0.4s-1.2,0.7-1.6,1.2
		v13.4h-5.8L939.6,1569.9L939.6,1569.9z"/>
</g>
<g class="st4">
	<path class="st6" d="M150.4,1571.6c2.1-0.4,4.2-0.6,6.2-0.6c3.1,0,5.4,0.6,6.9,1.8c1.5,1.2,2.3,3.1,2.3,5.6c0,2.4-0.7,4.3-2.2,5.5
		s-3.7,1.9-6.7,1.9c-0.4,0-1.1,0-2-0.1v6h-4.5V1571.6z M160.3,1581.5c0.7-0.6,1.1-1.6,1.1-3.1c0-1.4-0.4-2.4-1.1-3.1
		c-0.7-0.6-1.8-1-3.3-1c-0.8,0-1.5,0.1-2.1,0.2v7.8c0.7,0.1,1.4,0.1,2,0.1C158.5,1582.4,159.6,1582.1,160.3,1581.5z"/>
	<path class="st6" d="M177.2,1577c1,0.4,1.8,1.1,2.3,2s0.7,2.2,0.7,3.8v9h-3.7l-0.3-1.5H176c-0.4,0.6-1,1-1.7,1.3s-1.5,0.4-2.3,0.4
		c-1,0-1.9-0.2-2.6-0.5s-1.3-0.9-1.7-1.5s-0.6-1.4-0.6-2.3c0-1.5,0.5-2.6,1.5-3.4s2.6-1.3,4.8-1.4l2.5-0.2v-0.2
		c0-0.7-0.1-1.3-0.3-1.7s-0.6-0.7-1.1-0.9s-1.2-0.3-2-0.3c-0.6,0-1.3,0.1-2,0.2s-1.4,0.3-2.1,0.5v-3.3c0.7-0.2,1.5-0.4,2.4-0.5
		s1.7-0.2,2.5-0.2C174.9,1576.4,176.2,1576.6,177.2,1577z M174.7,1588.7c0.4-0.2,0.8-0.4,1.1-0.7v-2.8l-2,0.2
		c-0.8,0.1-1.4,0.3-1.8,0.6c-0.4,0.3-0.6,0.8-0.6,1.3c0,0.6,0.2,1,0.5,1.3s0.8,0.4,1.5,0.4C173.9,1589,174.3,1588.9,174.7,1588.7z"
		/>
	<path class="st6" d="M193.6,1576.6h4.4l-7.5,21.3h-4.4l2.2-6.1H187l-5.3-15.2h4.6l3.6,11.2L193.6,1576.6z"/>
	<path class="st6" d="M220.1,1577.8c0.9,1,1.4,2.5,1.4,4.5v9.4H217v-9.2c0-0.9-0.2-1.5-0.5-1.8s-0.8-0.6-1.4-0.6
		c-0.4,0-0.9,0.1-1.3,0.3s-0.8,0.4-1.1,0.8c0,0.3,0,0.6,0,1v9.6h-4.3v-9.2c0-0.9-0.2-1.5-0.5-1.9s-0.8-0.5-1.4-0.5
		c-0.5,0-0.9,0.1-1.4,0.3c-0.4,0.2-0.8,0.5-1.1,0.9v10.3h-4.4v-15.2h3.6l0.3,1.5h0.2c1.1-1.2,2.5-1.8,4.3-1.8c0.8,0,1.6,0.2,2.3,0.5
		s1.2,0.8,1.6,1.5c0.6-0.7,1.3-1.2,2.1-1.5s1.6-0.5,2.4-0.5C217.9,1576.4,219.2,1576.8,220.1,1577.8z"/>
	<path class="st6" d="M237.6,1585.5h-9.2c0,0.8,0.2,1.5,0.5,1.9c0.3,0.5,0.8,0.8,1.4,1s1.5,0.3,2.6,0.3c1.2,0,2.4-0.2,3.8-0.5v3.3
		c-1.5,0.3-3,0.5-4.5,0.5c-1.9,0-3.5-0.3-4.7-0.8s-2.1-1.4-2.7-2.6c-0.6-1.2-0.9-2.7-0.9-4.5c0-1.7,0.3-3.1,0.8-4.3
		c0.6-1.2,1.4-2.1,2.4-2.7c1.1-0.6,2.3-0.9,3.8-0.9c2.1,0,3.8,0.7,4.9,2c1.1,1.4,1.7,3.3,1.7,5.9L237.6,1585.5L237.6,1585.5z
		 M229,1580c-0.4,0.6-0.7,1.5-0.7,2.9h5.1c0-1.4-0.2-2.3-0.7-2.9c-0.4-0.6-1-0.9-1.9-0.9C230.1,1579.2,229.4,1579.5,229,1580z"/>
	<path class="st6" d="M240,1576.6h3.6l0.3,1.5h0.2c0.6-0.6,1.2-1,2-1.3s1.6-0.5,2.5-0.5c1.6,0,2.9,0.5,3.8,1.4
		c0.9,1,1.4,2.5,1.4,4.5v9.4h-4.4v-9.2c0-0.9-0.2-1.5-0.5-1.9c-0.4-0.4-0.9-0.5-1.6-0.5c-0.5,0-1,0.1-1.5,0.3
		c-0.5,0.2-0.9,0.5-1.2,0.9v10.3H240V1576.6z"/>
	<path class="st6" d="M266.5,1588.2v3.5c-0.9,0.2-1.9,0.3-2.8,0.3c-1.9,0-3.3-0.5-4.3-1.4s-1.4-2.4-1.4-4.3v-6.3h-2.5v-3.5h2.5
		l0.8-5.4h3.6v5.4h4v3.5h-4v5.6c0,0.7,0.1,1.2,0.3,1.6c0.2,0.4,0.4,0.7,0.8,0.9s0.8,0.3,1.4,0.3
		C265.3,1588.4,265.8,1588.3,266.5,1588.2z"/>
	<path class="st6" d="M287.9,1591.8l-5.2-7.5h-0.3c-0.6,0-1.4,0-2.1-0.1v7.6h-4.5v-20.1c1-0.2,2-0.4,3.1-0.5s2.2-0.2,3.3-0.2
		c3,0,5.2,0.5,6.7,1.6s2.2,2.7,2.2,5c0,1.5-0.4,2.7-1.1,3.7s-1.7,1.7-3.1,2.2l5.8,8.3H287.9z M280.3,1580.8c0.8,0.1,1.5,0.1,2.2,0.1
		c1.5,0,2.6-0.3,3.3-0.8s1.1-1.4,1.1-2.5s-0.3-2-1-2.5s-1.7-0.8-3.2-0.8c-0.8,0-1.6,0.1-2.4,0.2V1580.8z"/>
	<path class="st6" d="M306.8,1585.5h-9.2c0,0.8,0.2,1.5,0.5,1.9c0.3,0.5,0.8,0.8,1.4,1s1.5,0.3,2.6,0.3c1.2,0,2.4-0.2,3.8-0.5v3.3
		c-1.5,0.3-3,0.5-4.5,0.5c-1.9,0-3.5-0.3-4.7-0.8s-2.1-1.4-2.7-2.6s-0.9-2.7-0.9-4.5c0-1.7,0.3-3.1,0.8-4.3c0.6-1.2,1.4-2.1,2.4-2.7
		c1.1-0.6,2.3-0.9,3.8-0.9c2.1,0,3.8,0.7,4.9,2c1.1,1.4,1.7,3.3,1.7,5.9v1.4H306.8z M298.2,1580c-0.4,0.6-0.7,1.5-0.7,2.9h5.1
		c0-1.4-0.2-2.3-0.7-2.9c-0.4-0.6-1-0.9-1.9-0.9C299.3,1579.2,298.7,1579.5,298.2,1580z"/>
	<path class="st6" d="M310.5,1590.1c-1.3-1.3-2-3.3-2-5.9s0.7-4.6,2.1-5.9s3.5-1.9,6.2-1.9c1.3,0,2.4,0.1,3.4,0.3v3.5
		c-1-0.2-1.9-0.3-2.8-0.3c-1,0-1.9,0.1-2.5,0.4s-1.1,0.7-1.4,1.4c-0.3,0.6-0.5,1.4-0.5,2.4c0,1.5,0.3,2.6,1,3.3c0.7,0.7,1.7,1,3,1
		c0.5,0,1,0,1.4-0.1c0.5-0.1,1.1-0.2,1.7-0.4v3.5c-1.2,0.4-2.4,0.6-3.9,0.6C313.8,1592.1,311.9,1591.4,310.5,1590.1z"/>
	<path class="st6" d="M335.3,1585.5h-9.2c0,0.8,0.2,1.5,0.5,1.9c0.3,0.5,0.8,0.8,1.4,1s1.5,0.3,2.6,0.3c1.2,0,2.4-0.2,3.8-0.5v3.3
		c-1.5,0.3-3,0.5-4.5,0.5c-1.9,0-3.5-0.3-4.7-0.8s-2.1-1.4-2.7-2.6s-0.9-2.7-0.9-4.5c0-1.7,0.3-3.1,0.8-4.3c0.6-1.2,1.4-2.1,2.4-2.7
		c1.1-0.6,2.3-0.9,3.8-0.9c2.1,0,3.8,0.7,4.9,2c1.1,1.4,1.7,3.3,1.7,5.9v1.4H335.3z M326.8,1580c-0.4,0.6-0.7,1.5-0.7,2.9h5.1
		c0-1.4-0.2-2.3-0.7-2.9c-0.4-0.6-1-0.9-1.9-0.9C327.9,1579.2,327.2,1579.5,326.8,1580z"/>
	<path class="st6" d="M337.9,1573.8c-0.5-0.4-0.7-1-0.7-1.7s0.2-1.3,0.7-1.7c0.5-0.4,1.1-0.6,2.1-0.6c0.9,0,1.6,0.2,2.1,0.6
		s0.7,1,0.7,1.7s-0.2,1.3-0.7,1.7c-0.5,0.4-1.1,0.6-2.1,0.6C339.1,1574.4,338.4,1574.2,337.9,1573.8z M337.8,1591.8v-15.2h4.4v15.2
		H337.8z"/>
	<path class="st6" d="M355.7,1576.6h4.4l-5.4,15.2h-5.5l-5.3-15.2h4.6l3.6,11.1L355.7,1576.6z"/>
	<path class="st6" d="M374.4,1585.5h-9.2c0,0.8,0.2,1.5,0.5,1.9c0.3,0.5,0.8,0.8,1.4,1s1.5,0.3,2.6,0.3c1.2,0,2.4-0.2,3.8-0.5v3.3
		c-1.5,0.3-3,0.5-4.5,0.5c-1.9,0-3.5-0.3-4.7-0.8s-2.1-1.4-2.7-2.6s-0.9-2.7-0.9-4.5c0-1.7,0.3-3.1,0.8-4.3c0.6-1.2,1.4-2.1,2.4-2.7
		c1.1-0.6,2.3-0.9,3.8-0.9c2.1,0,3.8,0.7,4.9,2c1.1,1.4,1.7,3.3,1.7,5.9v1.4H374.4z M365.9,1580c-0.4,0.6-0.7,1.5-0.7,2.9h5.1
		c0-1.4-0.2-2.3-0.7-2.9c-0.4-0.6-1-0.9-1.9-0.9C366.9,1579.2,366.3,1579.5,365.9,1580z"/>
	<path class="st6" d="M379.2,1591.2c-0.9-0.5-1.7-1.4-2.2-2.5s-0.8-2.5-0.8-4.3c0-2.7,0.7-4.7,2.1-6.1s3.5-2.1,6.1-2.1
		c0.6,0,1.2,0,1.8,0.1v-7.1h4.4v22.4h-3.7l-0.3-1.6h-0.2c-0.4,0.6-1,1-1.7,1.4c-0.7,0.3-1.5,0.5-2.3,0.5
		C381.2,1592,380.2,1591.8,379.2,1591.2z M385.1,1588.2c0.4-0.2,0.8-0.4,1.1-0.8v-7.5c-0.5-0.1-1.1-0.2-1.7-0.2
		c-1.3,0-2.3,0.3-2.9,1s-0.9,1.8-0.9,3.4s0.3,2.7,0.8,3.3s1.3,1,2.3,1C384.2,1588.4,384.6,1588.3,385.1,1588.2z"/>
</g>
<circle id="XMLID_41_" class="st5" cx="1227.1" cy="1588.1" r="10.8"/>
<line id="XMLID_40_" class="st7" x1="1258.9" y1="1519.8" x2="1258.9" y2="1547.7"/>
<circle id="XMLID_39_" class="st8" cx="1258.9" cy="1538.7" r="3.5"/>
<line id="XMLID_38_" class="st7" x1="1269" y1="1547.7" x2="1269" y2="1519.8"/>
<circle id="XMLID_37_" class="st8" cx="1269" cy="1528.8" r="3.5"/>
<line id="XMLID_36_" class="st7" x1="1278.6" y1="1547.7" x2="1278.6" y2="1519.8"/>
<circle id="XMLID_35_" class="st8" cx="1278.6" cy="1535.9" r="3.5"/>
<circle id="XMLID_32_" class="st5" cx="774.1" cy="1882.1" r="12.5"/>
<g id="XMLID_29_">
	<g class="st4">
		<path class="st5" d="M848.9,1891.7v7.8h-28.1v-5.1l11.9-14.8c1.8-2.3,3.1-4.2,3.8-5.8c0.8-1.6,1.1-3.1,1.1-4.5
			c0-2-0.6-3.4-1.9-4.3c-1.2-0.9-3.2-1.4-6-1.4c-1.7,0-3.3,0.1-5,0.4s-3.2,0.7-4.5,1.2v-7.7c1.3-0.5,3-0.8,4.9-1.1
			c2-0.3,3.8-0.4,5.6-0.4c5.4,0,9.4,1,12.1,3c2.7,2,4,5.1,4,9.4c0,2.3-0.5,4.5-1.4,6.7s-2.5,4.6-4.7,7.3l-7.6,9.3H848.9z"/>
		<path class="st5" d="M854.6,1898.5c-1.1-1-1.6-2.4-1.6-4.1s0.5-3.1,1.6-4.1s2.5-1.5,4.4-1.5c1.8,0,3.3,0.5,4.4,1.5
			c1.1,1,1.6,2.4,1.6,4.1s-0.5,3.1-1.6,4.1s-2.5,1.5-4.4,1.5C857.2,1900,855.7,1899.5,854.6,1898.5z"/>
		<path class="st5" d="M901.6,1881.5c1.2,1.7,1.8,3.8,1.8,6.3c0,2.4-0.6,4.5-1.9,6.4s-3.2,3.3-5.7,4.4s-5.6,1.6-9.3,1.6
			c-3.8,0-7-0.5-9.6-1.4s-4.5-2.2-5.7-3.9c-1.2-1.7-1.9-3.6-1.9-5.9s0.7-4.3,2-6.1c1.3-1.8,3.2-3.2,5.7-4.2c-2.3-1.3-4-2.8-5-4.5
			s-1.5-3.7-1.5-6c0-2.4,0.6-4.5,1.9-6.2c1.2-1.8,3.1-3.2,5.5-4.2s5.4-1.5,9-1.5c3.2,0,5.9,0.4,8.2,1.3s4,2.1,5.2,3.7
			s1.8,3.5,1.8,5.8c0,2.1-0.5,4-1.6,5.7s-2.7,3.1-5,4.3C898.4,1878.2,900.4,1879.7,901.6,1881.5z M892.6,1892.2c1.3-0.9,2-2.2,2-3.9
			c0-1.2-0.3-2.1-0.9-2.9c-0.6-0.8-1.6-1.5-3-2.1s-3.4-1.3-6-1.9c-0.7-0.2-1.2-0.3-1.7-0.5c-1.6,0.8-2.8,1.8-3.7,3
			c-0.8,1.2-1.2,2.5-1.2,3.9c0,1.9,0.7,3.3,2.1,4.3c1.4,1,3.5,1.5,6.3,1.5C889.3,1893.6,891.3,1893.1,892.6,1892.2z M881.3,1864
			c-1.2,0.9-1.9,2.1-1.9,3.7c0,1.1,0.3,2.1,0.8,2.9s1.5,1.5,2.9,2.2s3.5,1.4,6.1,2.1c1.7-0.9,2.9-1.9,3.6-3.1
			c0.7-1.1,1.1-2.4,1.1-3.8c0-1.7-0.6-3-1.8-3.9s-3-1.4-5.4-1.4C884.4,1862.6,882.6,1863.1,881.3,1864z"/>
		<path class="st5" d="M935.3,1899.5l-12.2-17.7H919v17.7h-9.4v-42.8h9.4v16.8h4.1l11.2-16.8h9.9l-13.9,20.7l15.1,22.1L935.3,1899.5
			L935.3,1899.5z"/>
	</g>
</g>
<g id="XMLID_26_">
	<g class="st4">
		<path class="st5" d="M809.6,1876.6c-0.8,0.9-1.9,1.5-3.3,1.9v3h-3.6v-2.7c-0.7,0-1.4-0.1-2.1-0.2c-0.7-0.1-1.4-0.3-2-0.5v-3.2
			c0.7,0.2,1.6,0.4,2.4,0.5c0.9,0.1,1.7,0.2,2.4,0.2c1.2,0,2.1-0.2,2.6-0.5s0.8-0.9,0.8-1.5c0-0.4-0.1-0.7-0.2-0.9
			c-0.2-0.3-0.4-0.5-0.8-0.7c-0.4-0.2-0.9-0.4-1.6-0.5l-1.3-0.3c-1.6-0.4-2.8-1-3.6-1.9c-0.8-0.8-1.2-1.9-1.2-3.3
			c0-1.3,0.4-2.4,1.1-3.3c0.8-0.9,1.9-1.5,3.4-1.8v-3h3.6v2.7c1.3,0,2.5,0.2,3.6,0.5v3.2c-0.6-0.2-1.2-0.3-1.9-0.4s-1.4-0.1-2-0.1
			c-1.4,0-2.4,0.2-3,0.5c-0.6,0.4-0.9,0.9-0.9,1.5c0,0.4,0.1,0.7,0.2,0.9s0.4,0.5,0.7,0.6c0.3,0.2,0.8,0.3,1.4,0.5l1.4,0.3
			c1.7,0.4,3,1.1,3.8,1.9s1.2,1.9,1.2,3.3C810.7,1874.6,810.3,1875.7,809.6,1876.6z"/>
	</g>
</g>
<g class="st4">
	<path class="st9" d="M156.9,1553.1c-2.1-0.3-4-0.8-5.7-1.3v-7.6c1.8,0.6,3.8,1,5.9,1.4c2.1,0.3,4.2,0.5,6,0.5c2.8,0,4.8-0.4,6-1.3
		c1.2-0.8,1.9-2.1,1.9-3.7c0-0.9-0.2-1.7-0.6-2.3c-0.4-0.6-1-1.1-1.9-1.6s-2.1-0.9-3.7-1.3l-3.2-0.8c-3.8-0.9-6.7-2.4-8.6-4.4
		c-1.9-2-2.8-4.6-2.8-7.9c0-4.1,1.5-7.3,4.5-9.6c3-2.3,7.4-3.4,13.3-3.4c1.9,0,3.7,0.1,5.4,0.3c1.7,0.2,3.3,0.5,4.7,0.9v7.7
		c-1.4-0.4-2.9-0.8-4.6-1c-1.7-0.2-3.4-0.3-5-0.3c-3.2,0-5.5,0.4-6.9,1.3s-2.1,2.1-2.1,3.7c0,0.9,0.2,1.6,0.5,2.2s0.9,1.1,1.7,1.5
		s1.9,0.8,3.3,1.2l3.2,0.8c4.2,1,7.2,2.6,9.2,4.6s2.9,4.6,2.9,7.9c0,2.7-0.7,5.1-2.1,7.1c-1.4,2-3.3,3.5-5.9,4.6s-5.7,1.6-9.2,1.6
		C161,1553.6,158.9,1553.4,156.9,1553.1z"/>
	<path class="st9" d="M188,1550.6c-2-2-2.9-5.1-2.9-9.4v-19.8h9.3v19.2c0,1.8,0.4,3.1,1.1,3.9c0.7,0.8,1.8,1.2,3.2,1.2
		c1,0,2.1-0.2,3.1-0.7c1-0.4,1.9-1.1,2.6-1.9v-21.6h9.3v31.6h-7.6l-0.6-3.2h-0.4c-1.2,1.2-2.6,2.2-4.1,2.8s-3.1,0.9-4.8,0.9
		C192.6,1553.6,190,1552.6,188,1550.6z"/>
	<path class="st9" d="M223.2,1549.5c-2.8-2.7-4.2-6.8-4.2-12.3s1.5-9.6,4.5-12.3c3-2.7,7.3-4.1,12.9-4.1c2.6,0,5,0.2,7.1,0.7v7.3
		c-2-0.4-4-0.6-5.8-0.6c-2.1,0-3.9,0.3-5.2,0.9s-2.3,1.5-3,2.8c-0.6,1.3-1,3-1,5.1c0,3.2,0.7,5.5,2.1,6.9c1.4,1.4,3.5,2.1,6.3,2.1
		c1,0,2-0.1,3-0.2c1-0.2,2.2-0.4,3.6-0.8v7.3c-2.4,0.8-5.1,1.2-8,1.2C230.1,1553.6,226,1552.3,223.2,1549.5z"/>
	<path class="st9" d="M250.7,1549.5c-2.8-2.7-4.2-6.8-4.2-12.3s1.5-9.6,4.5-12.3c3-2.7,7.3-4.1,12.9-4.1c2.6,0,5,0.2,7.1,0.7v7.3
		c-2-0.4-4-0.6-5.8-0.6c-2.1,0-3.9,0.3-5.2,0.9c-1.3,0.6-2.3,1.5-3,2.8c-0.6,1.3-1,3-1,5.1c0,3.2,0.7,5.5,2.1,6.9s3.5,2.1,6.3,2.1
		c1,0,2-0.1,3-0.2c1-0.2,2.2-0.4,3.6-0.8v7.3c-2.4,0.8-5.1,1.2-8,1.2C257.6,1553.6,253.5,1552.3,250.7,1549.5z"/>
	<path class="st9" d="M302.4,1539.9h-19.2c0.1,1.7,0.5,3,1.1,4s1.6,1.7,2.9,2.1s3.1,0.7,5.4,0.7c2.4,0,5.1-0.3,8-1v6.9
		c-3.1,0.7-6.2,1.1-9.3,1.1c-4,0-7.3-0.6-9.9-1.7s-4.4-2.9-5.7-5.3c-1.2-2.4-1.9-5.5-1.9-9.4c0-3.5,0.6-6.4,1.7-8.9s2.8-4.3,5-5.5
		c2.2-1.3,4.9-1.9,8-1.9c4.5,0,7.9,1.4,10.2,4.2c2.3,2.8,3.5,6.9,3.5,12.3v2.4H302.4z M284.6,1528.5c-0.9,1.2-1.4,3.2-1.4,6h10.6
		c-0.1-2.8-0.5-4.8-1.4-6s-2.1-1.8-3.9-1.8C286.8,1526.7,285.5,1527.3,284.6,1528.5z"/>
	<path class="st9" d="M306.7,1552.2v-6.8c3.1,0.9,6.5,1.4,10,1.4c2,0,3.5-0.3,4.4-0.8s1.3-1.3,1.3-2.3c0-0.8-0.2-1.4-0.6-1.8
		s-1.2-0.7-2.2-0.9l-5.1-0.9c-2.9-0.5-5.1-1.6-6.5-3.1s-2.1-3.5-2.1-6.1c0-2.1,0.5-3.8,1.6-5.4s2.8-2.7,5-3.5s5-1.2,8.3-1.2
		c1.5,0,3,0.1,4.5,0.3c1.5,0.2,2.8,0.4,4,0.7v6.8c-2.6-0.7-5.3-1-8.2-1c-4.4,0-6.6,1.1-6.6,3.2c0,0.7,0.2,1.3,0.7,1.7
		s1.2,0.7,2.2,0.9l5.1,0.9c2.9,0.6,5.1,1.5,6.5,3s2.1,3.5,2.1,6.2c0,2.1-0.6,3.9-1.7,5.4s-2.7,2.7-4.9,3.5c-2.1,0.8-4.7,1.2-7.6,1.2
		C313.1,1553.6,309.7,1553.2,306.7,1552.2z"/>
	<path class="st9" d="M335,1552.2v-6.8c3.1,0.9,6.5,1.4,10,1.4c2,0,3.5-0.3,4.4-0.8s1.3-1.3,1.3-2.3c0-0.8-0.2-1.4-0.6-1.8
		s-1.2-0.7-2.2-0.9l-5.1-0.9c-2.9-0.5-5.1-1.6-6.5-3.1s-2.1-3.5-2.1-6.1c0-2.1,0.5-3.8,1.6-5.4s2.8-2.7,5-3.5s5-1.2,8.3-1.2
		c1.5,0,3,0.1,4.5,0.3c1.5,0.2,2.8,0.4,4,0.7v6.8c-2.6-0.7-5.3-1-8.2-1c-4.4,0-6.6,1.1-6.6,3.2c0,0.7,0.2,1.3,0.7,1.7
		s1.2,0.7,2.2,0.9l5.1,0.9c2.9,0.6,5.1,1.5,6.5,3s2.1,3.5,2.1,6.2c0,2.1-0.6,3.9-1.7,5.4s-2.7,2.7-4.9,3.5c-2.1,0.8-4.7,1.2-7.6,1.2
		C341.4,1553.6,338,1553.2,335,1552.2z"/>
</g>
<circle id="XMLID_18_" class="st9" cx="508.8" cy="1535.8" r="8.5"/>
<circle id="XMLID_17_" class="st9" cx="533" cy="1535.8" r="8.5"/>
<circle id="XMLID_15_" class="st9" cx="557.2" cy="1535.8" r="8.5"/>
<g class="st4">
	<path class="st10" d="M177.5,1692c-1.9,2.1-4.5,3.6-8,4.5v7.1h-8.7v-6.4c-1.7-0.1-3.4-0.3-5-0.5c-1.7-0.3-3.3-0.7-4.7-1.1v-7.7
		c1.8,0.6,3.7,1,5.9,1.3c2.1,0.3,4.1,0.5,5.8,0.5c2.9,0,5-0.4,6.3-1.3c1.3-0.8,1.9-2.1,1.9-3.7c0-0.9-0.2-1.7-0.6-2.3
		c-0.4-0.6-1-1.1-1.9-1.6s-2.1-0.9-3.7-1.3l-3.2-0.8c-3.8-0.9-6.7-2.4-8.6-4.4c-1.9-2-2.8-4.6-2.8-7.9c0-3.2,0.9-5.8,2.7-7.9
		s4.5-3.6,8.1-4.4v-7.1h8.7v6.4c3.2,0.1,6.1,0.5,8.5,1.1v7.6c-1.3-0.4-2.9-0.7-4.5-0.9c-1.7-0.2-3.3-0.3-4.8-0.3
		c-3.4,0-5.7,0.4-7.2,1.3c-1.4,0.9-2.1,2.1-2.1,3.7c0,0.9,0.2,1.6,0.5,2.2s0.9,1.1,1.7,1.5s1.9,0.8,3.3,1.2l3.2,0.8
		c4.2,1,7.2,2.6,9.2,4.6s2.9,4.6,2.9,7.9C180.3,1687.2,179.4,1689.8,177.5,1692z"/>
	<path class="st10" d="M226,1688.9v7.8h-28.1v-5.1l11.9-14.8c1.8-2.3,3.1-4.2,3.8-5.8c0.8-1.6,1.1-3.1,1.1-4.5c0-2-0.6-3.4-1.9-4.3
		c-1.2-0.9-3.2-1.4-6-1.4c-1.7,0-3.3,0.1-5,0.4s-3.2,0.7-4.5,1.2v-7.7c1.3-0.5,3-0.8,4.9-1.1c2-0.3,3.8-0.4,5.6-0.4
		c5.4,0,9.4,1,12.1,3s4,5.1,4,9.4c0,2.3-0.5,4.5-1.4,6.7s-2.5,4.6-4.7,7.3l-7.6,9.3H226z"/>
	<path class="st10" d="M250.2,1672.7c2.6,1,4.5,2.5,5.8,4.3c1.2,1.8,1.8,4.1,1.8,6.9c0,4.4-1.5,7.7-4.4,9.9
		c-2.9,2.3-7.2,3.4-12.9,3.4c-3.9,0-7.6-0.5-11.2-1.6v-7c1.6,0.5,3.4,0.8,5.3,1.1c1.9,0.3,3.7,0.4,5.5,0.4c3,0,5.2-0.5,6.6-1.5
		c1.4-1,2.1-2.5,2.1-4.5c0-1.4-0.4-2.5-1.1-3.4c-0.7-0.9-2-1.6-3.8-2.1s-4.4-0.8-7.7-1l-5.5-0.3l1.5-23.4h23.9v7.2h-15.5l-0.7,9.7
		C244.2,1671,247.6,1671.6,250.2,1672.7z"/>
	<path class="st10" d="M266.2,1691.8c-2.9-3.6-4.3-9.1-4.3-16.6s1.4-13,4.3-16.6s7-5.4,12.3-5.4s9.5,1.8,12.3,5.4
		c2.9,3.6,4.3,9.1,4.3,16.6s-1.4,13-4.3,16.6s-7,5.4-12.3,5.4C273.2,1697.2,269.1,1695.4,266.2,1691.8z M282.6,1688.1
		c1.1-0.9,1.9-2.4,2.5-4.5s0.9-4.9,0.9-8.4s-0.3-6.4-0.9-8.5s-1.4-3.6-2.5-4.5s-2.4-1.3-4-1.3s-3,0.4-4,1.3
		c-1.1,0.9-1.9,2.4-2.5,4.5s-0.9,4.9-0.9,8.4c0,3.6,0.3,6.4,0.9,8.5s1.4,3.6,2.5,4.5s2.4,1.3,4.1,1.3
		C280.2,1689.5,281.5,1689,282.6,1688.1z"/>
	<path class="st10" d="M299.7,1695.6c-1.1-1-1.6-2.4-1.6-4.1s0.5-3.1,1.6-4.1s2.5-1.5,4.4-1.5c1.8,0,3.3,0.5,4.4,1.5
		s1.6,2.4,1.6,4.1s-0.5,3.1-1.6,4.1s-2.5,1.5-4.4,1.5S300.8,1696.6,299.7,1695.6z"/>
	<path class="st10" d="M317.2,1691.8c-2.9-3.6-4.3-9.1-4.3-16.6s1.4-13,4.3-16.6s7-5.4,12.3-5.4s9.5,1.8,12.3,5.4
		c2.9,3.6,4.3,9.1,4.3,16.6s-1.4,13-4.3,16.6s-7,5.4-12.3,5.4C324.2,1697.2,320.1,1695.4,317.2,1691.8z M333.6,1688.1
		c1.1-0.9,1.9-2.4,2.5-4.5s0.9-4.9,0.9-8.4s-0.3-6.4-0.9-8.5s-1.4-3.6-2.5-4.5s-2.4-1.3-4-1.3s-3,0.4-4,1.3
		c-1.1,0.9-1.9,2.4-2.5,4.5s-0.9,4.9-0.9,8.4c0,3.6,0.3,6.4,0.9,8.5s1.4,3.6,2.5,4.5s2.4,1.3,4.1,1.3
		C331.2,1689.5,332.5,1689,333.6,1688.1z"/>
	<path class="st10" d="M355.9,1691.8c-2.9-3.6-4.3-9.1-4.3-16.6s1.4-13,4.3-16.6s7-5.4,12.3-5.4s9.5,1.8,12.3,5.4
		c2.9,3.6,4.3,9.1,4.3,16.6s-1.4,13-4.3,16.6s-7,5.4-12.3,5.4C362.9,1697.2,358.8,1695.4,355.9,1691.8z M372.3,1688.1
		c1.1-0.9,1.9-2.4,2.5-4.5s0.9-4.9,0.9-8.4s-0.3-6.4-0.9-8.5s-1.4-3.6-2.5-4.5s-2.4-1.3-4-1.3s-3,0.4-4,1.3
		c-1.1,0.9-1.9,2.4-2.5,4.5s-0.9,4.9-0.9,8.4c0,3.6,0.3,6.4,0.9,8.5s1.4,3.6,2.5,4.5s2.4,1.3,4.1,1.3
		C369.9,1689.5,371.2,1689,372.3,1688.1z"/>
</g>
<g class="st4">
	<path class="st11" d="M150.9,1761.7c2.7-0.5,5.4-0.8,8.1-0.8c4,0,7,0.8,9,2.3c2,1.6,3,4,3,7.3c0,3.2-1,5.6-2.9,7.2
		s-4.8,2.4-8.6,2.4c-0.5,0-1.4,0-2.6-0.1v7.8H151v-26.1H150.9z M163.8,1774.5c0.9-0.8,1.4-2.1,1.4-4c0-1.8-0.5-3.2-1.4-4
		s-2.4-1.3-4.3-1.3c-1,0-1.9,0.1-2.7,0.2v10.1c0.9,0.1,1.8,0.2,2.6,0.2C161.4,1775.8,162.9,1775.4,163.8,1774.5z"/>
	<path class="st11" d="M185.8,1768.7c1.3,0.5,2.3,1.4,2.9,2.6c0.6,1.2,1,2.8,1,4.9v11.7h-4.8l-0.4-1.9h-0.3
		c-0.6,0.8-1.3,1.4-2.2,1.7c-0.9,0.4-1.9,0.6-3,0.6c-1.3,0-2.5-0.2-3.4-0.7c-1-0.5-1.7-1.1-2.2-2s-0.8-1.9-0.8-3
		c0-1.9,0.7-3.3,2-4.4c1.3-1,3.4-1.6,6.2-1.8l3.2-0.3v-0.3c0-0.9-0.1-1.6-0.4-2.1c-0.3-0.5-0.8-0.9-1.4-1.1
		c-0.6-0.2-1.5-0.3-2.6-0.3c-0.8,0-1.7,0.1-2.6,0.2s-1.9,0.3-2.7,0.6v-4.3c0.9-0.3,2-0.5,3.1-0.6s2.2-0.2,3.3-0.2
		C182.7,1767.9,184.5,1768.1,185.8,1768.7z M182.6,1783.9c0.5-0.2,1-0.5,1.5-0.9v-3.7l-2.6,0.2c-1.1,0.1-1.9,0.3-2.4,0.7
		c-0.5,0.4-0.7,1-0.7,1.7s0.2,1.3,0.7,1.7c0.4,0.4,1.1,0.6,1.9,0.6C181.5,1784.2,182,1784.1,182.6,1783.9z"/>
	<path class="st11" d="M207,1768.2h5.7l-9.7,27.6h-5.7l2.8-7.9h-1.6l-6.9-19.7h6l4.6,14.6L207,1768.2z"/>
	<path class="st11" d="M241.4,1769.8c1.2,1.3,1.8,3.2,1.8,5.9v12.2h-5.7V1776c0-1.1-0.2-1.9-0.7-2.4s-1.1-0.7-1.9-0.7
		c-0.6,0-1.1,0.1-1.7,0.3c-0.5,0.2-1,0.6-1.4,1c0,0.4,0.1,0.8,0.1,1.3v12.4h-5.6V1776c0-1.1-0.2-1.9-0.6-2.4c-0.4-0.5-1-0.7-1.8-0.7
		c-0.6,0-1.2,0.1-1.8,0.4s-1.1,0.7-1.4,1.2v13.4h-5.8v-19.7h4.7l0.4,2h0.3c1.4-1.5,3.2-2.3,5.5-2.3c1.1,0,2.1,0.2,2.9,0.6
		c0.9,0.4,1.6,1.1,2.1,1.9c0.8-0.9,1.7-1.5,2.8-1.9c1-0.4,2.1-0.6,3.2-0.6C238.7,1767.9,240.2,1768.5,241.4,1769.8z"/>
	<path class="st11" d="M264.1,1779.7h-12c0.1,1.1,0.3,1.9,0.7,2.5s1,1,1.8,1.3s2,0.4,3.4,0.4c1.5,0,3.2-0.2,5-0.6v4.3
		c-1.9,0.4-3.8,0.7-5.8,0.7c-2.5,0-4.6-0.4-6.1-1.1c-1.6-0.7-2.8-1.8-3.5-3.3s-1.2-3.5-1.2-5.9c0-2.2,0.4-4,1.1-5.5
		c0.7-1.5,1.8-2.7,3.1-3.4c1.4-0.8,3-1.2,5-1.2c2.8,0,4.9,0.9,6.4,2.6c1.5,1.8,2.2,4.3,2.2,7.7v1.5H264.1z M253,1772.6
		c-0.6,0.7-0.8,2-0.9,3.7h6.6c0-1.8-0.3-3-0.8-3.8c-0.5-0.7-1.3-1.1-2.4-1.1C254.4,1771.5,253.6,1771.9,253,1772.6z"/>
	<path class="st11" d="M267.3,1768.2h4.7l0.4,2h0.3c0.7-0.7,1.6-1.3,2.6-1.7c1-0.4,2.1-0.6,3.2-0.6c2.1,0,3.7,0.6,4.9,1.9
		c1.2,1.3,1.8,3.2,1.8,5.9v12.3h-5.8v-11.9c0-1.1-0.2-1.9-0.7-2.4s-1.2-0.7-2.1-0.7c-0.7,0-1.4,0.1-2,0.4s-1.2,0.7-1.6,1.2v13.4
		h-5.8v-19.8H267.3z"/>
	<path class="st11" d="M301.7,1783.3v4.6c-1.2,0.3-2.4,0.4-3.6,0.4c-2.4,0-4.3-0.6-5.5-1.8c-1.3-1.2-1.9-3.1-1.9-5.6v-8.1h-3.2v-4.5
		h3.2l1-6.9h4.7v6.9h5.2v4.5h-5.2v7.2c0,0.9,0.1,1.6,0.3,2.1s0.6,0.9,1,1.1c0.5,0.2,1.1,0.3,1.8,0.3
		C300.2,1783.5,300.8,1783.4,301.7,1783.3z"/>
	<path class="st11" d="M313.8,1787.7v-25.9c1.2-0.3,2.6-0.5,4.1-0.6c1.5-0.2,2.9-0.2,4.3-0.2c4.9,0,8.6,1.1,11,3.3s3.7,5.7,3.7,10.3
		c0,3.2-0.6,5.8-1.7,7.8c-1.2,2-2.9,3.5-5.2,4.4c-2.3,0.9-5.3,1.4-8.9,1.4C318.6,1788.2,316.1,1788,313.8,1787.7z M327.3,1782.5
		c1.2-0.6,2.1-1.5,2.7-2.8s0.9-3,0.9-5.1s-0.3-3.8-0.9-5.1c-0.6-1.3-1.5-2.3-2.7-2.9s-2.7-0.9-4.6-0.9c-0.9,0-1.9,0.1-3,0.3v17.3
		c0.8,0.1,1.8,0.1,3,0.1C324.5,1783.4,326.1,1783.1,327.3,1782.5z"/>
	<path class="st11" d="M344.2,1787.1c-1.4-0.8-2.5-1.9-3.3-3.4s-1.2-3.4-1.2-5.6c0-3.4,0.8-5.9,2.5-7.6s4-2.6,7.1-2.6
		s5.4,0.9,7.1,2.6s2.5,4.3,2.5,7.6c0,2.2-0.4,4.1-1.2,5.7c-0.8,1.5-1.9,2.7-3.3,3.4c-1.4,0.8-3.1,1.1-5.1,1.1
		C347.3,1788.3,345.6,1787.9,344.2,1787.1z M351.4,1783.3c0.6-0.4,1-1,1.3-1.8s0.4-2,0.4-3.4c0-1.5-0.1-2.6-0.4-3.5
		s-0.7-1.5-1.3-1.8c-0.6-0.4-1.3-0.5-2.1-0.5c-0.8,0-1.5,0.2-2.1,0.5c-0.6,0.4-1,1-1.3,1.8s-0.4,2-0.4,3.4c0,1.5,0.1,2.6,0.4,3.5
		s0.7,1.5,1.3,1.8c0.6,0.4,1.3,0.5,2.1,0.5C350.1,1783.9,350.8,1783.7,351.4,1783.3z"/>
	<path class="st11" d="M362.3,1768.2h4.7l0.4,2h0.3c0.7-0.7,1.6-1.3,2.6-1.7c1-0.4,2.1-0.6,3.2-0.6c2.1,0,3.7,0.6,4.9,1.9
		c1.2,1.3,1.8,3.2,1.8,5.9v12.3h-5.8v-11.9c0-1.1-0.2-1.9-0.7-2.4s-1.2-0.7-2.1-0.7c-0.7,0-1.4,0.1-2,0.4s-1.2,0.7-1.6,1.2v13.4
		h-5.8v-19.8H362.3z"/>
	<path class="st11" d="M401.1,1779.7h-12c0.1,1.1,0.3,1.9,0.7,2.5c0.4,0.6,1,1,1.8,1.3s2,0.4,3.4,0.4c1.5,0,3.2-0.2,5-0.6v4.3
		c-1.9,0.4-3.8,0.7-5.8,0.7c-2.5,0-4.6-0.4-6.1-1.1c-1.6-0.7-2.8-1.8-3.5-3.3s-1.2-3.5-1.2-5.9c0-2.2,0.4-4,1.1-5.5s1.8-2.7,3.1-3.4
		c1.4-0.8,3-1.2,5-1.2c2.8,0,4.9,0.9,6.4,2.6c1.5,1.8,2.2,4.3,2.2,7.7v1.5H401.1z M390,1772.6c-0.6,0.7-0.8,2-0.9,3.7h6.6
		c0-1.8-0.3-3-0.8-3.8c-0.5-0.7-1.3-1.1-2.4-1.1C391.4,1771.5,390.6,1771.9,390,1772.6z"/>
	<path class="st11" d="M431.3,1761.2h5.7l-8.6,26.6h-8.7l-8.6-26.6h6.1l6.9,22.2L431.3,1761.2z"/>
	<path class="st11" d="M439.4,1764.5c-0.6-0.5-0.9-1.3-0.9-2.2c0-1,0.3-1.7,0.9-2.2s1.5-0.8,2.7-0.8s2.1,0.3,2.7,0.8
		s0.9,1.3,0.9,2.2c0,1-0.3,1.7-0.9,2.2s-1.5,0.8-2.7,0.8S440,1765.1,439.4,1764.5z M439.2,1787.9v-19.7h5.8v19.7H439.2z"/>
	<path class="st11" d="M461.4,1768.7c1.3,0.5,2.3,1.4,2.9,2.6s1,2.8,1,4.9v11.7h-4.8l-0.4-1.9h-0.3c-0.6,0.8-1.3,1.4-2.2,1.7
		c-0.9,0.4-1.9,0.6-3,0.6c-1.3,0-2.5-0.2-3.4-0.7c-1-0.5-1.7-1.1-2.2-2s-0.8-1.9-0.8-3c0-1.9,0.7-3.3,2-4.4c1.3-1,3.4-1.6,6.2-1.8
		l3.2-0.3v-0.3c0-0.9-0.1-1.6-0.4-2.1s-0.8-0.9-1.4-1.1s-1.5-0.3-2.6-0.3c-0.8,0-1.7,0.1-2.6,0.2s-1.9,0.3-2.7,0.6v-4.3
		c0.9-0.3,2-0.5,3.1-0.6s2.2-0.2,3.3-0.2C458.3,1767.9,460,1768.1,461.4,1768.7z M458.2,1783.9c0.5-0.2,1-0.5,1.5-0.9v-3.7l-2.6,0.2
		c-1.1,0.1-1.9,0.3-2.4,0.7c-0.5,0.4-0.7,1-0.7,1.7s0.2,1.3,0.7,1.7c0.4,0.4,1.1,0.6,1.9,0.6
		C457.1,1784.2,457.6,1784.1,458.2,1783.9z"/>
</g>
<g class="st4">
	<path class="st12" d="M369,1861.8c-1.4-1.8-2.2-4.6-2.2-8.3c0-3.7,0.7-6.5,2.2-8.3c1.4-1.8,3.5-2.7,6.2-2.7s4.7,0.9,6.2,2.7
		c1.4,1.8,2.2,4.6,2.2,8.3c0,3.7-0.7,6.5-2.2,8.3s-3.5,2.7-6.2,2.7S370.4,1863.6,369,1861.8z M377.2,1860c0.5-0.4,1-1.2,1.2-2.2
		c0.3-1,0.4-2.5,0.4-4.2c0-1.8-0.1-3.2-0.4-4.2s-0.7-1.8-1.2-2.2c-0.5-0.4-1.2-0.7-2-0.7s-1.5,0.2-2,0.7c-0.5,0.4-1,1.2-1.2,2.2
		c-0.3,1-0.4,2.5-0.4,4.2c0,1.8,0.1,3.2,0.4,4.3c0.3,1,0.7,1.8,1.2,2.2c0.5,0.4,1.2,0.7,2,0.7C376,1860.7,376.7,1860.4,377.2,1860z"
		/>
	<path class="st12" d="M403,1856.2v3.7h-2.8v4.4H396v-4.4h-10.5v-2.6l7.5-14.5h4.5l-6.8,13.4h5.3l0.5-6.2h3.8v6.2H403z"/>
	<path class="st12" d="M403.6,1867.8l6.9-27h4.6l-6.9,27H403.6z"/>
	<path class="st12" d="M422.1,1842.7h3.1v21.6h-4.7v-16l-4.9,3.4v-4.4L422.1,1842.7z"/>
	<path class="st12" d="M434.2,1842.7h3.1v21.6h-4.7v-16l-4.9,3.4v-4.4L434.2,1842.7z"/>
</g>
<path id="XMLID_3_" class="st13" d="M572.7,1879.8l19.3-6.5l-1.3,5.5c1.7,0.4,3.5,0.9,5.5,1.6c4.5,1.6,8.5,3.5,12.2,5.6l8-17
	c-3.8-2.4-8.4-4.4-13.6-5.8c-5.2-1.5-10.4-2.2-15.7-2.2c-5.7,0-10.8,0.9-15.1,2.7c-4.3,1.8-7.7,4.4-10.1,7.7
	c-2.4,3.4-3.5,7.3-3.5,11.7c0,4.6,1.1,8.3,3.5,11c2.3,2.7,5,4.8,8.2,6.1c3.2,1.3,7.1,2.6,11.8,3.8c1.3,0.3,2.4,0.6,3.5,0.9l1.3-5.3
	l15,11.8l-19.3,6.5l1-4.4c-2.5-0.5-5.2-1.3-8.3-2.6c-5.1-2.1-9.4-4.6-12.7-7.5l-8.2,16.8c4.4,3.4,9.6,6,15.7,8c6,1.9,12,2.9,18,2.9
	c5.2,0,10-0.8,14.3-2.4s7.7-4,10.2-7.3s3.8-7.4,3.8-12.2c0-4.7-1.2-8.5-3.5-11.4c-2.4-2.9-5.1-5-8.3-6.4c-3.2-1.3-7.1-2.7-11.9-4
	c-1.2-0.3-2.3-0.6-3.3-0.9l-1.2,5.2L572.7,1879.8z"/>
<path id="XMLID_2_" class="st13" d="M1269.6,1883.2l19.3-6.5l-1.3,5.5c1.7,0.4,3.5,0.9,5.5,1.6c4.5,1.6,8.5,3.5,12.2,5.6l8-17
	c-3.8-2.4-8.4-4.4-13.6-5.8c-5.2-1.5-10.4-2.2-15.7-2.2c-5.7,0-10.8,0.9-15.1,2.7c-4.3,1.8-7.7,4.4-10.1,7.7
	c-2.4,3.4-3.5,7.3-3.5,11.7c0,4.6,1.1,8.3,3.5,11c2.3,2.7,5,4.8,8.2,6.1c3.2,1.3,7.1,2.6,11.8,3.8c1.3,0.3,2.4,0.6,3.5,0.9l1.3-5.3
	l15,11.8l-19.3,6.5l1-4.4c-2.5-0.5-5.2-1.3-8.3-2.6c-5.1-2.1-9.4-4.6-12.7-7.5l-8.2,16.8c4.4,3.4,9.6,6,15.7,8c6,1.9,12,2.9,18,2.9
	c5.2,0,10-0.8,14.3-2.4s7.7-4,10.2-7.3s3.8-7.4,3.8-12.2c0-4.7-1.2-8.5-3.5-11.4c-2.4-2.9-5.1-5-8.3-6.4c-3.2-1.3-7.1-2.7-11.9-4
	c-1.2-0.3-2.3-0.6-3.3-0.9l-1.2,5.2L1269.6,1883.2z"/>
<path class="st5" d="M1327.7,1791.9c-20.2-15-31.4-40.7-42.6-62.3c-3.5-6.7-7-13-9.2-20.2c-2.3-7.5-4.2-15.1-6-22.7
	c-4.5-18.7-8.7-37.5-14.1-56c-4-13.8-8.3-30.4-18.2-41.5c-7.8-8.7-17.9-6.4-24,2.8c-8.7,13.1-11.8,30.5-15.1,45.6
	c-4.3,19.9-7.4,40-11,60c-1.5,8.5-3.1,16.9-5,25.3c-1.2,5.2-2.5,10.9-4.9,15.6c-5.3,10.1-14.7,21.1-27.3,17.6
	c-11-3-22.1-13.9-27.6-23.7c-6.5-11.6-10.8-24.4-16.6-36.4c-4.7-9.9-10.8-20.7-20.9-26.1c-21-11.2-37.1,10.8-45.8,27.2
	c-11.1,21-15.3,45.7-29.3,65.1c-7.6,10.5-18.7,16.4-31.8,14.7c-12.6-1.6-26.2-10.4-32-21.9c-3.2-6.4-4.5-13.8-5.9-20.8
	c-1.9-9.3-3.4-18.7-5.3-28c-1.7-8.6-3.6-17.3-6.8-25.5c-2.3-5.8-5.3-12.2-10.9-15.6c-13.7-8.3-24.1,8.8-29.2,18.9
	c-9.4,18.6-15.5,38.7-23.7,57.9c-2.7,6.3-5.5,13.8-10.4,18.8c-10.2,10.5-25.8,10.4-37.8,3.4c-10.1-5.9-17.1-15.6-24.5-24.5
	c-6.1-7.3-13-15.7-22.4-18.7c-10.7-3.4-20.4,3.2-27.1,11c-9.6,11.3-15.1,25.5-26.4,35.4c-6.1,5.4-12.8,10.4-19.7,15v9.5
	c8.2-5.3,16.1-11,23.5-17.2c11.7-9.8,17.5-23.1,26.6-34.9c6.8-8.8,15.8-15.5,26.2-8.5c8.8,5.9,15,15.6,21.7,23.5
	c7.5,8.8,16.3,16.8,27.6,20.4c12.6,4.1,26,1.4,36-7.2c5.5-4.7,8.7-11.5,11.6-17.9c4.1-9.1,7.6-18.4,11.2-27.7
	c3.8-9.8,7.5-19.7,11.9-29.2c3.2-6.8,6.7-15.1,12.6-20.1c11.1-9.4,17.4,13.6,19.3,20.4c4.7,17.6,6.5,35.8,11.1,53.5
	c1.9,7.2,4.4,13.4,9.3,19.1c9.2,10.7,21.8,18.1,36.1,18.9c26.3,1.4,39.6-21.5,48.3-42.9c8.4-20.7,14.4-45.3,31.2-61.2
	c7.7-7.3,16.8-8.4,25.2-1.4c9.4,7.9,14.2,20.7,18.8,31.7c5.2,12.2,9.8,24.6,18.7,34.6c7.1,8,16.3,16.2,27.1,18.3
	c19.3,3.6,33-15.2,37.7-31.6c4.8-16.5,7.2-33.8,10.1-50.7c3.4-19.7,6.7-39.6,11.9-58.9c1.9-7.3,4.1-14.8,7.4-21.6
	c1.8-3.6,4.6-8.8,7.9-9.8c1.3-0.4,2.4-0.2,3.8,0.6c1.6,1,3.1,2.6,4.3,4.2c4.1,5.4,6.7,12,9.1,18.3c6.6,17.7,10.9,36.2,15.3,54.6
	c3.7,15.7,6.8,31.8,12.3,47c3.1,8.5,7.9,16.3,12,24.3c6.5,12.5,13.1,25.1,21.3,36.6c6.7,9.4,14.6,18,24.4,24.3V1791.9z"/>
<g>
	<path class="st14" d="M171.3,1833.1h13.3c7.2,0,9.8,3.6,9.4,8.9c-0.7,8.8-6,13.6-13,13.6h-3.6c-1,0-1.6,0.6-1.9,2.4l-1.5,10.1
		c-0.1,0.7-0.4,1-1,1.1h-8.4c-0.8,0-1.1-0.6-0.9-1.9l5.1-32.3C169.2,1833.7,169.9,1833.1,171.3,1833.1z"/>
	<path class="st15" d="M229.2,1832.5c4.5,0,8.6,2.4,8.1,8.5c-0.7,7.2-4.6,11.2-10.7,11.2h-5.3c-0.8,0-1.1,0.6-1.3,1.9l-1,6.6
		c-0.2,1-0.7,1.5-1.4,1.5h-5c-0.8,0-1.1-0.5-0.9-1.6l4.1-26.3c0.2-1.3,0.7-1.8,1.6-1.8H229.2L229.2,1832.5z M221.1,1846.6h4
		c2.5-0.1,4.2-1.8,4.4-5c0.1-2-1.2-3.3-3.3-3.3l-3.8,0L221.1,1846.6L221.1,1846.6z M250.7,1860.2c0.5-0.4,0.9-0.6,0.8-0.1l-0.2,1.2
		c-0.1,0.6,0.2,1,0.8,1h4.4c0.7,0,1.1-0.3,1.3-1.4l2.7-17.1c0.1-0.9-0.1-1.3-0.7-1.3H255c-0.4,0-0.7,0.2-0.8,0.9l-0.2,1
		c-0.1,0.5-0.3,0.6-0.6,0.1c-0.8-1.9-2.9-2.8-5.8-2.8c-6.8,0.1-11.4,5.3-11.9,11.9c-0.4,5.1,3.3,9.1,8.1,9.1
		C247.4,1862.9,249,1861.8,250.7,1860.2L250.7,1860.2L250.7,1860.2z M247,1857.6c-2.9,0-5-2.3-4.5-5.2c0.4-2.9,3.2-5.2,6.1-5.2
		s5,2.3,4.5,5.2C252.7,1855.2,250,1857.6,247,1857.6L247,1857.6z M269.2,1842.4h-4.5c-0.9,0-1.3,0.7-1,1.5l5.6,16.3l-5.4,7.7
		c-0.5,0.6-0.1,1.2,0.5,1.2h5c0.6,0.1,1.2-0.2,1.5-0.7L288,1844c0.5-0.8,0.3-1.5-0.6-1.5h-4.8c-0.8,0-1.1,0.3-1.6,1l-7.1,10.3
		l-3.2-10.3C270.6,1842.8,270.1,1842.4,269.2,1842.4L269.2,1842.4z"/>
	<path class="st14" d="M305.8,1832.5c4.5,0,8.6,2.4,8.1,8.5c-0.7,7.2-4.6,11.2-10.7,11.2h-5.3c-0.8,0-1.1,0.6-1.3,1.9l-1,6.6
		c-0.2,1-0.7,1.5-1.4,1.5h-5c-0.8,0-1.1-0.5-0.9-1.6l4.1-26.3c0.2-1.3,0.7-1.8,1.6-1.8L305.8,1832.5L305.8,1832.5z M297.7,1846.6h4
		c2.5-0.1,4.2-1.8,4.4-5c0.1-2-1.2-3.3-3.3-3.3l-3.8,0L297.7,1846.6L297.7,1846.6z M327.3,1860.2c0.5-0.4,0.9-0.6,0.8-0.1l-0.2,1.2
		c-0.1,0.6,0.2,1,0.8,1h4.4c0.7,0,1.1-0.3,1.3-1.4l2.7-17.1c0.1-0.9-0.1-1.3-0.7-1.3h-4.8c-0.4,0-0.7,0.2-0.8,0.9l-0.2,1
		c-0.1,0.5-0.3,0.6-0.6,0.1c-0.8-1.9-2.9-2.8-5.8-2.8c-6.8,0.1-11.4,5.3-11.9,11.9c-0.4,5.1,3.3,9.1,8.1,9.1
		C324,1862.9,325.6,1861.8,327.3,1860.2L327.3,1860.2L327.3,1860.2z M323.6,1857.6c-2.9,0-5-2.3-4.5-5.2c0.4-2.9,3.2-5.2,6.1-5.2
		s5,2.3,4.5,5.2C329.3,1855.2,326.6,1857.6,323.6,1857.6L323.6,1857.6z M344,1862.3h-5.1c-0.3,0-0.6-0.2-0.6-0.6c0,0,0-0.1,0-0.1
		l4.5-28.3c0.1-0.4,0.4-0.7,0.8-0.7h5.1c0.3,0,0.6,0.2,0.6,0.6c0,0,0,0.1,0,0.1l-4.5,28.3C344.7,1862,344.4,1862.3,344,1862.3
		L344,1862.3z"/>
	<path class="st15" d="M163,1822h13.3c3.8,0,8.2,0.1,11.2,2.8c2,1.8,3,4.6,2.8,7.6c-0.8,10.2-6.9,15.9-15.1,15.9h-6.6
		c-1.1,0-1.9,0.7-2.2,2.8l-1.8,11.7c-0.1,0.8-0.4,1.2-1,1.3h-8.2c-0.9,0-1.2-0.7-1-2.2l5.9-37.5C160.5,1822.7,161.4,1822,163,1822z"
		/>
	<path class="st16" d="M166.7,1849.8l2.3-14.7c0.2-1.3,0.9-1.9,2.3-1.9h13.3c2.2,0,4,0.3,5.4,1c-1.3,9.1-7.2,14.1-14.9,14.1h-6.6
		C167.7,1848.2,167,1848.6,166.7,1849.8z"/>
</g>
</svg>
