<svg id="Group_88" data-name="Group 88" xmlns="http://www.w3.org/2000/svg" width="120" height="120" viewBox="0 0 120 120">
  <circle id="Ellipse_3" data-name="Ellipse 3" cx="60" cy="60" r="60" fill="#e4d6ff"/>
  <path id="home-solid" d="M25.022,42.427,8.558,55.987V70.621A1.429,1.429,0,0,0,9.987,72.05l10.006-.026A1.429,1.429,0,0,0,21.415,70.6V62.049a1.429,1.429,0,0,1,1.429-1.429h5.715a1.429,1.429,0,0,1,1.429,1.429v8.54a1.429,1.429,0,0,0,1.429,1.433l10,.028a1.429,1.429,0,0,0,1.429-1.429V55.977l-16.46-13.55a1.089,1.089,0,0,0-1.366,0Zm26.006,9.216L43.562,45.49V33.122a1.072,1.072,0,0,0-1.072-1.072h-5a1.072,1.072,0,0,0-1.072,1.072v6.484l-7.995-6.578a4.286,4.286,0,0,0-5.447,0L.374,51.643a1.072,1.072,0,0,0-.143,1.509l2.277,2.768a1.072,1.072,0,0,0,1.51.146l21-17.3a1.089,1.089,0,0,1,1.366,0l21.005,17.3a1.072,1.072,0,0,0,1.509-.143l2.277-2.768a1.072,1.072,0,0,0-.152-1.512Z" transform="translate(34.015 7.95)" fill="#613bea"/>
  <g id="Group_87" data-name="Group 87" transform="translate(60 25)">
    <circle id="Ellipse_4" data-name="Ellipse 4" cx="15" cy="15" r="15" fill="#fff"/>
    <path id="user-cog-solid" d="M11.924,7.291a2.291,2.291,0,0,0,0-.832l.5-.291A.141.141,0,0,0,12.492,6a2.931,2.931,0,0,0-.648-1.121.142.142,0,0,0-.176-.027l-.5.291a2.293,2.293,0,0,0-.721-.416V4.146a.142.142,0,0,0-.111-.139,2.947,2.947,0,0,0-1.293,0,.142.142,0,0,0-.111.139v.582a2.293,2.293,0,0,0-.721.416l-.5-.291a.143.143,0,0,0-.176.027A2.931,2.931,0,0,0,6.879,6a.144.144,0,0,0,.064.166l.5.291a2.291,2.291,0,0,0,0,.832l-.5.291a.141.141,0,0,0-.064.166,2.946,2.946,0,0,0,.648,1.121A.142.142,0,0,0,7.7,8.9l.5-.291a2.293,2.293,0,0,0,.721.416V9.6a.142.142,0,0,0,.111.139,2.947,2.947,0,0,0,1.293,0,.142.142,0,0,0,.111-.139V9.021a2.293,2.293,0,0,0,.721-.416l.5.291a.143.143,0,0,0,.176-.027,2.931,2.931,0,0,0,.648-1.121.144.144,0,0,0-.064-.166Zm-2.236.531a.947.947,0,1,1,.947-.947A.948.948,0,0,1,9.688,7.822ZM4.375,5a2.5,2.5,0,1,0-2.5-2.5A2.5,2.5,0,0,0,4.375,5ZM8.3,9.424c-.045-.023-.09-.051-.133-.076l-.154.09a.766.766,0,0,1-.947-.143,3.561,3.561,0,0,1-.785-1.359.764.764,0,0,1,.35-.893l.154-.09q0-.076,0-.152l-.154-.09a.763.763,0,0,1-.35-.893c.018-.057.043-.113.063-.17-.074-.006-.146-.023-.223-.023H5.8a3.4,3.4,0,0,1-2.848,0H2.625A2.626,2.626,0,0,0,0,8.25v.813A.938.938,0,0,0,.937,10H7.812a.936.936,0,0,0,.531-.166A.761.761,0,0,1,8.3,9.6Z" transform="translate(9 10)" fill="#613bea"/>
  </g>
</svg>
