<svg xmlns="http://www.w3.org/2000/svg" width="120" height="120" viewBox="0 0 120 120">
  <g id="Group_88" data-name="Group 88" transform="translate(-0.05)">
    <circle id="Ellipse_3" data-name="Ellipse 3" cx="60" cy="60" r="60" transform="translate(0.05)" fill="#e4d6ff"/>
    <path id="credit-card-solid" d="M0,67.714A4.287,4.287,0,0,0,4.286,72H47.143a4.287,4.287,0,0,0,4.286-4.286V52H0Zm17.143-6.071a1.075,1.075,0,0,1,1.071-1.071H30.357a1.075,1.075,0,0,1,1.071,1.071v3.571a1.075,1.075,0,0,1-1.071,1.071H18.214a1.075,1.075,0,0,1-1.071-1.071Zm-11.429,0a1.075,1.075,0,0,1,1.071-1.071h6.429a1.075,1.075,0,0,1,1.071,1.071v3.571a1.075,1.075,0,0,1-1.071,1.071H6.786a1.075,1.075,0,0,1-1.071-1.071ZM51.429,36.286v4.286H0V36.286A4.287,4.287,0,0,1,4.286,32H47.143A4.287,4.287,0,0,1,51.429,36.286Z" transform="translate(34.05 8)" fill="#613bea"/>
    <g id="Group_87" data-name="Group 87" transform="translate(60 25)">
      <circle id="Ellipse_4" data-name="Ellipse 4" cx="15" cy="15" r="15" transform="translate(0.05)" fill="#fff"/>
      <path id="check-solid" d="M3.4,72.409l-3.25-3.25a.5.5,0,0,1,0-.707l.707-.707a.5.5,0,0,1,.707,0L3.75,69.934,8.44,65.245a.5.5,0,0,1,.707,0l.707.707a.5.5,0,0,1,0,.707L4.1,72.409a.5.5,0,0,1-.707,0Z" transform="translate(10.05 -53.098)" fill="#613bea"/>
    </g>
  </g>
</svg>
