<svg xmlns="http://www.w3.org/2000/svg" xmlns:xlink="http://www.w3.org/1999/xlink" width="659.308" height="520.732" viewBox="0 0 659.308 520.732">
  <defs>
    <linearGradient id="linear-gradient" x1="0.5" y1="1" x2="0.5" gradientUnits="objectBoundingBox">
      <stop offset="0" stop-color="gray" stop-opacity="0.251"/>
      <stop offset="0.54" stop-color="gray" stop-opacity="0.122"/>
      <stop offset="1" stop-color="gray" stop-opacity="0.102"/>
    </linearGradient>
    <linearGradient id="linear-gradient-2" x1="0.5" y1="1" x2="0.5" y2="0" xlink:href="#linear-gradient"/>
    <linearGradient id="linear-gradient-3" x1="0.501" y1="1" x2="0.501" y2="0.003" xlink:href="#linear-gradient"/>
    <linearGradient id="linear-gradient-4" x1="0.5" y1="1" x2="0.5" y2="0" xlink:href="#linear-gradient"/>
  </defs>
  <g id="undraw_btc_p2p_lth5" transform="translate(-0.01 0.005)">
    <path id="Path_1" data-name="Path 1" d="M292.828,127.277c-8.27,4.305-16.554,9.726-20.764,18.043-3.095,6.121-3.659,13.14-4.169,19.968l-6.121,81.518c-1.36,18.166-2.85,36.835-10.78,53.239-13.663,28.259-43.412,44.384-65.747,66.434-36.6,36.134-52.308,97.045-24.824,140.518A91.23,91.23,0,0,0,213,545.853c12.745,3.469,26.062,4.081,39.256,4.672q165.778,7.189,331.78,5.767c13.14-.116,26.64-.34,38.766-5.332,16.751-6.89,28.789-22.056,37.08-38.161s13.6-33.591,21.444-49.914C697.38,429.56,723.5,402.4,746.253,373.267c12.548-16.051,24.294-33.06,31.34-52.172,11.2-30.374,9.243-66.1-8.263-93.339-7.563-11.773-17.86-21.968-23.008-34.978-7.189-18.193-3.176-38.569-1.462-58.055S744.7,92.992,729.7,80.431c-8.277-6.93-19.24-9.664-29.925-11.229-51.151-7.481-102.527,7.325-153.25,17.309-44.758,8.841-90.135,13.9-135.54,17.935C370.681,108.037,329.608,108.132,292.828,127.277Z" transform="translate(-125.251 -67.17)" fill="#613bea"/>
    <path id="Path_2" data-name="Path 2" d="M332.524,613.446s-19.8-67.216,3.713-116.687a106.115,106.115,0,0,0,8.583-66.6,178.546,178.546,0,0,0-9.426-31.285" transform="translate(-182.27 -173.278)" fill="none" stroke="#535461" stroke-miterlimit="10" stroke-width="2"/>
    <path id="Path_3" data-name="Path 3" d="M347.88,345.935c0,8.236-14.915,32.122-14.915,32.122s-14.915-23.886-14.915-32.122a14.915,14.915,0,1,1,29.83,0Z" transform="translate(-180.133 -151.573)" fill="#613bea"/>
    <path id="Path_4" data-name="Path 4" d="M384.059,409.17c-4.475,6.917-29.979,18.86-29.979,18.86s.462-28.157,4.938-35.074a14.916,14.916,0,1,1,25.042,16.214Z" transform="translate(-191.659 -169.207)" fill="#613bea"/>
    <path id="Path_5" data-name="Path 5" d="M379.946,521.4c-7.352,3.707-35.366,1.149-35.366,1.149s14.568-24.056,21.934-27.783A14.915,14.915,0,1,1,379.946,521.4Z" transform="translate(-188.62 -203.442)" fill="#613bea"/>
    <path id="Path_6" data-name="Path 6" d="M359.536,608.5c-6.624,4.9-34.686,7.114-34.686,7.114s10.338-26.2,16.955-31.095A14.914,14.914,0,1,1,359.543,608.5Z" transform="translate(-182.309 -231.727)" fill="#613bea"/>
    <path id="Path_7" data-name="Path 7" d="M305.873,438.063c5.91,5.74,33.434,11.684,33.434,11.684s-6.74-27.341-12.65-33.081a14.915,14.915,0,1,0-20.784,21.4Z" transform="translate(-174.791 -177.622)" fill="#613bea"/>
    <path id="Path_8" data-name="Path 8" d="M281.2,538.27c7.352,3.707,35.366,1.149,35.366,1.149s-14.616-24.076-21.968-27.783a14.915,14.915,0,1,0-13.432,26.634Z" transform="translate(-165.71 -208.838)" fill="#613bea"/>
    <path id="Path_9" data-name="Path 9" d="M273.433,640.555c6.624,4.9,34.686,7.114,34.686,7.114s-10.338-26.2-16.955-31.095a14.914,14.914,0,1,0-17.738,23.982Z" transform="translate(-163.924 -241.983)" fill="#613bea"/>
    <path id="Path_10" data-name="Path 10" d="M347.88,345.935c0,8.236-14.915,32.122-14.915,32.122s-14.915-23.886-14.915-32.122a14.915,14.915,0,1,1,29.83,0Z" transform="translate(-180.133 -151.573)" opacity="0.25"/>
    <path id="Path_11" data-name="Path 11" d="M384.059,409.17c-4.475,6.917-29.979,18.86-29.979,18.86s.462-28.157,4.938-35.074a14.916,14.916,0,1,1,25.042,16.214Z" transform="translate(-191.659 -169.207)" opacity="0.25"/>
    <path id="Path_12" data-name="Path 12" d="M379.946,521.4c-7.352,3.707-35.366,1.149-35.366,1.149s14.568-24.056,21.934-27.783A14.915,14.915,0,1,1,379.946,521.4Z" transform="translate(-188.62 -203.442)" opacity="0.25"/>
    <path id="Path_13" data-name="Path 13" d="M359.536,608.5c-6.624,4.9-34.686,7.114-34.686,7.114s10.338-26.2,16.955-31.095A14.914,14.914,0,1,1,359.543,608.5Z" transform="translate(-182.309 -231.727)" opacity="0.25"/>
    <path id="Path_14" data-name="Path 14" d="M305.873,438.063c5.91,5.74,33.434,11.684,33.434,11.684s-6.74-27.341-12.65-33.081a14.915,14.915,0,1,0-20.784,21.4Z" transform="translate(-174.791 -177.622)" opacity="0.25"/>
    <path id="Path_15" data-name="Path 15" d="M281.2,538.27c7.352,3.707,35.366,1.149,35.366,1.149s-14.616-24.076-21.968-27.783a14.915,14.915,0,1,0-13.432,26.634Z" transform="translate(-165.71 -208.838)" opacity="0.25"/>
    <path id="Path_16" data-name="Path 16" d="M273.433,640.555c6.624,4.9,34.686,7.114,34.686,7.114s-10.338-26.2-16.955-31.095a14.914,14.914,0,1,0-17.738,23.982Z" transform="translate(-163.924 -241.983)" opacity="0.25"/>
    <path id="Path_17" data-name="Path 17" d="M890.9,560.309s-19.8-67.209,3.693-116.68a106.114,106.114,0,0,0,8.583-66.6,178.543,178.543,0,0,0-9.426-31.285" transform="translate(-360.886 -156.282)" fill="none" stroke="#535461" stroke-miterlimit="10" stroke-width="2"/>
    <path id="Path_18" data-name="Path 18" d="M906.26,292.795c0,8.236-14.915,32.122-14.915,32.122s-14.915-23.886-14.915-32.122a14.915,14.915,0,1,1,29.83,0Z" transform="translate(-358.751 -134.575)" fill="#613bea"/>
    <path id="Path_19" data-name="Path 19" d="M942.439,356.07c-4.475,6.917-29.979,18.859-29.979,18.859s.462-28.157,4.938-35.073A14.916,14.916,0,1,1,942.44,356.07Z" transform="translate(-370.277 -152.221)" fill="#613bea"/>
    <path id="Path_20" data-name="Path 20" d="M938.366,468.157c-7.352,3.707-35.366,1.149-35.366,1.149s14.616-24.076,21.968-27.783a14.915,14.915,0,1,1,13.4,26.633Z" transform="translate(-367.251 -186.34)" fill="#613bea"/>
    <path id="Path_21" data-name="Path 21" d="M917.916,555.345c-6.624,4.9-34.686,7.114-34.686,7.114s10.338-26.2,16.955-31.095a14.913,14.913,0,1,1,17.732,23.983Z" transform="translate(-360.927 -214.725)" fill="#613bea"/>
    <path id="Path_22" data-name="Path 22" d="M864.281,384.942c5.91,5.74,33.434,11.684,33.434,11.684s-6.74-27.327-12.63-33.1a14.929,14.929,0,1,0-20.8,21.417Z" transform="translate(-353.417 -160.621)" fill="#613bea"/>
    <path id="Path_23" data-name="Path 23" d="M839.592,485.13c7.352,3.707,35.366,1.149,35.366,1.149S860.37,462.2,853.025,458.5a14.915,14.915,0,1,0-13.432,26.634Z" transform="translate(-344.344 -191.839)" fill="#613bea"/>
    <path id="Path_24" data-name="Path 24" d="M831.813,587.415c6.624,4.9,34.686,7.114,34.686,7.114s-10.338-26.2-16.955-31.095a14.914,14.914,0,1,0-17.738,23.982Z" transform="translate(-342.542 -224.984)" fill="#613bea"/>
    <path id="Path_25" data-name="Path 25" d="M906.26,292.795c0,8.236-14.915,32.122-14.915,32.122s-14.915-23.886-14.915-32.122a14.915,14.915,0,1,1,29.83,0Z" transform="translate(-358.751 -134.575)" opacity="0.25"/>
    <path id="Path_26" data-name="Path 26" d="M942.439,356.07c-4.475,6.917-29.979,18.859-29.979,18.859s.462-28.157,4.938-35.073A14.916,14.916,0,1,1,942.44,356.07Z" transform="translate(-370.277 -152.221)" opacity="0.25"/>
    <path id="Path_27" data-name="Path 27" d="M938.366,468.157c-7.352,3.707-35.366,1.149-35.366,1.149s14.616-24.076,21.968-27.783a14.915,14.915,0,1,1,13.4,26.633Z" transform="translate(-367.251 -186.34)" opacity="0.25"/>
    <path id="Path_28" data-name="Path 28" d="M917.916,555.345c-6.624,4.9-34.686,7.114-34.686,7.114s10.338-26.2,16.955-31.095a14.913,14.913,0,1,1,17.732,23.983Z" transform="translate(-360.927 -214.725)" opacity="0.25"/>
    <path id="Path_29" data-name="Path 29" d="M864.281,384.942c5.91,5.74,33.434,11.684,33.434,11.684s-6.74-27.327-12.63-33.1a14.929,14.929,0,1,0-20.8,21.417Z" transform="translate(-353.417 -160.621)" opacity="0.25"/>
    <path id="Path_30" data-name="Path 30" d="M839.592,485.13c7.352,3.707,35.366,1.149,35.366,1.149S860.37,462.2,853.025,458.5a14.915,14.915,0,1,0-13.432,26.634Z" transform="translate(-344.344 -191.839)" opacity="0.25"/>
    <path id="Path_31" data-name="Path 31" d="M831.813,587.415c6.624,4.9,34.686,7.114,34.686,7.114s-10.338-26.2-16.955-31.095a14.914,14.914,0,1,0-17.738,23.982Z" transform="translate(-342.542 -224.984)" opacity="0.25"/>
    <g id="Group_91" data-name="Group 91" transform="translate(0.214 519.396)" opacity="0.1">
      <path id="Path_32" data-name="Path 32" d="M115.961,832.193c7.549-2.72.925-.5-.381-.068A.979.979,0,0,0,115.961,832.193Z" transform="translate(-115.58 -830.861)" fill="aqua"/>
    </g>
    <g id="Group_92" data-name="Group 92" transform="translate(0.01 520.592)" opacity="0.1">
      <path id="Path_33" data-name="Path 33" d="M115.484,832.681l-.2-.061v.136Z" transform="translate(-115.28 -832.62)" fill="aqua"/>
    </g>
    <path id="Path_34" data-name="Path 34" d="M794.344,542.948a.512.512,0,0,1,.048-.258c.048-.088,0-.048,0-.068a3.148,3.148,0,0,0,0-.51s-.911-1.748-1.972-4.149h0c-1.449-3.3-3.169-7.835-3.169-10.807,0,0-15.894-55.62-26.64-61.693,0,0-8.841-15.745-8.746-24.607a50.11,50.11,0,0,0-.68-8.454c-1.571-9.773-4.19-28.483-1.8-31.9,3.04-4.346,8.107-23.253-3.992-37.529l2.122-.326s-.116-.143-.306-.422l.306-.048s-4.679-5.618-4.679-18.03c.068-7.148,1.68-16.486,6.549-28.245q.966-2.339,1.768-4.632a23.278,23.278,0,0,0,6.121-4.407l.218-.224.252-.238c4.468-4.489,7.175-10.447,9.059-16.493a78.529,78.529,0,0,0,3.3-17.091,161.714,161.714,0,0,0,0-18.955c-.306-7.372-.68-14.963-3.632-21.689-1.163-2.632-2.721-5.121-3.435-7.91a46.308,46.308,0,0,1-.823-5.8,31.01,31.01,0,0,0-10.521-19.948c-5.931-4.9-14.221-7.087-21.641-5.033-4.244,1.177-8.032,3.611-11.562,6.277a39.094,39.094,0,0,0-4.271,3.734c-4.264,4.183-7.481,9.664-4.394,15.425q.34.626.728,1.224a21.029,21.029,0,0,0,9.909,30.653l.551.966h.061c1.612,2.979,3.366,6.7,3.829,9.522a29.29,29.29,0,0,0-5.441,5.026A98.249,98.249,0,0,0,711.3,280.226a49.645,49.645,0,0,1-5.393,7.583c-2.5,2.952-5.441,8.712-5.441,19.431v2.442c-13.174,14.344-64.55,3.829-64.55,3.829-6.189-2.408-13.391.5-16.765,2.2a2.04,2.04,0,0,0-.68,3.122c5.441,6.556,18.826,2.625,18.826,2.625s48.139,8.413,51.879,11.215c2.544,1.911,7.039.354,9.651-.837l-.537.605.68-.333-3.7,33.278h.054l-.054.469s.857-.075,2.224-.17l1.143,2.958h-.1l1.183,2.8h0l.973,2.306c-2.9,10.5-14.609,53.729-13.378,63.6,0,0-7.481,17.758-4.672,27.579,0,0-10.283,73.847-16.826,77.587l.918.415c-6.985,3.992-22.2,11.5-32.7,8,0,0-6.543,1.87,3.741,8.413,0,0,42.065,11.215,47.676,7.481l-.932-16.166.476.17c.068-.911.68-7.6,3.265-10.644,0,0,16.826-45.806,15.894-69.174l15.7-37.95a43.64,43.64,0,0,0,5.325,10.379l6.543,16.826,10.753,14.024s33.652,53.28,31.285,69.174l.789.2c-3.149,5.6-10.984,17.091-22.294,17.091,0,0-9.814,10.283,8.413,8.882,0,0,22.9-1.4,39.726-10.753Z" transform="translate(-276.087 -107.329)" fill="url(#linear-gradient)"/>
    <path id="Path_35" data-name="Path 35" d="M684.454,701.33s-21.634,14.425-35.155,9.916c0,0-6.312,1.8,3.6,8.114,0,0,40.569,10.821,45.976,7.209l-1.36-23.437Z" transform="translate(-285.462 -270.031)" fill="#333"/>
    <path id="Path_36" data-name="Path 36" d="M839.691,700.086s-8.563,19.383-22.988,19.383c0,0-9.467,9.916,8.114,8.563,0,0,22.083-1.36,38.311-10.365l-7.76-20.227Z" transform="translate(-338.831 -268.786)" fill="#333"/>
    <path id="Path_37" data-name="Path 37" d="M623.1,377.718l3.4,8.794,22.07-1.578-2.258-14.874Z" transform="translate(-199.318 -118.379)" fill="#fdb797"/>
    <path id="Path_38" data-name="Path 38" d="M729.547,461.42s-14.874,52.763-13.521,63.557c0,0-7.209,17.125-4.509,26.592,0,0-9.916,71.215-16.228,74.813,0,0,18.363,8.311,18.928,8.114,6.311-2.251-.449,0-.449,0s.449-7.209,3.156-10.365c0,0,16.228-44.173,15.323-66.706l21.634-52.287Z" transform="translate(-300.807 -193.287)" fill="#252a62"/>
    <path id="Path_39" data-name="Path 39" d="M729.547,461.42s-14.874,52.763-13.521,63.557c0,0-7.209,17.125-4.509,26.592,0,0-9.916,71.215-16.228,74.813,0,0,18.363,8.311,18.928,8.114,6.311-2.251-.449,0-.449,0s.449-7.209,3.156-10.365c0,0,16.228-44.173,15.323-66.706l21.634-52.287Z" transform="translate(-300.807 -193.287)" opacity="0.1"/>
    <path id="Path_40" data-name="Path 40" d="M741.69,453.406l9.916,23.437s7.665,38.311,15.779,48.676l6.312,16.227,10.372,13.527s32.455,51.383,30.2,66.706c0,0,20.281,5.441,19.832-1.36,0,0-4.958-9.467-4.958-14.425,0,0-15.323-53.634-25.695-59.5,0,0-8.515-15.187-8.433-23.729a48.345,48.345,0,0,0-.68-8.161c-1.517-9.426-4.04-27.463-1.727-30.762,3.156-4.509,8.563-25.239-6.76-39.215Z" transform="translate(-315.65 -187.98)" fill="#252a62"/>
    <path id="Path_41" data-name="Path 41" d="M853.616,620.639s-4.958-9.467-4.958-14.425c0,0-15.323-53.634-25.695-59.5,0,0-8.515-15.187-8.433-23.729a48.333,48.333,0,0,0-.68-8.161c-1.517-9.426-4.04-27.463-1.727-30.762,3.156-4.509,8.563-25.239-6.76-39.215l-2.612.51c14.65,13.963,9.338,34.25,6.223,38.705s2.72,36.509,2.72,36.509c-2.251,7.665,8.114,26.144,8.114,26.144,10.365,5.863,25.695,59.5,25.695,59.5,0,4.958,4.958,14.425,4.958,14.425.15,2.231-1.966,3.135-4.863,3.346C849.964,624.237,853.82,623.625,853.616,620.639Z" transform="translate(-335.182 -187.986)" opacity="0.1"/>
    <path id="Path_42" data-name="Path 42" d="M772.17,279.79s8.563,13.072,6.311,17.125l22.083-5.441s-5.863-6.311-4.509-21.634Z" transform="translate(-325.4 -132.003)" fill="#fdb797"/>
    <path id="Path_43" data-name="Path 43" d="M792.47,298.13s-18.479-4.081-30.2,9.916a94.9,94.9,0,0,0-9.8,13.425,47.87,47.87,0,0,1-5.2,7.311c-2.931,3.462-6.522,10.923-4.836,26.137L737,403.595s15.779-1.36,19.832,0,32.455-3.156,32.455-3.156-11.27-13.521,1.8-45.071S792.47,298.13,792.47,298.13Z" transform="translate(-314.15 -140.875)" opacity="0.1"/>
    <path id="Path_44" data-name="Path 44" d="M792.47,297.47s-18.479-4.081-30.2,9.916a94.91,94.91,0,0,0-9.8,13.425,47.869,47.869,0,0,1-5.2,7.311c-2.931,3.462-6.522,10.923-4.836,26.137L737,402.935s15.779-1.36,19.832,0,32.455-3.156,32.455-3.156-11.27-13.521,1.8-45.071S792.47,297.47,792.47,297.47Z" transform="translate(-314.15 -140.664)" fill="#f55f44"/>
    <path id="Path_45" data-name="Path 45" d="M771.56,359s-17.581,25.259-25.681,29.769l-4.509,2.251S769.758,359,771.56,359Z" transform="translate(-315.548 -160.524)" opacity="0.1"/>
    <path id="Path_46" data-name="Path 46" d="M718.685,339.837s11.562-4.55,16.52,10.535a3.618,3.618,0,0,1-.775,3.584l-27.014,29.15s-7.665,4.509-11.27,1.8-50.029-10.821-50.029-10.821-12.888,3.788-18.152-2.53a1.952,1.952,0,0,1,.632-3.006c2.517-1.272,6.713-.537,11.664-1.149a41.043,41.043,0,0,1,11.426.238c15.459,2.421,51.879,6.42,57.531-8.427C716.427,340.293,718.685,339.837,718.685,339.837Z" transform="translate(-279.125 -154.188)" fill="#fdb797"/>
    <path id="Path_47" data-name="Path 47" d="M761.24,340.08s13.97-2.251,17.125,11.718v-.9S774.312,335.578,761.24,340.08Z" transform="translate(-321.904 -154.207)" opacity="0.1"/>
    <path id="Path_48" data-name="Path 48" d="M796.75,271.22l-23.92,9.916s1.081,1.646,2.367,3.951c2.333.939,5.557.333,8.223.333,5.441,0,9.42-1.435,13.072-4.958A42.688,42.688,0,0,1,796.75,271.22Z" transform="translate(-325.611 -132.444)" opacity="0.1"/>
    <circle id="Ellipse_5" data-name="Ellipse 5" cx="20.281" cy="20.281" r="20.281" transform="translate(436.405 112.632)" fill="#fdb797"/>
    <path id="Path_49" data-name="Path 49" d="M777.812,242.574c.442,1.564-.857,3.013-1.8,4.339-3.285,4.645-2.68,10.97-1.177,16.452.734,2.686,1.836,5.543,4.237,6.951,1.918,1.122,4.278,1.075,6.427,1.639,3.87,1.013,7,4.081,8.841,7.61a28.334,28.334,0,0,1,2.721,11.6,58.7,58.7,0,0,1-7.991,33.06c6.019,1.027,12.242-1.714,16.561-6.046s6.917-10.072,8.733-15.9a75.729,75.729,0,0,0,3.183-16.479,156.083,156.083,0,0,0,0-18.281c-.292-7.107-.632-14.4-3.5-20.914-1.122-2.544-2.618-4.938-3.312-7.631a44.663,44.663,0,0,1-.8-5.59,29.926,29.926,0,0,0-10.147-19.24,23.655,23.655,0,0,0-20.866-4.849,33.89,33.89,0,0,0-11.127,6.053c-5.482,4.169-11.773,10.882-7.9,18.023C763.264,239.622,770.7,243.689,777.812,242.574Z" transform="translate(-321.092 -112.402)" opacity="0.1"/>
    <path id="Path_50" data-name="Path 50" d="M778.465,241.923c.442,1.564-.857,3.013-1.8,4.339-3.285,4.645-2.68,10.97-1.177,16.452.735,2.686,1.836,5.543,4.237,6.951,1.918,1.122,4.278,1.075,6.427,1.639,3.87,1.013,7,4.081,8.841,7.61a28.336,28.336,0,0,1,2.72,11.6,58.7,58.7,0,0,1-8,33.081c6.019,1.027,12.242-1.714,16.561-6.046s6.917-10.072,8.733-15.9a75.726,75.726,0,0,0,3.183-16.479,156.124,156.124,0,0,0,0-18.281c-.292-7.107-.632-14.4-3.5-20.914-1.122-2.544-2.618-4.938-3.312-7.631a44.642,44.642,0,0,1-.8-5.591,29.925,29.925,0,0,0-10.147-19.24,23.655,23.655,0,0,0-20.866-4.849,33.889,33.889,0,0,0-11.127,6.053c-5.482,4.169-11.773,10.882-7.9,18.023C763.925,238.972,771.351,243.039,778.465,241.923Z" transform="translate(-321.296 -112.2)" fill="#72351c"/>
    <path id="Path_51" data-name="Path 51" d="M790.4,404.161s8.563,0,11.718-4.081" transform="translate(-331.232 -173.665)" opacity="0.1"/>
    <path id="Path_52" data-name="Path 52" d="M790.4,408.8s8.563,0,11.718-4.081" transform="translate(-331.232 -175.149)" opacity="0.1"/>
    <path id="Path_53" data-name="Path 53" d="M799.362,334.51s-1.36,10.821-6.311,15.779" transform="translate(-332.079 -152.69)" opacity="0.1"/>
    <g id="Group_93" data-name="Group 93" transform="translate(271.702 451.791)" opacity="0.1">
      <path id="Path_54" data-name="Path 54" d="M514.923,731.569v-.109l-.163.054Z" transform="translate(-514.76 -731.46)" fill="url(#linear-gradient-2)"/>
    </g>
    <g id="Group_94" data-name="Group 94" transform="translate(268.546 450.836)" opacity="0.1">
      <path id="Path_55" data-name="Path 55" d="M512.963,731.119a.777.777,0,0,0,.306-.054C512.222,730.7,506.923,728.957,512.963,731.119Z" transform="translate(-510.12 -730.055)" fill="url(#linear-gradient-3)"/>
    </g>
    <path id="Path_56" data-name="Path 56" d="M526.779,323.441c-3.441-1.68-10.787-4.55-17.1-2.176,0,0-60.53,12-68.161-7.386q-.537-1.36-1.041-2.618a28.16,28.16,0,0,0,.2-3.829,26.947,26.947,0,0,0-.333-4.7,16.439,16.439,0,0,0-2.564-6.352,41.237,41.237,0,0,1-3.666-7.964,30.15,30.15,0,0,0-17.3-17.683c.116-2.9,2.163-7.175,4.019-10.5h.061l.565-.952a20.784,20.784,0,0,0,13.385-19.24,20.191,20.191,0,0,0-3.46-11.3c6.4-1.029,4.209-6.47.25-11.135a30.426,30.426,0,0,0-2.455-2.571,28.674,28.674,0,0,0-14.031-7.59c-.633-.136-1.272-.238-1.911-.326a26.524,26.524,0,0,0-23.07,2.822A11.888,11.888,0,0,0,378.841,202a11.567,11.567,0,1,0,0,23.124h.68a24.218,24.218,0,0,0-.68,5.556,25.1,25.1,0,0,0,19.4,24.158l.2.184a4.166,4.166,0,0,1-.061.578l.048.041a26.877,26.877,0,0,1-3.183,9.753l-.422-.1c-8.794,6.121-11.977,15.4-11.9,25.076a58.155,58.155,0,0,0,5.441,23.8,21.764,21.764,0,0,1,1.714,8.842c-.17,10.474-4.992,23.042-8.27,30.4-1.3,2.918-20.131,48.458-20.131,48.458l.429-.109-.429,1.034a23.543,23.543,0,0,1,12.3.388,20.125,20.125,0,0,0,15.411-2.176,20.117,20.117,0,0,0,2.564,6.175c2.442,3.4-.224,21.845-1.829,31.5a47.93,47.93,0,0,0-.68,8.352c.088,8.753-8.916,24.3-8.916,24.3-10.963,6-27.171,60.911-27.171,60.911,0,2.938-1.755,7.413-3.23,10.671h0c-1.075,2.374-2.04,4.081-2.04,4.081a2.993,2.993,0,0,0,0,.5v.068a2.558,2.558,0,0,0,.048.258l-6.257,15.785c17.159,9.229,40.514,10.617,40.514,10.617,18.588,1.36,8.583-8.767,8.583-8.767-11.562,0-19.519-11.344-22.736-16.874l.809-.2c-2.38-15.69,31.965-68.3,31.965-68.3l10.963-13.847,6.672-16.683a42.777,42.777,0,0,0,5.441-10.242l16.01,37.447c-.952,23.076,16.207,68.3,16.207,68.3,2.659,3.006,3.258,9.61,3.326,10.508l.483-.163-.952,15.962c5.72,3.693,48.621-7.386,48.621-7.386,10.487-6.461,3.815-8.3,3.815-8.3-10.7,3.455-26.225-3.958-33.326-7.9l.932-.408c-6.672-3.693-17.159-76.6-17.159-76.6,2.863-9.692-4.761-27.2-4.761-27.2.871-6.733-4.611-29.347-9.032-46.03a91.134,91.134,0,0,0,16.9-1.728c-.354-.224-.68-.462-1.041-.68.68-.129,1.041-.211,1.041-.211-14.731-9.42-23.124-41.235-26.749-59.258a19.037,19.037,0,0,0,2.918,2.04l4.761,2.306-.544-.592c2.659,1.177,7.243,2.72,9.841.823,3.815-2.768,52.906-11.072,52.906-11.072s13.6,3.883,19.2-2.591a1.979,1.979,0,0,0-.7-3.135Z" transform="translate(-187.753 -110.301)" fill="url(#linear-gradient-4)"/>
    <circle id="Ellipse_6" data-name="Ellipse 6" cx="24.341" cy="24.341" r="24.341" transform="translate(194.135 100.683)" fill="#ffc533"/>
    <path id="Path_57" data-name="Path 57" d="M449.985,281.78s-8.563,13.072-6.311,17.125l-22.083-5.441s5.863-6.311,4.509-21.634Z" transform="translate(-213.254 -132.639)" fill="#fdb797"/>
    <path id="Path_58" data-name="Path 58" d="M427.55,273.21l23.886,9.916s-1.081,1.646-2.367,3.951c-2.333.939-5.557.333-8.223.333-5.441,0-9.42-1.435-13.072-4.958A45.672,45.672,0,0,0,427.55,273.21Z" transform="translate(-215.161 -133.081)" opacity="0.1"/>
    <circle id="Ellipse_7" data-name="Ellipse 7" cx="20.281" cy="20.281" r="20.281" transform="translate(206.533 113.986)" fill="#fdb797"/>
    <circle id="Ellipse_8" data-name="Ellipse 8" cx="11.269" cy="11.269" r="11.269" transform="translate(182.865 97.078)" fill="#ffc533"/>
    <path id="Path_59" data-name="Path 59" d="M448.345,238.669c-5.074-.088-10.841-1.109-14.643,2.244-2.72,2.408-3.455,6.3-4.38,9.821-1.36,5.291-4.475,11.106-9.889,11.9-3.305.483-6.631-1.163-8.978-3.543s-3.863-5.441-5.3-8.44-2.836-6.121-2.72-9.447c.143-3.951,2.448-7.481,4.8-10.644a44.327,44.327,0,0,1,4.727-5.577,26.524,26.524,0,0,1,39.209,2.646C455.4,232.745,457.5,238.825,448.345,238.669Z" transform="translate(-207.125 -115.277)" opacity="0.1"/>
    <path id="Path_60" data-name="Path 60" d="M447.685,238.009c-5.074-.088-10.841-1.109-14.643,2.244-2.72,2.408-3.455,6.3-4.38,9.821-1.36,5.291-4.475,11.106-9.889,11.9-3.305.483-6.631-1.163-8.978-3.543s-3.863-5.441-5.3-8.44-2.836-6.121-2.72-9.447c.143-3.951,2.448-7.481,4.8-10.644a44.327,44.327,0,0,1,4.727-5.577,26.524,26.524,0,0,1,39.209,2.646C454.731,232.085,456.839,238.165,447.685,238.009Z" transform="translate(-206.914 -115.066)" fill="#ffc533"/>
    <path id="Path_61" data-name="Path 61" d="M526.805,703.32s21.634,14.425,35.155,9.916c0,0,6.311,1.8-3.6,8.114,0,0-40.569,10.82-45.976,7.209l1.36-23.437Z" transform="translate(-242.297 -270.667)" fill="#333"/>
    <path id="Path_62" data-name="Path 62" d="M372.787,702.076s8.563,19.383,22.988,19.383c0,0,9.467,9.916-8.114,8.563,0,0-22.083-1.36-38.311-10.365l7.76-20.227Z" transform="translate(-190.146 -269.423)" fill="#333"/>
    <path id="Path_63" data-name="Path 63" d="M478.4,463.41s14.874,52.736,13.521,63.55c0,0,7.209,17.125,4.509,26.592,0,0,9.916,71.215,16.227,74.813,0,0-18.363,8.311-18.927,8.114-6.311-2.251.449,0,.449,0s-.449-7.209-3.156-10.365c0,0-16.228-44.173-15.323-66.706L454.07,507.121Z" transform="translate(-223.644 -193.923)" fill="#3ad29f"/>
    <path id="Path_64" data-name="Path 64" d="M478.4,463.41s14.874,52.736,13.521,63.55c0,0,7.209,17.125,4.509,26.592,0,0,9.916,71.215,16.227,74.813,0,0-18.363,8.311-18.927,8.114-6.311-2.251.449,0,.449,0s-.449-7.209-3.156-10.365c0,0-16.228-44.173-15.323-66.706L454.07,507.121Z" transform="translate(-223.644 -193.923)" opacity="0.1"/>
    <path id="Path_65" data-name="Path 65" d="M450.367,455.393l-9.916,23.437s-7.665,38.311-15.779,48.676l-6.311,16.228L408,557.254s-32.455,51.383-30.2,66.706c0,0-20.281,5.441-19.832-1.36,0,0,4.958-9.467,4.958-14.425,0,0,15.323-53.634,25.695-59.5,0,0,8.515-15.187,8.433-23.729a48.33,48.33,0,0,1,.68-8.161c1.517-9.426,4.04-27.463,1.727-30.762-3.156-4.509-8.563-25.239,6.76-39.215Z" transform="translate(-192.9 -188.613)" fill="#3ad29f"/>
    <path id="Path_66" data-name="Path 66" d="M358,622.619s4.958-9.467,4.958-14.425c0,0,15.323-53.634,25.695-59.5,0,0,8.515-15.187,8.433-23.729a48.323,48.323,0,0,1,.68-8.161c1.517-9.426,4.04-27.463,1.728-30.762-3.156-4.509-8.563-25.239,6.76-39.215l2.612.51c-14.7,13.97-9.379,34.291-6.264,38.712s-2.72,36.508-2.72,36.508c2.251,7.665-8.114,26.144-8.114,26.144-10.365,5.863-25.695,59.5-25.695,59.5,0,4.958-4.958,14.425-4.958,14.425-.15,2.231,1.966,3.135,4.863,3.346C361.627,626.224,357.771,625.612,358,622.619Z" transform="translate(-192.908 -188.619)" opacity="0.1"/>
    <path id="Path_67" data-name="Path 67" d="M408.212,302l16.751,4.122a28.987,28.987,0,0,1,20.4,18.567,40.909,40.909,0,0,0,3.462,7.781,16.355,16.355,0,0,1,2.421,6.209,30.06,30.06,0,0,1-4,19.669s7.624,57.245,27.422,70.317c0,0-19.322,4.448-36.257-1.054a37.525,37.525,0,0,0-33.53,4.829l-.422.306a18.594,18.594,0,0,1-15.935,3.067,21.628,21.628,0,0,0-11.63-.374s17.812-44.473,19.043-47.329c4.149-9.651,10.95-28.476,6.189-39.181C395.515,334.027,393.094,311.943,408.212,302Z" transform="translate(-198.959 -142.29)" opacity="0.1"/>
    <path id="Path_68" data-name="Path 68" d="M408.212,300.71l16.751,4.121a28.987,28.987,0,0,1,20.4,18.567,40.91,40.91,0,0,0,3.462,7.78,16.355,16.355,0,0,1,2.421,6.209,30.06,30.06,0,0,1-4,19.669s7.624,57.245,27.422,70.317c0,0-19.322,4.448-36.257-1.054a37.525,37.525,0,0,0-33.53,4.829l-.422.306A18.594,18.594,0,0,1,388.53,434.5a21.627,21.627,0,0,0-11.63-.374s17.812-44.473,19.043-47.329c4.149-9.658,10.95-28.483,6.189-39.215C395.515,332.709,393.094,311.531,408.212,300.71Z" transform="translate(-198.959 -141.878)" fill="#535461"/>
    <path id="Path_69" data-name="Path 69" d="M449.76,361s17.581,25.239,25.695,29.748L479.964,393S451.562,361,449.76,361Z" transform="translate(-222.266 -161.164)" opacity="0.1"/>
    <path id="Path_70" data-name="Path 70" d="M466.084,341.827s-11.562-4.55-16.52,10.535a3.618,3.618,0,0,0,.775,3.584L477.354,385.1s7.665,4.509,11.27,1.8,50.029-10.821,50.029-10.821,12.8,3.761,18.1-2.469a2,2,0,0,0-.578-3.074c-2.8-1.408-7.91-1.36-13.412-1.829a21.763,21.763,0,0,0-5.7.258c-11.766,2.088-55.293,8.576-61.51-7.76C468.342,342.276,466.084,341.827,466.084,341.827Z" transform="translate(-222.145 -154.824)" fill="#fdb797"/>
    <path id="Path_71" data-name="Path 71" d="M466.225,342.069s-13.97-2.251-17.125,11.718v-.9S453.154,337.56,466.225,342.069Z" transform="translate(-222.054 -154.842)" opacity="0.1"/>
    <path id="Path_72" data-name="Path 72" d="M641.938,287.779a50.029,50.029,0,1,1-50.029-50.029A50.029,50.029,0,0,1,641.938,287.779Zm-28.565-7.128c.993-6.658-4.081-10.236-11-12.623L604.607,259l-5.516-1.36-2.19,8.78c-1.442-.36-2.924-.68-4.4-1.034l2.2-8.842-5.489-1.36-2.251,9.012q-1.8-.408-3.5-.823h0l-7.57-1.891-1.462,5.863s4.081.932,3.985.993a2.927,2.927,0,0,1,2.557,3.19l-2.564,10.277a4.548,4.548,0,0,1,.571.184l-.578-.143-3.591,14.391a2,2,0,0,1-2.517,1.306c.055.082-3.992-.993-3.992-.993l-2.721,6.284,7.141,1.782c1.36.333,2.632.68,3.911,1.007l-2.272,9.12,5.482,1.36,2.251-9.025q2.183.592,4.373,1.136l-2.244,8.984,5.488,1.36,2.272-9.107c9.358,1.768,16.4,1.054,19.363-7.406,2.387-6.8-.116-10.746-5.046-13.31,3.584-.83,6.291-3.183,7.012-8.059Zm-12.541,17.588c-1.693,6.8-13.174,3.129-16.894,2.21l3.013-12.086c3.707.932,15.643,2.768,13.868,9.875Zm1.7-17.683c-1.551,6.2-11.1,3.047-14.2,2.278l2.72-10.957c3.094.769,13.079,2.21,11.44,8.678Z" transform="translate(-251.733 -121.738)" fill="#fff" opacity="0.5"/>
    <path id="Path_73" data-name="Path 73" d="M604.959,644.376S594.24,607.99,607,581.207a57.478,57.478,0,0,0,4.645-36.046,96.672,96.672,0,0,0-5.108-16.921" transform="translate(-270.564 -214.661)" fill="none" stroke="#535461" stroke-miterlimit="10" stroke-width="2"/>
    <path id="Path_74" data-name="Path 74" d="M613.276,499.531c0,4.461-8.073,17.39-8.073,17.39S597.13,504,597.13,499.531a8.076,8.076,0,1,1,16.153,0Z" transform="translate(-269.407 -202.894)" fill="#613bea"/>
    <path id="Path_75" data-name="Path 75" d="M632.858,533.784c-2.421,3.741-16.228,10.2-16.228,10.2s.252-15.241,2.673-18.989a8.075,8.075,0,0,1,13.555,8.78Z" transform="translate(-275.645 -212.445)" fill="#613bea"/>
    <path id="Path_76" data-name="Path 76" d="M630.616,594.528c-3.979,2.04-19.166.619-19.166.619s7.91-13.031,11.9-15.044a8.074,8.074,0,0,1,7.27,14.419Z" transform="translate(-273.988 -230.974)" fill="#613bea"/>
    <path id="Path_77" data-name="Path 77" d="M619.575,641.689c-3.584,2.652-18.785,3.849-18.785,3.849s5.6-14.18,9.181-16.833a8.075,8.075,0,1,1,9.6,12.983Z" transform="translate(-270.578 -246.292)" fill="#613bea"/>
    <path id="Path_78" data-name="Path 78" d="M590.455,549.322c3.2,3.108,18.1,6.325,18.1,6.325s-3.652-14.806-6.849-17.907A8.073,8.073,0,1,0,590.455,549.3Z" transform="translate(-266.425 -216.904)" fill="#613bea"/>
    <path id="Path_79" data-name="Path 79" d="M577.194,603.661c3.979,2.04,19.166.619,19.166.619s-7.917-13.031-11.868-15.037a8.074,8.074,0,0,0-7.271,14.419Z" transform="translate(-261.618 -233.898)" fill="#613bea"/>
    <path id="Path_80" data-name="Path 80" d="M572.97,659.039c3.584,2.652,18.785,3.849,18.785,3.849s-5.6-14.18-9.181-16.833a8.075,8.075,0,0,0-9.6,12.983Z" transform="translate(-260.632 -251.842)" fill="#613bea"/>
    <path id="Path_81" data-name="Path 81" d="M613.276,499.531c0,4.461-8.073,17.39-8.073,17.39S597.13,504,597.13,499.531a8.076,8.076,0,1,1,16.153,0Z" transform="translate(-269.407 -202.894)" fill="#fff" opacity="0.5"/>
    <path id="Path_82" data-name="Path 82" d="M632.858,533.784c-2.421,3.741-16.228,10.2-16.228,10.2s.252-15.241,2.673-18.989a8.075,8.075,0,0,1,13.555,8.78Z" transform="translate(-275.645 -212.445)" fill="#fff" opacity="0.5"/>
    <path id="Path_83" data-name="Path 83" d="M630.616,594.528c-3.979,2.04-19.166.619-19.166.619s7.91-13.031,11.9-15.044a8.074,8.074,0,0,1,7.27,14.419Z" transform="translate(-273.988 -230.974)" fill="#fff" opacity="0.5"/>
    <path id="Path_84" data-name="Path 84" d="M619.575,641.689c-3.584,2.652-18.785,3.849-18.785,3.849s5.6-14.18,9.181-16.833a8.075,8.075,0,1,1,9.6,12.983Z" transform="translate(-270.578 -246.292)" fill="#fff" opacity="0.5"/>
    <path id="Path_85" data-name="Path 85" d="M590.455,549.322c3.2,3.108,18.1,6.325,18.1,6.325s-3.652-14.806-6.849-17.907A8.073,8.073,0,1,0,590.455,549.3Z" transform="translate(-266.425 -216.904)" fill="#fff" opacity="0.5"/>
    <path id="Path_86" data-name="Path 86" d="M577.194,603.661c3.979,2.04,19.166.619,19.166.619s-7.917-13.031-11.868-15.037a8.074,8.074,0,0,0-7.271,14.419Z" transform="translate(-261.618 -233.898)" fill="#fff" opacity="0.5"/>
    <path id="Path_87" data-name="Path 87" d="M572.97,659.039c3.584,2.652,18.785,3.849,18.785,3.849s-5.6-14.18-9.181-16.833a8.075,8.075,0,0,0-9.6,12.983Z" transform="translate(-260.632 -251.842)" fill="#fff" opacity="0.5"/>
  </g>
</svg>
