<svg xmlns="http://www.w3.org/2000/svg" width="691.6" height="397.379" viewBox="0 0 691.6 397.379">
  <g id="undraw_progressive_app_m9ms" transform="translate(0 0)">
    <circle id="Ellipse_9" data-name="Ellipse 9" cx="35.967" cy="35.967" r="35.967" transform="translate(113.884 280.801)" fill="#f2f2f2"/>
    <circle id="Ellipse_10" data-name="Ellipse 10" cx="35.967" cy="35.967" r="35.967" transform="translate(119.732 275.537)" fill="#613bea"/>
    <rect id="Rectangle_22" data-name="Rectangle 22" width="445.01" height="1.214" transform="translate(184.665 271.707)" fill="#3f3d56"/>
    <path id="Path_88" data-name="Path 88" d="M456.085,139.274H298.134v-3.256H226.513v3.256H67.91a10.684,10.684,0,0,0-10.684,10.684V366.242A10.684,10.684,0,0,0,67.91,376.926H456.085a10.684,10.684,0,0,0,10.684-10.684V149.958a10.684,10.684,0,0,0-10.684-10.684Z" transform="translate(-40.949 -127.95)" fill="#3f3d56"/>
    <rect id="Rectangle_23" data-name="Rectangle 23" width="380.894" height="214.863" transform="translate(30.602 30.206)" fill="#613bea"/>
    <circle id="Ellipse_11" data-name="Ellipse 11" cx="3.907" cy="3.907" r="3.907" transform="translate(216.817 16.533)" fill="#613bea"/>
    <path id="Path_89" data-name="Path 89" d="M322.371,264.617H50.406V49.754Z" transform="translate(-19.804 -19.548)" opacity="0.1"/>
    <circle id="Ellipse_12" data-name="Ellipse 12" cx="36.613" cy="36.613" r="36.613" transform="translate(53.588 155.765)" fill="#f2f2f2"/>
    <rect id="Rectangle_24" data-name="Rectangle 24" width="35.58" height="7.435" transform="translate(309.597 146.083)" fill="#3f3d56"/>
    <rect id="Rectangle_25" data-name="Rectangle 25" width="121.608" height="3.186" transform="translate(266.582 88.2)" fill="#3f3d56"/>
    <rect id="Rectangle_26" data-name="Rectangle 26" width="121.608" height="3.186" transform="translate(266.582 98.289)" fill="#3f3d56"/>
    <rect id="Rectangle_27" data-name="Rectangle 27" width="121.608" height="3.186" transform="translate(266.582 108.38)" fill="#3f3d56"/>
    <rect id="Rectangle_28" data-name="Rectangle 28" width="121.608" height="3.186" transform="translate(266.582 118.469)" fill="#3f3d56"/>
    <rect id="Rectangle_29" data-name="Rectangle 29" width="121.608" height="3.186" transform="translate(266.582 128.559)" fill="#3f3d56"/>
    <rect id="Rectangle_30" data-name="Rectangle 30" width="14.869" height="14.869" transform="translate(373.321 34.565)" fill="#f2f2f2"/>
    <path id="Path_90" data-name="Path 90" d="M669.51,203.84H651.455V185.785H669.51Zm-17.27-.785h16.485V186.57H652.24Z" transform="translate(-274.416 -147.503)" fill="#3f3d56"/>
    <path id="Path_91" data-name="Path 91" d="M466.93,517.883H429.757V515.2a.531.531,0,0,0-.531-.531H416.481a.531.531,0,0,0-.531.531v2.678h-7.966V515.2a.531.531,0,0,0-.531-.531H394.708a.531.531,0,0,0-.531.531v2.678h-7.965V515.2a.531.531,0,0,0-.531-.531H372.936a.531.531,0,0,0-.531.531v2.678h-7.965V515.2a.531.531,0,0,0-.531-.531H351.163a.531.531,0,0,0-.531.531v2.678h-7.965V515.2a.531.531,0,0,0-.531-.531H329.39a.531.531,0,0,0-.531.531v2.678h-7.965V515.2a.531.531,0,0,0-.531-.531H307.618a.531.531,0,0,0-.531.531v2.678h-7.966V515.2a.531.531,0,0,0-.531-.531H198.754a.531.531,0,0,0-.531.531v2.678h-7.965V515.2a.531.531,0,0,0-.531-.531H176.982a.531.531,0,0,0-.531.531v2.678h-7.965V515.2a.531.531,0,0,0-.531-.531H155.209a.531.531,0,0,0-.531.531v2.678h-7.966V515.2a.531.531,0,0,0-.531-.531H133.436a.531.531,0,0,0-.531.531v2.678H124.94V515.2a.531.531,0,0,0-.531-.531H111.664a.531.531,0,0,0-.531.531v2.678h-7.965V515.2a.531.531,0,0,0-.531-.531H89.891a.531.531,0,0,0-.531.531v2.678H81.394V515.2a.531.531,0,0,0-.531-.531H68.118a.531.531,0,0,0-.531.531v2.678H43.16a12.745,12.745,0,0,0-12.745,12.745v5.763a12.745,12.745,0,0,0,12.745,12.745H466.93a12.745,12.745,0,0,0,12.745-12.745v-5.763a12.745,12.745,0,0,0-12.745-12.745Z" transform="translate(-30.415 -276.721)" fill="#3f3d56"/>
    <path id="Path_92" data-name="Path 92" d="M163.726,417.552a46.14,46.14,0,1,1,46.14-46.14A46.14,46.14,0,0,1,163.726,417.552Zm0-91.066a44.926,44.926,0,1,0,44.926,44.926,44.926,44.926,0,0,0-44.926-44.926Z" transform="translate(-64.663 -202.306)" fill="#3f3d56"/>
    <rect id="Rectangle_31" data-name="Rectangle 31" width="154.813" height="1.214" transform="translate(355.869 19.757)" fill="#3f3d56"/>
    <rect id="Rectangle_32" data-name="Rectangle 32" width="445.01" height="1.214" transform="translate(246.59 340.31)" fill="#3f3d56"/>
    <rect id="Rectangle_33" data-name="Rectangle 33" width="154.813" height="1.214" transform="translate(116.973 396.164)" fill="#3f3d56"/>
    <rect id="Rectangle_34" data-name="Rectangle 34" width="17" height="17" transform="translate(286 334)" fill="#613bea"/>
    <path id="Path_93" data-name="Path 93" d="M533.057,671.37H512.415V650.728h20.642Zm-19.744-.9h18.846V651.626H513.312Z" transform="translate(-219.789 -330.175)" fill="#3f3d56"/>
    <rect id="Rectangle_35" data-name="Rectangle 35" width="17" height="17" transform="translate(483 13)" fill="#613bea"/>
    <path id="Path_94" data-name="Path 94" d="M858.057,143.37H837.415V122.728h20.642Zm-19.744-.9h18.846V123.626H838.312Z" transform="translate(-347.478 -122.728)" fill="#3f3d56"/>
    <rect id="Rectangle_36" data-name="Rectangle 36" width="17" height="17" transform="translate(654 334)" fill="#613bea"/>
    <path id="Path_95" data-name="Path 95" d="M1140.052,671.37H1119.41V650.728h20.642Zm-19.744-.9h18.847V651.626h-18.847Z" transform="translate(-458.272 -330.175)" fill="#3f3d56"/>
    <path id="Path_96" data-name="Path 96" d="M1002.779,314.268h-1.444v-39.56a22.9,22.9,0,0,0-22.9-22.9H894.622a22.9,22.9,0,0,0-22.9,22.9V491.737a22.9,22.9,0,0,0,22.9,22.9h83.813a22.9,22.9,0,0,0,22.9-22.9V342.427h1.444Z" transform="translate(-360.959 -173.444)" fill="#3f3d56"/>
    <path id="Path_97" data-name="Path 97" d="M1000.549,280.678V497.392a17.1,17.1,0,0,1-17.1,17.1H899.232a17.1,17.1,0,0,1-17.1-17.1V280.678a17.1,17.1,0,0,1,17.094-17.1H909.45a8.123,8.123,0,0,0,7.522,11.189h48.016a8.123,8.123,0,0,0,7.522-11.189h10.94a17.1,17.1,0,0,1,17.1,17.1Z" transform="translate(-365.049 -178.069)" fill="#613bea"/>
    <rect id="Rectangle_37" data-name="Rectangle 37" width="25.088" height="7.435" transform="translate(563.749 228.405)" fill="#3f3d56"/>
    <rect id="Rectangle_38" data-name="Rectangle 38" width="85.748" height="3.186" transform="translate(533.418 170.521)" fill="#3f3d56"/>
    <rect id="Rectangle_39" data-name="Rectangle 39" width="85.748" height="3.186" transform="translate(533.418 180.611)" fill="#3f3d56"/>
    <rect id="Rectangle_40" data-name="Rectangle 40" width="85.748" height="3.186" transform="translate(533.418 190.701)" fill="#3f3d56"/>
    <rect id="Rectangle_41" data-name="Rectangle 41" width="85.748" height="3.186" transform="translate(533.418 200.791)" fill="#3f3d56"/>
    <rect id="Rectangle_42" data-name="Rectangle 42" width="85.748" height="3.186" transform="translate(533.418 210.88)" fill="#3f3d56"/>
    <rect id="Rectangle_43" data-name="Rectangle 43" width="14.869" height="14.869" transform="translate(564.419 128.208)" fill="#f2f2f2"/>
    <path id="Path_98" data-name="Path 98" d="M969.474,340.032v18.055h18.055V340.032ZM986.746,357.3H970.257V340.815h16.489Z" transform="translate(-399.363 -208.105)" fill="#3f3d56"/>
    <path id="Path_99" data-name="Path 99" d="M1000.549,550.041v23.143a17.1,17.1,0,0,1-17.1,17.1H899.232a17.1,17.1,0,0,1-17.1-17.1v-116.7l70.953,56.054,1.214.959,13.2,10.424,1.232.977Z" transform="translate(-365.049 -253.861)" opacity="0.1"/>
    <circle id="Ellipse_13" data-name="Ellipse 13" cx="26.633" cy="26.633" r="26.633" transform="translate(542.374 276.136)" fill="#f2f2f2"/>
    <path id="Path_100" data-name="Path 100" d="M316.4,708.909a52.818,52.818,0,1,1,52.818-52.818A52.818,52.818,0,0,1,316.4,708.909Zm0-104.423a51.6,51.6,0,1,0,51.6,51.6A51.6,51.6,0,0,0,316.4,604.486Z" transform="translate(-122.026 -311.53)" fill="#3f3d56"/>
    <path id="Path_101" data-name="Path 101" d="M958.977,612.054a33.391,33.391,0,1,1,33.391-33.391A33.391,33.391,0,0,1,958.977,612.054Zm0-65.568a32.177,32.177,0,1,0,32.177,32.177,32.177,32.177,0,0,0-32.177-32.177Z" transform="translate(-382.12 -288.742)" fill="#3f3d56"/>
  </g>
</svg>
